<svg id="Layer_1" data-name="Layer 1" xmlns="http://www.w3.org/2000/svg" viewBox="0 0 35.15 28.84"><polygon points="13.94 3.52 13.37 3.81 13.48 3.18 13.02 2.74 13.65 2.65 13.94 2.07 14.22 2.65 14.85 2.74 14.39 3.19 14.5 3.81 13.94 3.52" style="fill:#f9d749"/><polygon points="13.94 0.94 13.32 2.19 11.95 2.39 12.94 3.36 12.71 4.73 13.94 4.08 15.17 4.73 14.93 3.36 15.93 2.39 14.55 2.19 13.94 0.94 13.94 0.94" style="fill:#f9d749"/><polygon points="24.52 1.49 24.22 1.44 24.44 1.23 24.4 0.93 24.66 1.08 24.94 0.94 24.88 1.24 25.09 1.46 24.79 1.49 24.65 1.76 24.52 1.49" style="fill:#f9d749"/><polygon points="23.76 0 23.91 1.04 23.14 1.76 24.18 1.94 24.62 2.89 25.11 1.96 26.16 1.83 25.42 1.08 25.62 0.04 24.68 0.51 23.76 0 23.76 0" style="fill:#f9d749"/><polygon points="24.13 5.78 24.67 6.29 25.4 6.13 25.08 6.81 25.46 7.45 24.72 7.36 24.22 7.92 24.08 7.18 23.4 6.88 24.05 6.52 24.13 5.78" style="fill:#f9d749"/><polygon points="24.13 5.78 24.05 6.52 23.4 6.88 24.08 7.18 24.22 7.92 24.72 7.36 25.46 7.45 25.08 6.81 25.4 6.13 24.67 6.29 24.13 5.78 24.13 5.78" style="fill:#f9d749"/><polygon points="6.67 5.56 6.37 5.63 6.49 5.35 6.32 5.1 6.63 5.12 6.82 4.89 6.89 5.18 7.17 5.29 6.91 5.45 6.9 5.75 6.67 5.56" style="fill:#f9d749"/><polygon points="7.07 3.78 6.4 4.6 5.35 4.52 5.93 5.41 5.53 6.38 6.54 6.11 7.35 6.79 7.4 5.74 8.3 5.18 7.31 4.81 7.07 3.78 7.07 3.78" style="fill:#f9d749"/><rect x="1.46" y="10.44" width="31" height="17" style="fill:#f9d749"/><path d="M31,15V31H1V15H31m1-1H0V32H32V14Z" transform="translate(0.96 -4.06)" style="fill:#f9d749"/><ellipse cx="13.46" cy="10.44" rx="2.25" ry="1.25" style="fill:#f9d749"/><path d="M12.5,13.5c1.14,0,2,.53,2,1s-.86,1-2,1-2-.53-2-1,.86-1,2-1m0-.5c-1.38,0-2.5.67-2.5,1.5S11.12,16,12.5,16s2.5-.67,2.5-1.5S13.88,13,12.5,13Z" transform="translate(0.96 -4.06)" style="fill:#fffffd"/><path d="M16.5,15.75c-1.22,0-2.25-.57-2.25-1.25s1-1.25,2.25-1.25,2.25.57,2.25,1.25S17.72,15.75,16.5,15.75Z" transform="translate(0.96 -4.06)" style="fill:#f9d749"/><path d="M16.5,13.5c1.14,0,2,.53,2,1s-.86,1-2,1-2-.53-2-1,.86-1,2-1m0-.5c-1.38,0-2.5.67-2.5,1.5S15.12,16,16.5,16s2.5-.67,2.5-1.5S17.88,13,16.5,13Z" transform="translate(0.96 -4.06)" style="fill:#fffffd"/><path d="M19.93,15.82c-.86,0-1.5-.32-1.62-.8a1.05,1.05,0,0,1,.4-1,3.21,3.21,0,0,1,1.5-.78,3.69,3.69,0,0,1,.87-.1c.85,0,1.49.32,1.61.8a1.05,1.05,0,0,1-.4,1,3.21,3.21,0,0,1-1.5.78A3.67,3.67,0,0,1,19.93,15.82Z" transform="translate(0.96 -4.06)" style="fill:#f9d749"/><path d="M21.07,13.43h0c.72,0,1.29.25,1.38.61a.83.83,0,0,1-.33.72,3,3,0,0,1-1.39.71,3.19,3.19,0,0,1-.8.1c-.72,0-1.29-.25-1.38-.61a.83.83,0,0,1,.33-.72,3,3,0,0,1,1.39-.71,3.19,3.19,0,0,1,.8-.1m0-.5a4.35,4.35,0,0,0-.92.11c-1.34.32-2.27,1.23-2.08,2,.15.62.91,1,1.86,1a4.35,4.35,0,0,0,.92-.11c1.34-.32,2.27-1.23,2.08-2-.15-.62-.91-1-1.86-1Z" transform="translate(0.96 -4.06)" style="fill:#fffffd"/><path d="M21.22,23.56c-.85,0-1.5-.32-1.62-.8-.15-.66.72-1.46,1.9-1.74a3.75,3.75,0,0,1,.87-.1c.85,0,1.5.32,1.61.79a1.06,1.06,0,0,1-.4,1,3.2,3.2,0,0,1-1.5.77A3.69,3.69,0,0,1,21.22,23.56Z" transform="translate(0.96 -4.06)" style="fill:#f9d749"/><path d="M22.37,21.17h0c.71,0,1.29.25,1.37.6s-.6,1.17-1.71,1.44a3.9,3.9,0,0,1-.81.1c-.71,0-1.29-.26-1.37-.61s.6-1.17,1.71-1.44a3.79,3.79,0,0,1,.81-.09m0-.5a3.67,3.67,0,0,0-.92.11c-1.35.32-2.28,1.23-2.09,2,.15.61.91,1,1.86,1a4.35,4.35,0,0,0,.92-.11c1.34-.32,2.28-1.24,2.09-2-.15-.62-.91-1-1.86-1Z" transform="translate(0.96 -4.06)" style="fill:#fffffd"/><ellipse cx="23.75" cy="20.18" rx="2.25" ry="1.25" style="fill:#f9d749"/><path d="M22.79,23.24c1.15,0,2,.52,2,1s-.85,1-2,1-2-.53-2-1,.86-1,2-1m0-.5c-1.38,0-2.5.67-2.5,1.5s1.12,1.5,2.5,1.5,2.5-.67,2.5-1.5-1.12-1.5-2.5-1.5Z" transform="translate(0.96 -4.06)" style="fill:#fffffd"/><path d="M18.57,29a1.14,1.14,0,0,1-1.07-.48c-.31-.6.34-1.58,1.43-2.14a3.31,3.31,0,0,1,1.5-.4,1.14,1.14,0,0,1,1.07.48c.31.6-.34,1.58-1.43,2.14A3.31,3.31,0,0,1,18.57,29Z" transform="translate(0.96 -4.06)" style="fill:#f9d749"/><path d="M20.42,26.24h0a.92.92,0,0,1,.86.35c.21.42-.3,1.28-1.32,1.8a3.07,3.07,0,0,1-1.38.37.92.92,0,0,1-.86-.35c-.21-.42.3-1.28,1.32-1.8a3.07,3.07,0,0,1,1.38-.37m0-.5a3.57,3.57,0,0,0-1.61.43c-1.22.63-1.91,1.74-1.53,2.47a1.36,1.36,0,0,0,1.3.62,3.57,3.57,0,0,0,1.61-.43c1.22-.63,1.91-1.74,1.53-2.47a1.36,1.36,0,0,0-1.3-.62Z" transform="translate(0.96 -4.06)" style="fill:#fffffd"/><path d="M12.38,24.56a3.79,3.79,0,0,1-.88-.11,3.3,3.3,0,0,1-1.5-.78,1,1,0,0,1-.39-1c.11-.47.76-.79,1.6-.79a3.85,3.85,0,0,1,.88.11c1.19.29,2.05,1.09,1.89,1.75C13.86,24.24,13.22,24.56,12.38,24.56Z" transform="translate(0.96 -4.06)" style="fill:#f9d749"/><path d="M11.21,22.16h0a3.36,3.36,0,0,1,.82.11,2.92,2.92,0,0,1,1.38.71.85.85,0,0,1,.33.73c-.09.35-.66.6-1.36.6a3.29,3.29,0,0,1-.82-.1,3,3,0,0,1-1.38-.72.84.84,0,0,1-.33-.73c.09-.35.66-.6,1.36-.6m0-.5c-.94,0-1.7.37-1.84,1-.2.81.73,1.72,2.07,2.05a3.91,3.91,0,0,0,.94.12c.94,0,1.69-.37,1.84-1,.2-.8-.73-1.72-2.07-2a3.91,3.91,0,0,0-.94-.12Z" transform="translate(0.96 -4.06)" style="fill:#fffffd"/><path d="M3.78,22.7c-.85,0-1.5-.32-1.61-.8-.16-.66.71-1.46,1.9-1.74a3.67,3.67,0,0,1,.86-.1c.85,0,1.5.32,1.61.79.16.66-.71,1.46-1.89,1.74A3.84,3.84,0,0,1,3.78,22.7Z" transform="translate(0.96 -4.06)" style="fill:#f9d749"/><path d="M4.93,20.31h0c.71,0,1.29.25,1.37.6s-.6,1.17-1.71,1.44a3.82,3.82,0,0,1-.81.1c-.71,0-1.29-.26-1.37-.61S3,20.67,4.12,20.4a3.86,3.86,0,0,1,.81-.09m0-.5a3.73,3.73,0,0,0-.92.11c-1.35.32-2.28,1.23-2.09,2,.15.61.91,1,1.86,1a4.27,4.27,0,0,0,.92-.11c1.35-.33,2.28-1.24,2.09-2-.15-.62-.91-1-1.86-1Z" transform="translate(0.96 -4.06)" style="fill:#fffffd"/><ellipse cx="3.31" cy="19.32" rx="2.25" ry="1.25" style="fill:#f9d749"/><path d="M2.36,22.38c1.14,0,2,.52,2,1s-.86,1-2,1-2-.53-2-1,.85-1,2-1m0-.5c-1.39,0-2.5.67-2.5,1.5s1.11,1.5,2.5,1.5,2.5-.68,2.5-1.5-1.12-1.5-2.5-1.5Z" transform="translate(0.96 -4.06)" style="fill:#fffffd"/><path d="M.93,15.82c-.86,0-1.5-.32-1.62-.8a1.05,1.05,0,0,1,.4-1,3.21,3.21,0,0,1,1.5-.78,3.67,3.67,0,0,1,.86-.1c.86,0,1.5.32,1.62.8a1.05,1.05,0,0,1-.4,1,3.21,3.21,0,0,1-1.5.78A3.67,3.67,0,0,1,.93,15.82Z" transform="translate(0.96 -4.06)" style="fill:#f9d749"/><path d="M2.07,13.43h0c.72,0,1.29.25,1.38.61s-.6,1.17-1.72,1.43a3.19,3.19,0,0,1-.8.1c-.72,0-1.29-.25-1.38-.61s.6-1.17,1.72-1.43a3.19,3.19,0,0,1,.8-.1m0-.5a4.35,4.35,0,0,0-.92.11c-1.34.32-2.27,1.23-2.08,2,.15.62.91,1,1.86,1A4.35,4.35,0,0,0,1.85,16c1.34-.32,2.27-1.23,2.08-2-.15-.62-.91-1-1.86-1Z" transform="translate(0.96 -4.06)" style="fill:#fffffd"/><ellipse cx="6.46" cy="10.44" rx="2.25" ry="1.25" style="fill:#f9d749"/><path d="M5.5,13.5c1.14,0,2,.53,2,1s-.86,1-2,1-2-.53-2-1,.86-1,2-1m0-.5C4.12,13,3,13.67,3,14.5S4.12,16,5.5,16,8,15.33,8,14.5,6.88,13,5.5,13Z" transform="translate(0.96 -4.06)" style="fill:#fffffd"/><path d="M9.16,16.2c-.85,0-1.5-.32-1.62-.8-.15-.66.71-1.46,1.9-1.74a3.69,3.69,0,0,1,.87-.1c.85,0,1.5.32,1.61.79.16.66-.71,1.46-1.9,1.74A3.69,3.69,0,0,1,9.16,16.2Z" transform="translate(0.96 -4.06)" style="fill:#f9d749"/><path d="M10.31,13.81h0c.71,0,1.28.25,1.37.6a.84.84,0,0,1-.33.73,3,3,0,0,1-1.39.71,3.73,3.73,0,0,1-.8.1c-.71,0-1.29-.26-1.37-.61a.85.85,0,0,1,.33-.73A3,3,0,0,1,9.5,13.9a3.72,3.72,0,0,1,.81-.09m0-.5a3.8,3.8,0,0,0-.93.11c-1.34.32-2.27,1.23-2.08,2,.15.61.91,1,1.86,1a4.35,4.35,0,0,0,.92-.11c1.34-.33,2.28-1.24,2.08-2-.14-.62-.9-1-1.85-1Z" transform="translate(0.96 -4.06)" style="fill:#fffffd"/><path d="M25.38,16.56a3.79,3.79,0,0,1-.88-.11,3.3,3.3,0,0,1-1.5-.78,1,1,0,0,1-.39-1c.11-.47.76-.79,1.6-.79a3.85,3.85,0,0,1,.88.11,3.3,3.3,0,0,1,1.5.78,1.09,1.09,0,0,1,.39,1C26.86,16.24,26.22,16.56,25.38,16.56Z" transform="translate(0.96 -4.06)" style="fill:#f9d749"/><path d="M24.21,14.16h0a3.36,3.36,0,0,1,.82.11,2.92,2.92,0,0,1,1.38.71.85.85,0,0,1,.33.73c-.09.35-.66.6-1.36.6a3.29,3.29,0,0,1-.82-.1,3,3,0,0,1-1.38-.72.84.84,0,0,1-.33-.73c.09-.35.66-.6,1.36-.6m0-.5c-.94,0-1.7.37-1.84,1-.2.81.73,1.72,2.07,2.05a3.91,3.91,0,0,0,.94.12c.94,0,1.69-.37,1.84-1,.2-.8-.73-1.72-2.07-2.05a3.91,3.91,0,0,0-.94-.12Z" transform="translate(0.96 -4.06)" style="fill:#fffffd"/><path d="M26.07,16.61c-.74,0-1.28-.26-1.42-.68-.21-.64.6-1.5,1.76-1.88a3.65,3.65,0,0,1,1.11-.19c.73,0,1.28.26,1.41.68a1,1,0,0,1-.32,1,3.23,3.23,0,0,1-1.43.9A3.63,3.63,0,0,1,26.07,16.61Z" transform="translate(0.96 -4.06)" style="fill:#f9d749"/><path d="M27.52,14.11h0c.6,0,1.08.21,1.18.51.14.45-.51,1.21-1.6,1.57a3.42,3.42,0,0,1-1,.17c-.61,0-1.08-.2-1.18-.5s.51-1.22,1.59-1.57a3.25,3.25,0,0,1,1-.18m0-.5a4,4,0,0,0-1.19.2c-1.31.43-2.17,1.41-1.91,2.2.17.54.83.85,1.65.85a3.71,3.71,0,0,0,1.19-.2c1.31-.43,2.17-1.41,1.91-2.2a1.61,1.61,0,0,0-1.65-.85Z" transform="translate(0.96 -4.06)" style="fill:#fffffd"/><path d="M29.07,16.61c-.74,0-1.28-.26-1.42-.68-.21-.64.6-1.5,1.76-1.88a3.65,3.65,0,0,1,1.11-.19c.73,0,1.28.26,1.41.68a1,1,0,0,1-.32,1,3.23,3.23,0,0,1-1.43.9A3.63,3.63,0,0,1,29.07,16.61Z" transform="translate(0.96 -4.06)" style="fill:#f9d749"/><path d="M30.52,14.11h0c.6,0,1.08.21,1.18.51.14.45-.51,1.21-1.6,1.57a3.42,3.42,0,0,1-1,.17c-.61,0-1.08-.2-1.18-.5s.51-1.22,1.59-1.57a3.25,3.25,0,0,1,1-.18m0-.5a4,4,0,0,0-1.19.2c-1.31.43-2.17,1.41-1.91,2.2.17.54.83.85,1.65.85a3.71,3.71,0,0,0,1.19-.2c1.31-.43,2.17-1.41,1.91-2.2a1.61,1.61,0,0,0-1.65-.85Z" transform="translate(0.96 -4.06)" style="fill:#fffffd"/><path d="M32.59,32.64a3.71,3.71,0,0,1-1.24-.23c-1.14-.43-1.9-1.33-1.66-2,.14-.38.64-.62,1.31-.62a3.4,3.4,0,0,1,1.23.24,3.22,3.22,0,0,1,1.4.95,1.07,1.07,0,0,1,.27,1C33.76,32.41,33.25,32.64,32.59,32.64Z" transform="translate(0.96 -4.06)" style="fill:#f9d749"/><path d="M31,30.08h0a3.44,3.44,0,0,1,1.15.22,3,3,0,0,1,1.28.88.84.84,0,0,1,.24.76c-.11.28-.53.45-1.08.45a3.21,3.21,0,0,1-1.15-.22c-1.07-.4-1.68-1.19-1.52-1.64.1-.27.53-.45,1.08-.45m0-.5a1.55,1.55,0,0,0-1.55.78c-.29.77.52,1.8,1.82,2.28a3.79,3.79,0,0,0,1.32.25,1.52,1.52,0,0,0,1.54-.77c.3-.78-.52-1.8-1.81-2.29A3.79,3.79,0,0,0,31,29.58Z" transform="translate(0.96 -4.06)" style="fill:#fffffd"/><path d="M13.07,17.61c-.74,0-1.28-.26-1.42-.68-.21-.64.6-1.5,1.76-1.88a3.65,3.65,0,0,1,1.11-.19c.73,0,1.28.26,1.41.68a1,1,0,0,1-.32,1,3.23,3.23,0,0,1-1.43.9A3.63,3.63,0,0,1,13.07,17.61Z" transform="translate(0.96 -4.06)" style="fill:#f9d749"/><path d="M14.52,15.11h0c.6,0,1.08.21,1.18.51.14.45-.51,1.21-1.6,1.57a3.42,3.42,0,0,1-1,.17c-.61,0-1.08-.2-1.18-.5s.51-1.22,1.59-1.57a3.25,3.25,0,0,1,1-.18m0-.5a4,4,0,0,0-1.19.2c-1.31.43-2.17,1.41-1.91,2.2.17.54.83.85,1.65.85a3.71,3.71,0,0,0,1.19-.2c1.31-.43,2.17-1.41,1.91-2.2a1.61,1.61,0,0,0-1.65-.85Z" transform="translate(0.96 -4.06)" style="fill:#fffffd"/><path d="M9.31,32.63a3.7,3.7,0,0,1-.87-.11,3.24,3.24,0,0,1-1.5-.77,1.07,1.07,0,0,1-.4-1c.12-.47.77-.79,1.62-.79a3.67,3.67,0,0,1,.86.1,3.2,3.2,0,0,1,1.5.77,1.07,1.07,0,0,1,.4,1c-.11.48-.76.8-1.61.8Z" transform="translate(0.96 -4.06)" style="fill:#f9d749"/><path d="M8.16,30.24a3.7,3.7,0,0,1,.8.09,3.1,3.1,0,0,1,1.39.71.85.85,0,0,1,.33.73c-.09.35-.66.61-1.37.61a3.74,3.74,0,0,1-.81-.1c-1.11-.27-1.82-1-1.71-1.44s.66-.6,1.37-.6m0-.5c-1,0-1.71.37-1.86,1-.19.8.74,1.71,2.08,2a3.83,3.83,0,0,0,.93.12c.95,0,1.71-.38,1.85-1,.2-.81-.74-1.72-2.08-2a3.78,3.78,0,0,0-.92-.11Z" transform="translate(0.96 -4.06)" style="fill:#fffffd"/><ellipse cx="7.69" cy="25.25" rx="2.25" ry="1.25" style="fill:#f9d749"/><path d="M6.73,28.31c1.15,0,2,.52,2,1s-.85,1-2,1-2-.53-2-1,.86-1,2-1m0-.5c-1.38,0-2.5.67-2.5,1.5s1.12,1.5,2.5,1.5,2.5-.68,2.5-1.5-1.12-1.5-2.5-1.5Z" transform="translate(0.96 -4.06)" style="fill:#fffffd"/><path d="M31,20.66c-.64,0-1.11-.21-1.26-.58-.26-.63.48-1.54,1.61-2a3.48,3.48,0,0,1,1.3-.27c.64,0,1.11.22,1.26.58a1.05,1.05,0,0,1-.25,1,3.29,3.29,0,0,1-1.37,1A3.58,3.58,0,0,1,31,20.66Z" transform="translate(0.96 -4.06)" style="fill:#f9d749"/><path d="M32.62,18.06c.53,0,.92.16,1,.43a.85.85,0,0,1-.22.77,3,3,0,0,1-1.26.9,3.15,3.15,0,0,1-1.2.25c-.53,0-.92-.16-1-.42a.84.84,0,0,1,.22-.77,3,3,0,0,1,1.26-.91,3.31,3.31,0,0,1,1.2-.25m0-.5a3.65,3.65,0,0,0-1.39.29c-1.28.51-2.06,1.56-1.75,2.33a1.49,1.49,0,0,0,1.49.73,3.82,3.82,0,0,0,1.39-.28c1.28-.52,2.06-1.56,1.75-2.33a1.49,1.49,0,0,0-1.49-.74Z" transform="translate(0.96 -4.06)" style="fill:#fffffd"/><path d="M17.22,14.56c-.85,0-1.5-.32-1.62-.8-.15-.66.72-1.46,1.9-1.74a3.75,3.75,0,0,1,.87-.1c.85,0,1.5.32,1.61.79a1.06,1.06,0,0,1-.4,1,3.2,3.2,0,0,1-1.5.77A3.69,3.69,0,0,1,17.22,14.56Z" transform="translate(0.96 -4.06)" style="fill:#f9d749"/><path d="M18.37,12.17h0c.71,0,1.29.25,1.37.6s-.6,1.17-1.71,1.44a3.9,3.9,0,0,1-.81.1c-.71,0-1.29-.26-1.37-.61s.6-1.17,1.71-1.44a3.79,3.79,0,0,1,.81-.09m0-.5a3.67,3.67,0,0,0-.92.11c-1.35.32-2.28,1.23-2.09,2,.15.61.91,1,1.86,1a4.35,4.35,0,0,0,.92-.11c1.34-.32,2.28-1.24,2.09-2-.15-.62-.91-1-1.86-1Z" transform="translate(0.96 -4.06)" style="fill:#fffffd"/><path d="M13.83,20.79a1.08,1.08,0,0,1-1-.43,1.08,1.08,0,0,1,.11-1,3.36,3.36,0,0,1,1.22-1.17,3.29,3.29,0,0,1,1.58-.47,1.09,1.09,0,0,1,1,.43c.34.59-.27,1.6-1.32,2.21A3.33,3.33,0,0,1,13.83,20.79Z" transform="translate(0.96 -4.06)" style="fill:#f9d749"/><path d="M15.75,17.93h0a.87.87,0,0,1,.78.31.88.88,0,0,1-.11.79,2.93,2.93,0,0,1-1.13,1.07,3,3,0,0,1-1.46.44.86.86,0,0,1-.77-.3.84.84,0,0,1,.11-.8,3.13,3.13,0,0,1,1.12-1.07,3.06,3.06,0,0,1,1.46-.44m0-.5a3.54,3.54,0,0,0-1.71.51c-1.19.69-1.83,1.83-1.41,2.55a1.33,1.33,0,0,0,1.2.55,3.57,3.57,0,0,0,1.71-.5c1.2-.69,1.83-1.84,1.42-2.55a1.32,1.32,0,0,0-1.21-.56Z" transform="translate(0.96 -4.06)" style="fill:#fffffd"/></svg>