<svg xmlns="http://www.w3.org/2000/svg" viewBox="0 0 17.58 15.26"><g id="Layer_2" data-name="Layer 2"><g id="Layer_1-2" data-name="Layer 1"><polygon points="7.38 1.87 7.08 2.02 7.14 1.69 6.9 1.45 7.23 1.41 7.38 1.1 7.53 1.41 7.87 1.45 7.62 1.69 7.68 2.02 7.38 1.87" style="fill:#f9d749"/><polygon points="7.38 0.5 7.06 1.16 6.33 1.27 6.86 1.78 6.73 2.51 7.38 2.16 8.04 2.51 7.91 1.78 8.44 1.27 7.71 1.16 7.38 0.5 7.38 0.5" style="fill:#f9d749"/><polygon points="12.99 0.79 12.83 0.76 12.95 0.65 12.93 0.49 13.07 0.57 13.22 0.5 13.18 0.66 13.29 0.77 13.14 0.79 13.06 0.93 12.99 0.79" style="fill:#f9d749"/><polygon points="12.59 0 12.67 0.55 12.26 0.93 12.81 1.03 13.05 1.53 13.31 1.04 13.86 0.97 13.47 0.57 13.58 0.02 13.08 0.27 12.59 0 12.59 0" style="fill:#f9d749"/><polygon points="12.79 3.06 13.07 3.33 13.46 3.25 13.29 3.61 13.49 3.95 13.1 3.9 12.83 4.2 12.76 3.81 12.4 3.65 12.74 3.46 12.79 3.06" style="fill:#f9d749"/><polygon points="12.79 3.06 12.74 3.46 12.4 3.65 12.76 3.81 12.83 4.2 13.1 3.9 13.49 3.95 13.29 3.61 13.46 3.25 13.07 3.33 12.79 3.06 12.79 3.06" style="fill:#f9d749"/><polygon points="3.53 2.95 3.37 2.98 3.44 2.84 3.35 2.7 3.51 2.71 3.61 2.59 3.65 2.75 3.8 2.8 3.66 2.89 3.65 3.05 3.53 2.95" style="fill:#f9d749"/><polygon points="3.74 2 3.39 2.44 2.83 2.4 3.14 2.87 2.93 3.38 3.46 3.24 3.89 3.6 3.92 3.04 4.4 2.75 3.87 2.55 3.74 2 3.74 2" style="fill:#f9d749"/><rect x="0.77" y="5.53" width="16.43" height="9.01" style="fill:#f9d749"/><path d="M16.94,5.8v8.48H1V5.8h15.9m.53-.53H.51v9.54h17Z" style="fill:#f9d749"/><ellipse cx="7.13" cy="5.53" rx="1.19" ry="0.66" style="fill:#f9d749"/><path d="M7.13,5c.61,0,1.06.28,1.06.53s-.45.53-1.06.53-1.06-.28-1.06-.53S6.53,5,7.13,5m0-.26c-.73,0-1.32.35-1.32.79s.59.8,1.32.8S8.46,6,8.46,5.53,7.86,4.74,7.13,4.74Z" style="fill:#fffffd"/><path d="M9.25,6.2c-.65,0-1.19-.31-1.19-.67s.53-.66,1.19-.66,1.19.3,1.19.66S9.9,6.2,9.25,6.2Z" style="fill:#f9d749"/><path d="M9.25,5c.61,0,1.06.28,1.06.53s-.45.53-1.06.53-1.06-.28-1.06-.53S8.65,5,9.25,5m0-.26c-.73,0-1.32.35-1.32.79s.59.8,1.32.8,1.33-.36,1.33-.8S10,4.74,9.25,4.74Z" style="fill:#fffffd"/><path d="M11.07,6.23c-.46,0-.8-.17-.86-.42a.56.56,0,0,1,.21-.53,1.66,1.66,0,0,1,.8-.41,1.76,1.76,0,0,1,.46-.06c.45,0,.79.17.85.43a.57.57,0,0,1-.21.53,1.7,1.7,0,0,1-.8.41A1.68,1.68,0,0,1,11.07,6.23Z" style="fill:#f9d749"/><path d="M11.67,5h0c.38,0,.69.13.73.32a.43.43,0,0,1-.17.38,1.59,1.59,0,0,1-.74.38,2,2,0,0,1-.42,0c-.38,0-.68-.13-.73-.32a.42.42,0,0,1,.17-.38A1.59,1.59,0,0,1,11.25,5a1.51,1.51,0,0,1,.42,0m0-.27a2,2,0,0,0-.48.06c-.71.17-1.21.65-1.11,1.06s.49.53,1,.53a2.05,2.05,0,0,0,.49-.06c.71-.17,1.2-.65,1.1-1.06S12.18,4.7,11.67,4.7Z" style="fill:#fffffd"/><path d="M11.75,10.34c-.45,0-.79-.17-.86-.43s.39-.77,1-.92a1.8,1.8,0,0,1,.46-.05c.45,0,.8.17.86.41a.54.54,0,0,1-.22.53,1.59,1.59,0,0,1-.79.41A2.31,2.31,0,0,1,11.75,10.34Z" style="fill:#f9d749"/><path d="M12.36,9.07h0c.38,0,.69.13.73.32s-.32.62-.91.76a2,2,0,0,1-.43,0c-.37,0-.68-.14-.72-.32s.31-.62.9-.76a1.58,1.58,0,0,1,.43,0m0-.27a2.05,2.05,0,0,0-.49.06c-.71.17-1.2.65-1.1,1.06s.48.53,1,.53a2,2,0,0,0,.49-.06c.71-.17,1.21-.65,1.11-1.06S12.87,8.8,12.36,8.8Z" style="fill:#fffffd"/><ellipse cx="12.58" cy="10.7" rx="1.19" ry="0.66" style="fill:#f9d749"/><path d="M12.58,10.17c.61,0,1.06.27,1.06.53s-.45.53-1.06.53-1.06-.29-1.06-.53.46-.53,1.06-.53m0-.27c-.73,0-1.32.36-1.32.8s.59.79,1.32.79,1.33-.35,1.33-.79S13.32,9.9,12.58,9.9Z" style="fill:#fffffd"/><path d="M10.35,13.22A.62.62,0,0,1,9.78,13c-.16-.31.18-.83.76-1.13a1.7,1.7,0,0,1,.79-.21.6.6,0,0,1,.57.25c.17.32-.18.84-.76,1.14A1.79,1.79,0,0,1,10.35,13.22Z" style="fill:#f9d749"/><path d="M11.33,11.76h0a.46.46,0,0,1,.45.18c.12.22-.15.68-.7,1a1.65,1.65,0,0,1-.73.19.47.47,0,0,1-.45-.18c-.11-.23.16-.68.7-1a1.53,1.53,0,0,1,.73-.19m0-.27a1.93,1.93,0,0,0-.85.23c-.65.33-1,.92-.82,1.31a.73.73,0,0,0,.69.33,2,2,0,0,0,.86-.23c.64-.34,1-.92.81-1.31A.73.73,0,0,0,11.33,11.49Z" style="fill:#fffffd"/><path d="M7.07,10.87a3.55,3.55,0,0,1-.47-.06,1.69,1.69,0,0,1-.79-.42.52.52,0,0,1-.21-.53c.06-.25.4-.42.85-.42a3.62,3.62,0,0,1,.46.06c.63.16,1.09.58,1,.93S7.51,10.87,7.07,10.87Z" style="fill:#f9d749"/><path d="M6.45,9.59h0a1.59,1.59,0,0,1,.43.06,1.51,1.51,0,0,1,.73.38.44.44,0,0,1,.18.38c0,.19-.35.32-.72.32A1.74,1.74,0,0,1,5.9,10.3a.45.45,0,0,1-.17-.39c0-.18.35-.32.72-.32m0-.26c-.5,0-.9.19-1,.53s.39.91,1.1,1.08a1.68,1.68,0,0,0,.5.07c.5,0,.89-.2,1-.53S7.66,9.57,7,9.42a2.87,2.87,0,0,0-.5-.07Z" style="fill:#fffffd"/><path d="M2.51,9.88c-.45,0-.8-.17-.85-.42s.37-.78,1-.93a2.4,2.4,0,0,1,.46,0c.45,0,.79.17.85.42s-.37.77-1,.92A1.82,1.82,0,0,1,2.51,9.88Z" style="fill:#f9d749"/><path d="M3.12,8.61h0c.38,0,.68.14.73.32s-.32.62-.91.76a2.12,2.12,0,0,1-.43.06c-.38,0-.68-.14-.73-.33s.32-.62.91-.76a2,2,0,0,1,.43-.05m0-.26a2,2,0,0,0-.49.06c-.71.17-1.21.65-1.11,1.06S2,10,2.51,10A4.1,4.1,0,0,0,3,9.94c.71-.18,1.21-.66,1.1-1.06S3.62,8.35,3.12,8.35Z" style="fill:#fffffd"/><ellipse cx="1.75" cy="10.24" rx="1.19" ry="0.66" style="fill:#f9d749"/><path d="M1.76,9.71c.6,0,1.06.28,1.06.53s-.46.53-1.06.53S.7,10.49.7,10.24s.45-.53,1.06-.53m0-.27c-.74,0-1.33.36-1.33.8S1,11,1.76,11s1.32-.36,1.32-.79S2.49,9.44,1.76,9.44Z" style="fill:#fffffd"/><path d="M1,6.23c-.46,0-.8-.17-.86-.42a.56.56,0,0,1,.21-.53,1.66,1.66,0,0,1,.8-.41,1.74,1.74,0,0,1,.45-.06c.46,0,.8.17.86.43a.57.57,0,0,1-.21.53,1.7,1.7,0,0,1-.8.41A1.68,1.68,0,0,1,1,6.23Z" style="fill:#f9d749"/><path d="M1.6,5h0c.38,0,.69.13.73.32s-.31.62-.91.76A2,2,0,0,1,1,6.1C.62,6.1.32,6,.27,5.78s.32-.62.91-.76A1.51,1.51,0,0,1,1.6,5m0-.27a2,2,0,0,0-.48.06C.41,4.93-.09,5.41,0,5.82s.49.53,1,.53a2.68,2.68,0,0,0,.49,0c.71-.17,1.2-.65,1.1-1.06s-.48-.53-1-.53Z" style="fill:#fffffd"/><ellipse cx="3.42" cy="5.53" rx="1.19" ry="0.66" style="fill:#f9d749"/><path d="M3.42,5c.61,0,1.06.28,1.06.53s-.45.53-1.06.53-1.06-.28-1.06-.53S2.82,5,3.42,5m0-.26c-.73,0-1.32.35-1.32.79s.59.8,1.32.8S4.75,6,4.75,5.53,4.15,4.74,3.42,4.74Z" style="fill:#fffffd"/><path d="M5.36,6.43c-.45,0-.79-.17-.86-.42s.38-.77,1-.92A1.44,1.44,0,0,1,6,5c.45,0,.8.16.85.41s-.37.78-1,.93A2.4,2.4,0,0,1,5.36,6.43Z" style="fill:#f9d749"/><path d="M6,5.17H6c.38,0,.68.13.73.32a.44.44,0,0,1-.18.38,1.59,1.59,0,0,1-.74.38,1.93,1.93,0,0,1-.42,0C5,6.3,4.68,6.16,4.63,6a.46.46,0,0,1,.18-.39,1.5,1.5,0,0,1,.73-.37,1.58,1.58,0,0,1,.43,0M6,4.9A2,2,0,0,0,5.48,5c-.71.17-1.21.65-1.1,1.06s.48.53,1,.53a2.05,2.05,0,0,0,.49-.06c.71-.17,1.21-.65,1.1-1.06S6.47,4.9,6,4.9Z" style="fill:#fffffd"/><path d="M14,6.63a3.55,3.55,0,0,1-.47-.06,1.69,1.69,0,0,1-.79-.42.52.52,0,0,1-.21-.53c.06-.25.4-.42.85-.42a3.62,3.62,0,0,1,.46.06,1.77,1.77,0,0,1,.8.42.59.59,0,0,1,.21.53C14.74,6.46,14.4,6.63,14,6.63Z" style="fill:#f9d749"/><path d="M13.34,5.35h0a1.59,1.59,0,0,1,.43.06,1.51,1.51,0,0,1,.73.38.44.44,0,0,1,.18.38c0,.19-.35.32-.72.32a1.65,1.65,0,0,1-.44,0,1.61,1.61,0,0,1-.73-.38.45.45,0,0,1-.17-.39c0-.18.35-.32.72-.32m0-.26c-.5,0-.9.19-1,.53s.39.91,1.1,1.08a1.68,1.68,0,0,0,.5.07c.5,0,.89-.2,1-.53s-.38-.91-1.09-1.09A2.14,2.14,0,0,0,13.34,5.09Z" style="fill:#fffffd"/><path d="M14.32,6.65c-.39,0-.68-.14-.75-.36s.32-.79.93-1a2.35,2.35,0,0,1,.59-.1c.39,0,.68.14.75.36a.53.53,0,0,1-.17.53,1.7,1.7,0,0,1-.76.48A2,2,0,0,1,14.32,6.65Z" style="fill:#f9d749"/><path d="M15.09,5.33h0c.32,0,.57.11.63.27s-.27.64-.85.83a1.6,1.6,0,0,1-.53.09c-.32,0-.57-.11-.63-.27s.27-.64.85-.83a1.6,1.6,0,0,1,.53-.09m0-.27a1.9,1.9,0,0,0-.63.11c-.7.23-1.15.74-1,1.16s.44.45.88.45a1.93,1.93,0,0,0,.63-.1c.69-.23,1.15-.75,1-1.17A.85.85,0,0,0,15.09,5.06Z" style="fill:#fffffd"/><path d="M15.91,6.65c-.39,0-.68-.14-.75-.36s.32-.79.93-1a2.35,2.35,0,0,1,.59-.1c.39,0,.68.14.75.36a.53.53,0,0,1-.17.53,1.7,1.7,0,0,1-.76.48A2,2,0,0,1,15.91,6.65Z" style="fill:#f9d749"/><path d="M16.68,5.33h0c.32,0,.57.11.63.27s-.27.64-.85.83a1.6,1.6,0,0,1-.53.09c-.32,0-.57-.11-.63-.27s.27-.64.85-.83a1.6,1.6,0,0,1,.53-.09m0-.27a1.9,1.9,0,0,0-.63.11c-.7.23-1.15.74-1,1.16s.44.45.88.45a1.93,1.93,0,0,0,.63-.1c.69-.23,1.15-.75,1-1.17A.85.85,0,0,0,16.68,5.06Z" style="fill:#fffffd"/><path d="M7.43,7.18c-.39,0-.68-.14-.75-.36s.32-.79.93-1a2.35,2.35,0,0,1,.59-.1c.39,0,.68.14.75.36a.53.53,0,0,1-.17.53A1.7,1.7,0,0,1,8,7.09,2,2,0,0,1,7.43,7.18Z" style="fill:#f9d749"/><path d="M8.2,5.86h0c.32,0,.57.11.63.27S8.56,6.77,8,7a1.6,1.6,0,0,1-.53.09c-.32,0-.57-.11-.63-.27s.27-.64.85-.83a1.6,1.6,0,0,1,.53-.09m0-.27a1.9,1.9,0,0,0-.63.11c-.7.23-1.15.74-1,1.16s.44.45.88.45a1.93,1.93,0,0,0,.63-.1C8.75,7,9.21,6.46,9.07,6A.85.85,0,0,0,8.2,5.59Z" style="fill:#fffffd"/><path d="M5.44,15.14A1.76,1.76,0,0,1,5,15.08a1.73,1.73,0,0,1-.8-.4A.57.57,0,0,1,4,14.15c.07-.25.41-.42.86-.42a1.8,1.8,0,0,1,.46,0,1.63,1.63,0,0,1,.79.41.56.56,0,0,1,.21.53C6.24,15,5.89,15.14,5.44,15.14Z" style="fill:#f9d749"/><path d="M4.83,13.88a1.93,1.93,0,0,1,.42,0A1.59,1.59,0,0,1,6,14.3a.46.46,0,0,1,.18.39c0,.18-.35.32-.73.32A2.1,2.1,0,0,1,5,15c-.59-.15-1-.53-.91-.77s.35-.31.73-.31m0-.27c-.53,0-.91.2-1,.53s.39.91,1.1,1.06a2,2,0,0,0,.49.06c.5,0,.91-.2,1-.53s-.39-.91-1.1-1.06a2,2,0,0,0-.49-.05Z" style="fill:#fffffd"/><ellipse cx="4.07" cy="13.38" rx="1.19" ry="0.66" style="fill:#f9d749"/><path d="M4.07,12.85c.61,0,1.06.28,1.06.53s-.45.53-1.06.53S3,13.63,3,13.38s.46-.53,1.06-.53m0-.26c-.73,0-1.32.35-1.32.79s.59.8,1.32.8,1.33-.36,1.33-.8S4.8,12.59,4.07,12.59Z" style="fill:#fffffd"/><path d="M9.63,5.57c-.45,0-.79-.17-.86-.43s.39-.77,1-.92a1.8,1.8,0,0,1,.46,0c.45,0,.8.17.86.41a.54.54,0,0,1-.22.53,1.59,1.59,0,0,1-.79.41A2.31,2.31,0,0,1,9.63,5.57Z" style="fill:#f9d749"/><path d="M10.24,4.3h0c.38,0,.69.13.73.32s-.32.62-.91.76a2,2,0,0,1-.43,0c-.37,0-.68-.14-.72-.32s.31-.62.9-.76a1.58,1.58,0,0,1,.43,0m0-.27a2.05,2.05,0,0,0-.49.06c-.71.17-1.2.65-1.1,1.06s.48.53,1,.53a2,2,0,0,0,.49-.06c.71-.17,1.21-.65,1.11-1.06S10.75,4,10.24,4Z" style="fill:#fffffd"/><path d="M7.84,8.87a.57.57,0,0,1-.53-.23.58.58,0,0,1,.05-.53A1.84,1.84,0,0,1,8,7.49a1.75,1.75,0,0,1,.84-.25.59.59,0,0,1,.53.23c.18.31-.14.85-.7,1.17A1.92,1.92,0,0,1,7.84,8.87Z" style="fill:#f9d749"/><path d="M8.85,7.35h0a.45.45,0,0,1,.42.17.46.46,0,0,1-.06.41,1.56,1.56,0,0,1-.6.57,1.61,1.61,0,0,1-.77.23.47.47,0,0,1-.41-.15.44.44,0,0,1,.06-.43,1.7,1.7,0,0,1,.59-.57,1.61,1.61,0,0,1,.77-.23m0-.26a1.79,1.79,0,0,0-.9.27c-.63.36-1,1-.75,1.35A.73.73,0,0,0,7.84,9a1.79,1.79,0,0,0,.9-.27c.64-.36,1-1,.75-1.35A.68.68,0,0,0,8.85,7.09Z" style="fill:#fffffd"/></g></g></svg>