<svg xmlns="http://www.w3.org/2000/svg" viewBox="0 0 15.6 12.5"><g id="Layer_2" data-name="Layer 2"><g id="Layer_1-2" data-name="Layer 1"><path d="M12,6.5a6,6,0,1,1-6-6A6,6,0,0,1,12,6.5Z" style="fill:#000a7b"/><path d="M3.11,6a6,6,0,1,0,6-6A6,6,0,0,0,3.11,6Z" style="fill:#fff"/><polyline points="2 9.5 0 12.5 5 11.5" style="fill:#000a7b"/><circle cx="6" cy="6" r="0.5" style="fill:#fff"/><circle cx="8.41" cy="6" r="0.5" style="fill:#fff"/><path d="M3.6,6A6,6,0,0,0,14.26,9.77,5.94,5.94,0,0,0,15.6,6a6,6,0,0,0-12,0Z" style="fill:#000a7b"/><polyline points="13.6 9 15.6 12 10.6 11" style="fill:#000a7b"/><circle cx="12.1" cy="5.5" r="0.5" style="fill:#fff"/><circle cx="9.6" cy="5.5" r="0.5" style="fill:#fff"/><circle cx="7.18" cy="5.5" r="0.5" style="fill:#fff"/></g></g></svg>