<svg id="Layer_1" data-name="Layer 1" xmlns="http://www.w3.org/2000/svg" viewBox="0 0 32 32"><path d="M8.71,15.26a.26.26,0,1,1,0-.51h.75a.26.26,0,0,1,0,.51Z" style="fill:#4eac97"/><path d="M9.46,14.25H8.71a.76.76,0,1,0,0,1.51h.75a.76.76,0,0,0,0-1.51Z" style="fill:#4eac97"/><path d="M9.43,9.36H9.34l-.7-.28a.26.26,0,0,1-.14-.33.25.25,0,0,1,.23-.16l.8.29A.31.31,0,0,1,9.67,9a.3.3,0,0,1,0,.19.25.25,0,0,1-.24.16Z" style="fill:#4eac97"/><path d="M8.73,8.08a.76.76,0,0,0-.7.47H8a.76.76,0,0,0,.42,1l.7.28a.69.69,0,0,0,.28,0,.75.75,0,0,0,.7-.47h0a.74.74,0,0,0-.42-1L9,8.13a.66.66,0,0,0-.28-.05Z" style="fill:#4eac97"/><path d="M16.25,7A.25.25,0,0,1,16,6.71V6a.25.25,0,1,1,.5,0v.76A.25.25,0,0,1,16.25,7Z" style="fill:#4eac97"/><path d="M16.25,5.2A.76.76,0,0,0,15.5,6v.76a.75.75,0,1,0,1.5,0V6a.75.75,0,0,0-.75-.75Z" style="fill:#4eac97"/><path d="M23.25,9.7a.23.23,0,0,1-.17-.07A.22.22,0,0,1,23,9.46a.3.3,0,0,1,.07-.19l.51-.55a.24.24,0,0,1,.19-.08.23.23,0,0,1,.17.07.24.24,0,0,1,0,.35l-.51.56A.25.25,0,0,1,23.25,9.7Z" style="fill:#4eac97"/><path d="M23.77,8.14a.76.76,0,0,0-.56.24l-.51.55a.77.77,0,0,0,0,1.07.78.78,0,0,0,.51.2.76.76,0,0,0,.56-.24l.51-.56a.76.76,0,0,0,0-1.06.73.73,0,0,0-.51-.2Z" style="fill:#4eac97"/><path d="M23,15.26a.25.25,0,0,1-.25-.25.26.26,0,0,1,.25-.26h.76a.26.26,0,0,1,0,.51Z" style="fill:#4eac97"/><path d="M23.8,14.25H23a.76.76,0,0,0,0,1.51h.76a.76.76,0,0,0,0-1.51Z" style="fill:#4eac97"/><circle cx="16.25" cy="13.5" r="4.9" style="fill:none;stroke:#4eac97;stroke-miterlimit:10"/><rect x="14.04" y="18.4" width="4.42" height="5.87" rx="2.21" style="fill:none;stroke:#4eac97;stroke-miterlimit:10"/></svg>