<svg xmlns="http://www.w3.org/2000/svg" viewBox="0 0 11.6 13.8"><g id="Layer_2" data-name="Layer 2"><g id="Layer_1-2" data-name="Layer 1"><path d="M.59,7a.18.18,0,0,1-.21-.14.18.18,0,0,1,.14-.22h.59a.19.19,0,0,1,.15.22A.2.2,0,0,1,1.11,7Z" style="fill:#4eac97"/><path d="M1.11,6.31H.59A.53.53,0,0,0,.47,7.37h.64a.53.53,0,0,0,0-1.06Z" style="fill:#4eac97"/><path d="M1.09,2.9H1L.54,2.71a.19.19,0,0,1-.1-.23A.2.2,0,0,1,.6,2.36l.56.21a.16.16,0,0,1,.1.08.15.15,0,0,1,0,.13.18.18,0,0,1-.17.12Z" style="fill:#4eac97"/><path d="M.6,2a.52.52,0,0,0-.48.33h0A.52.52,0,0,0,.38,3h0l.49.2a.61.61,0,0,0,.19,0,.52.52,0,0,0,.49-.33h0a.51.51,0,0,0-.26-.68l0,0L.79,2A.63.63,0,0,0,.6,2Z" style="fill:#4eac97"/><path d="M5.85,1.26a.19.19,0,0,1-.18-.18,0,0,0,0,1,0,0V.56A.17.17,0,0,1,5.85.38.18.18,0,0,1,6,.56v.53A.19.19,0,0,1,5.85,1.26Z" style="fill:#4eac97"/><path d="M5.85,0a.52.52,0,0,0-.52.54v.55a.52.52,0,0,0,1,0h0V.56A.52.52,0,0,0,5.85,0Z" style="fill:#4eac97"/><path d="M10.73,3.14a.16.16,0,0,1-.11-.05A.14.14,0,0,1,10.56,3a.21.21,0,0,1,0-.13L11,2.46a.2.2,0,0,1,.14-.06.21.21,0,0,1,.12.05.17.17,0,0,1,0,.24h0l-.36.39A.16.16,0,0,1,10.73,3.14Z" style="fill:#4eac97"/><path d="M11.1,2.05a.52.52,0,0,0-.39.17l-.36.38a.54.54,0,0,0,0,.75.52.52,0,0,0,.36.14.54.54,0,0,0,.39-.17l.35-.39a.53.53,0,0,0,0-.74A.5.5,0,0,0,11.1,2.05Z" style="fill:#4eac97"/><path d="M10.56,7a.17.17,0,0,1-.17-.18.18.18,0,0,1,.17-.18h.53a.18.18,0,0,1,0,.36Z" style="fill:#4eac97"/><path d="M11.12,6.31h-.56a.53.53,0,0,0,0,1.06h.53a.53.53,0,0,0,0-1.06Z" style="fill:#4eac97"/><circle cx="5.85" cy="5.79" r="3.42" style="fill:none;stroke:#4eac97;stroke-miterlimit:10"/><path d="M5.85,9.21h0a1.54,1.54,0,0,1,1.54,1.54v1A1.54,1.54,0,0,1,5.85,13.3h0a1.54,1.54,0,0,1-1.54-1.54v-1A1.54,1.54,0,0,1,5.85,9.21Z" style="fill:none;stroke:#4eac97;stroke-miterlimit:10"/></g></g></svg>