<svg id="Layer_1" data-name="Layer 1" xmlns="http://www.w3.org/2000/svg" viewBox="0 0 23.05 26.98"><path d="M6.06,16.63a.51.51,0,0,1-.5-.5.54.54,0,0,1,.5-.6H7.2a.5.5,0,0,1,.5.5.53.53,0,0,1-.5.6Z" transform="translate(-5.06 -2.46)" style="fill:#4eac97"/><path d="M7.2,16h0v.1H6.06V16H7.2m0-1H6.06a1,1,0,0,0-1,1v.1a1,1,0,0,0,1,1H7.2a1,1,0,0,0,1-1V16a1,1,0,0,0-1-1Z" transform="translate(-5.06 -2.46)" style="fill:#4eac97"/><path d="M7.5,27.5" transform="translate(-5.06 -2.46)" style="fill:#fff;stroke:#4eac97;stroke-miterlimit:10"/><path d="M7.14,8.46a.39.39,0,0,1-.18,0L5.9,8a.5.5,0,0,1-.28-.65.54.54,0,0,1,.5-.4.58.58,0,0,1,.19,0l1.06.42a.51.51,0,0,1,.28.65.56.56,0,0,1-.51.41Z" transform="translate(-5.06 -2.46)" style="fill:#4eac97"/><path d="M6.12,7.45l1.06.42,0,.09L6.08,7.53l0-.08h0m0-1a1,1,0,0,0-.93.63l0,.08a1,1,0,0,0,.55,1.3l1.07.43A1.15,1.15,0,0,0,7.14,9a1,1,0,0,0,.93-.63l0-.09a1,1,0,0,0-.56-1.3L6.49,6.52a.94.94,0,0,0-.37-.07Z" transform="translate(-5.06 -2.46)" style="fill:#4eac97"/><path d="M16.54,5.11a.5.5,0,0,1-.5-.5V3.46a.5.5,0,0,1,.5-.5.53.53,0,0,1,.59.5V4.61a.5.5,0,0,1-.5.5Z" transform="translate(-5.06 -2.46)" style="fill:#4eac97"/><path d="M16.63,3.46V4.61h-.09V3.46h.09m0-1h-.09a1,1,0,0,0-1,1V4.61a1,1,0,0,0,1,1h.09a1,1,0,0,0,1-1V3.46a1,1,0,0,0-1-1Z" transform="translate(-5.06 -2.46)" style="fill:#4eac97"/><path d="M26.31,8.93A.51.51,0,0,1,26,8.8a.6.6,0,0,1-.23-.41A.5.5,0,0,1,25.87,8l.78-.84A.46.46,0,0,1,27,7a.55.55,0,0,1,.34.13.56.56,0,0,1,.22.41.47.47,0,0,1-.13.36l-.77.84A.52.52,0,0,1,26.31,8.93Z" transform="translate(-5.06 -2.46)" style="fill:#4eac97"/><path d="M27,7.53l.07.06-.78.84-.07-.06L27,7.53h0m0-1a1,1,0,0,0-.74.32l-.77.84a1,1,0,0,0,0,1.41l.07.07a1,1,0,0,0,.68.26A1,1,0,0,0,27,9.11l.78-.84a1,1,0,0,0-.06-1.41l-.07-.07A1,1,0,0,0,27,6.53Z" transform="translate(-5.06 -2.46)" style="fill:#4eac97"/><path d="M26,16.63a.51.51,0,0,1-.5-.5.54.54,0,0,1,.5-.6h1.15a.51.51,0,0,1,.5.5.54.54,0,0,1-.5.6Z" transform="translate(-5.06 -2.46)" style="fill:#4eac97"/><path d="M27.11,16v.1H26V16h1.15m0-1H26a1,1,0,0,0-1,1v.1a1,1,0,0,0,1,1h1.15a1,1,0,0,0,1-1V16a1,1,0,0,0-1-1Z" transform="translate(-5.06 -2.46)" style="fill:#4eac97"/><path d="M9.5,27.5" transform="translate(-5.06 -2.46)" style="fill:#fff;stroke:#4eac97;stroke-miterlimit:10"/><path d="M11.5,17.5" transform="translate(-5.06 -2.46)" style="fill:#fff;stroke:#4eac97;stroke-miterlimit:10"/><path d="M10.5,16.5" transform="translate(-5.06 -2.46)" style="fill:#fff;stroke:#4eac97;stroke-miterlimit:10"/><circle cx="11.52" cy="11.52" r="6.81" style="fill:none;stroke:#4eac97;stroke-miterlimit:10"/><rect x="8.45" y="18.33" width="6.14" height="8.15" rx="2.93" style="fill:none;stroke:#4eac97;stroke-miterlimit:10"/></svg>