<?xml version="1.0" encoding="utf-8"?>
<!-- Generator: Adobe Illustrator 24.2.3, SVG Export Plug-In . SVG Version: 6.00 Build 0)  -->
<svg version="1.1" xmlns="http://www.w3.org/2000/svg" xmlns:xlink="http://www.w3.org/1999/xlink" x="0px" y="0px"
	 viewBox="0 0 32 16" style="enable-background:new 0 0 32 16;" xml:space="preserve">
<style type="text/css">
	.st0{display:none;}
	.st1{display:inline;}
	.st2{fill:#49A3AD;}
	.st3{fill:#FFFFFF;}
	.st4{fill:none;stroke:#49A3AD;stroke-width:0.75;stroke-miterlimit:10;}
	.st5{fill:#AF013F;stroke:#AF013F;stroke-width:0.5;stroke-miterlimit:10;}
	.st6{fill:#FFFFFF;stroke:#AF013F;stroke-width:0.5;stroke-miterlimit:10;}
	.st7{fill:#751A7C;}
	.st8{fill:none;stroke:#F9A404;stroke-miterlimit:10;}
	.st9{fill:#F9A404;}
	.st10{fill:#4EAC97;}
	.st11{fill:none;stroke:#4EAC97;stroke-width:0.25;stroke-miterlimit:10;}
	.st12{enable-background:new    ;}
	.st13{fill:#000A7B;}
	.st14{fill:none;stroke:#FFFFFF;stroke-width:0.25;stroke-miterlimit:10;}
	.st15{fill:#F9D749;}
	.st16{fill:#FFFFFD;}
	.st17{font-family:'Oxygen';}
	.st18{font-size:11.9126px;}
	.st19{font-size:8.9305px;}
	.st20{font-size:5.9621px;}
</style>
<g id="Layer_1" class="st0">
	<g class="st1">
		<path class="st2" d="M15.3-3.4l3.1-4c1-0.5,2.5-0.8,3.8-0.6l8.3,2c1.1,0.2,1.7,0.9,1.3,1.5l-2.6,3.5l-0.9,1.1L16-2.6
			c-0.5,0-0.9-0.3-0.8-0.6l0-0.1L15.3-3.4z"/>
		<polygon class="st2" points="0,17.1 14,-1.8 27.4,1.2 13.4,20.1 		"/>
		<polyline class="st3" points="1.7,17.1 8.4,14.6 8.3,17 13.7,15.7 11.5,19.1 		"/>
		<polyline class="st3" points="1.3,16.8 1.9,23.5 12.9,19.4 		"/>
		<polyline class="st4" points="0.5,16.8 1.2,23.5 13.4,19.4 		"/>
	</g>
</g>
<g id="Layer_4" class="st0">
	<g class="st1">
		<g id="Layer_2_2_">
			<g id="Layer_1-2_1_">
				<polyline class="st5" points="0.3,-2.2 5.5,23.8 25,23.8 31.8,-2.2 				"/>
				<polygon class="st6" points="1.4,3.8 3,15.3 27.3,15.3 30.5,3.8 				"/>
				<rect x="0.3" y="-3.8" class="st6" width="31.5" height="2"/>
				<polygon class="st6" points="3.1,-4.1 5.1,-7.7 27,-7.7 29.3,-4.1 				"/>
			</g>
		</g>
	</g>
</g>
<g id="Layer_5" class="st0">
	<g class="st1">
		<g id="Layer_2_3_">
			<g id="Layer_1-2_2_">
				<path class="st7" d="M19.7,2.9L5.9,18.6L19.7,2.9z"/>
				<polygon class="st7" points="19.6,2.1 0.9,23.3 1.9,24 20.7,2.8 19.6,2.1 				"/>
				<polygon class="st7" points="19.4,2.8 13.8,2.7 17.3,-1.1 15.7,-5.8 20.9,-4 25.5,-6.8 25.2,-2 29.7,1 24.3,2.3 22.4,6.8 				
					"/>
				<path class="st7" d="M24.8-5.7l-0.2,3.4v0.6l0.6,0.3l3.1,2.1l-3.7,0.9l-0.7,0.1l-0.2,0.6l-1.3,3.2l-2.1-2.9l-0.2-0.5h-0.9h-3.9
					l2.4-2.8L18-1.1l-0.2-0.5l-1.1-3.2l3.6,1.2l0.7,0.2l0.6-0.4L24.8-5.7 M26.3-8l-5.5,3.3l-6.1-2l1.9,5.5l-4.1,4.5H19l3.7,4.9
					l2.2-5.4l6.4-1.5l-5.4-3.5L26.3-8L26.3-8z"/>
				<path class="st7" d="M8-4c0,0,0.6,0.9,1.3,0.8c0.8-0.1,1-0.8,1.2-0.7c0.3,0.1-0.2,0.9,0,1.5s1.3,0.7,1.3,0.8
					c0,0.1-1.6-0.3-2.1,0.2s0,1.5,0,1.5S9.6-1.3,8.5-1.5S6.9-1,6.9-1c0-0.1,1.3-0.5,1.6-1.2S8-3.9,8-4z"/>
				<path class="st7" d="M0.8-5.2c0,0,0.4,0.7,0.9,0.6s0.7-0.6,0.9-0.5s-0.2,0.6,0,1.1s1,0.5,0.9,0.6c0,0.1-1.1-0.2-1.5,0.1
					s0,1.1,0,1.1s-0.1-1-0.9-1.2C0.7-3.5,0.3-3.4,0-3c0,0,0.9-0.3,1.1-0.9S0.8-5.2,0.8-5.2z"/>
				<path class="st7" d="M3.1-0.6c0,0,0.4,0.6,0.9,0.5s0.7-0.6,0.9-0.5c0.2,0.1-0.2,0.6,0,1.1C5.1,1,5.9,1,5.9,1.1
					c0,0-1.2-0.2-1.5,0.2c-0.3,0.4,0,1,0,1.1s-0.3-1-1-1.2c-0.4-0.1-0.9,0-1.2,0.3c0,0,0.9-0.3,1.1-0.9S3-0.6,3.1-0.6z"/>
				<path class="st7" d="M22.1,9.9c0,0,0.6,0.9,1.3,0.8c0.8-0.1,1-0.8,1.2-0.7s-0.2,0.9,0,1.5c0.2,0.6,1.3,0.7,1.3,0.8
					s-1.6-0.3-2.1,0.2c-0.5,0.5,0.2,1.5,0,1.5s-0.2-1.4-1.2-1.5c-1-0.1-1.6,0.5-1.6,0.5c0,0,1.3-0.5,1.6-1.3
					C23,10.9,22.1,9.9,22.1,9.9z"/>
				<path class="st7" d="M24.9,6.9c0,0,0.7,0.4,1.1,0c0.4-0.4,0.3-0.8,0.4-0.8c0.2,0,0.3,0.6,0.7,0.9c0.5,0.3,1.1,0,1.1,0
					s-1.1,0.3-1.2,0.8s0.7,0.8,0.7,0.9s-0.8-0.7-1.5-0.5c-0.4,0.2-0.7,0.6-0.8,1c0.3-0.4,0.5-0.8,0.5-1.3C25.9,7.3,24.9,7,24.9,6.9z
					"/>
				<path class="st7" d="M29.2,9.7c0,0,0.4,0.6,0.9,0.5c0.5-0.1,0.7-0.6,0.9-0.5s-0.2,0.6,0,1.1s1,0.5,0.9,0.5
					c0,0.1-1.2-0.2-1.5,0.2c-0.3,0.4,0,1.1,0,1.1s-0.3-1-1-1.1c-0.4,0-0.8,0.1-1.1,0.3c0,0,0.9-0.3,1.1-0.9
					C29.8,10.4,29.2,9.7,29.2,9.7z"/>
			</g>
		</g>
	</g>
</g>
<g id="Layer_6" class="st0">
	<g class="st1">
		<g id="Layer_2_4_">
			<g id="Layer_1-2_3_">
				<polyline points="32,-8 24.8,-2.2 32,-2.2 				"/>
				<rect x="24.8" y="-0.7" width="7.2" height="11.6"/>
				<polyline points="24.8,12.4 32,12.4 32,24 29.6,24 29.6,20.7 27.2,20.7 27.2,24 24.8,24 				"/>
				<rect x="12.9" y="-2.2" width="2.9" height="3.6"/>
				<rect x="16.8" y="-2.2" width="2.9" height="3.6"/>
				<rect x="20.7" y="-2.2" width="2.9" height="3.6"/>
				<rect x="12.9" y="2.6" width="2.9" height="4.8"/>
				<rect x="16.8" y="2.6" width="2.9" height="4.8"/>
				<rect x="20.7" y="2.6" width="2.9" height="4.8"/>
				<rect x="12.9" y="8.5" width="2.9" height="4.8"/>
				<rect x="16.8" y="8.5" width="2.9" height="4.8"/>
				<rect x="20.7" y="8.5" width="2.9" height="4.8"/>
				<rect x="12.9" y="14.5" width="2.9" height="4.8"/>
				<rect x="16.8" y="14.5" width="2.9" height="4.8"/>
				<rect x="20.7" y="14.5" width="2.9" height="4.8"/>
				<rect x="12.9" y="20.4" width="2.9" height="3.6"/>
				<rect x="16.8" y="20.4" width="2.9" height="3.6"/>
				<rect x="20.7" y="20.4" width="2.9" height="3.6"/>
				<rect x="0.3" y="-2.2" width="2.9" height="3.6"/>
				<rect x="0.3" y="2.2" width="10.8" height="2.9"/>
				<polyline points="0.7,6.1 11.1,6.1 11,24 8.2,24 8.2,21.1 5.8,21.1 5.8,24 3.5,24 3.5,21.1 1.2,21.1 1.2,24 1.2,24 1.2,24 
					1.2,24 0,24 0,6.6 				"/>
				<rect x="1.3" y="8.2" class="st3" width="2.6" height="2"/>
				<rect x="7.1" y="8.2" class="st3" width="2.6" height="2"/>
				<rect x="1.3" y="11.6" class="st3" width="2.6" height="2"/>
				<rect x="7.1" y="11.6" class="st3" width="2.6" height="2"/>
				<rect x="1.3" y="15.1" class="st3" width="2.6" height="2"/>
				<rect x="7.1" y="15.1" class="st3" width="2.6" height="2"/>
			</g>
		</g>
	</g>
</g>
<g id="Layer_7" class="st0">
	<g class="st1">
		<g id="Layer_2_5_">
			<g id="Layer_1-2_4_">
				<line class="st8" x1="0" y1="23.5" x2="32" y2="23.5"/>
				<path class="st9" d="M26.7,21.6c0-9.9-4.8-17.9-10.7-17.9s-10.7,8-10.7,17.9H26.7z"/>
				<line class="st8" x1="31.1" y1="12.4" x2="27.4" y2="16"/>
				<line class="st8" x1="30.7" y1="2.2" x2="25.4" y2="8.4"/>
				<line class="st8" x1="24.3" y1="-2.9" x2="21.7" y2="3"/>
				<line class="st8" x1="0.9" y1="12.2" x2="4.6" y2="15.8"/>
				<line class="st8" x1="2.2" y1="1.7" x2="7.1" y2="8.9"/>
				<line class="st8" x1="16.2" y1="-8" x2="16.2" y2="2"/>
				<line class="st8" x1="8.3" y1="-3" x2="10.8" y2="2.9"/>
			</g>
		</g>
	</g>
</g>
<g id="Layer_3" class="st0">
	<g class="st1">
		<g>
			<rect x="0.5" y="7.7" class="st10" width="3.4" height="1.5"/>
			<path class="st10" d="M3.4,8.2v0.5H1V8.2H3.4 M4.1,7.2H0.2C0.1,7.2,0,7.3,0,7.4v2.1c0,0.1,0.1,0.2,0.2,0.2h3.9
				c0.1,0,0.2-0.1,0.2-0.2V7.4C4.4,7.3,4.3,7.2,4.1,7.2L4.1,7.2z"/>
		</g>
		<g>
			<path class="st10" d="M2.9-0.6c-0.1,0-0.3,0-0.4-0.1L1.1-1.2C0.9-1.3,0.7-1.4,0.6-1.6c0-0.1-0.1-0.3,0-0.5
				c0.1-0.3,0.5-0.5,0.9-0.5c0.1,0,0.3,0,0.4,0.1l1.4,0.5C3.5-2,3.7-1.8,3.8-1.6c0,0.1,0.1,0.3,0,0.5C3.6-0.8,3.3-0.6,2.9-0.6
				L2.9-0.6z"/>
			<path class="st10" d="M1.5-2.1c0.1,0,0.1,0,0.2,0l1.4,0.5c0.2,0.1,0.2,0.2,0.2,0.2c0,0,0,0.1,0,0.1c0,0.1-0.2,0.2-0.4,0.2
				c-0.1,0-0.1,0-0.2,0L1.3-1.6C1.1-1.7,1.1-1.8,1.1-1.8c0,0,0-0.1,0-0.1C1.1-2,1.3-2.1,1.5-2.1 M1.5-3.1c-0.6,0-1.1,0.3-1.4,0.8
				l0,0C-0.1-1.7,0.2-1,1-0.7l1.4,0.5c0.2,0.1,0.4,0.1,0.5,0.1c0.6,0,1.1-0.3,1.4-0.8v0c0.3-0.6-0.1-1.4-0.8-1.6L2-3
				C1.9-3.1,1.7-3.1,1.5-3.1L1.5-3.1z"/>
		</g>
		<g>
			<rect x="15" y="-7.4" class="st10" width="1.9" height="2.8"/>
			<path class="st10" d="M16.5-6.9v1.8h-0.9v-1.8H16.5 M17.2-7.9h-2.5c-0.1,0-0.2,0.1-0.2,0.2v3.3c0,0.1,0.1,0.2,0.2,0.2h2.5
				c0.1,0,0.2-0.1,0.2-0.2v-3.3C17.5-7.8,17.4-7.9,17.2-7.9L17.2-7.9z"/>
		</g>
		<g>
			<path class="st10" d="M29.5-0.1c-0.3,0-0.5-0.1-0.7-0.2c-0.2-0.1-0.3-0.3-0.3-0.5c0-0.2,0.1-0.4,0.2-0.5l1-0.9
				c0.2-0.2,0.4-0.3,0.7-0.3c0.3,0,0.5,0.1,0.7,0.2c0.2,0.1,0.3,0.3,0.3,0.5c0,0.2-0.1,0.4-0.2,0.5l-1,0.9C30-0.2,29.8-0.1,29.5-0.1
				L29.5-0.1z"/>
			<path class="st10" d="M30.5-2c0.1,0,0.3,0,0.4,0.1c0.1,0,0.1,0.1,0.1,0.1c0,0.1,0,0.1-0.1,0.1l-1,0.9c-0.1,0.1-0.2,0.1-0.4,0.1
				c-0.1,0-0.3,0-0.4-0.1c-0.1,0-0.1-0.1-0.1-0.1c0-0.1,0-0.1,0.1-0.1l1-0.9C30.2-2,30.3-2,30.5-2 M30.5-3c-0.4,0-0.8,0.1-1.1,0.4
				l-1,0.9c-0.5,0.5-0.5,1.3,0.1,1.8c0.3,0.2,0.6,0.3,1,0.3c0.4,0,0.8-0.1,1.1-0.4l1-0.9c0.5-0.5,0.5-1.3-0.1-1.8h0
				C31.2-2.9,30.8-3,30.5-3L30.5-3z"/>
		</g>
		<g>
			<rect x="28.1" y="7.7" class="st10" width="3.4" height="1.5"/>
			<path class="st10" d="M31,8.2v0.5h-2.4V8.2H31 M31.8,7.2h-3.9c-0.1,0-0.2,0.1-0.2,0.2v2.1c0,0.1,0.1,0.2,0.2,0.2h3.9
				c0.1,0,0.2-0.1,0.2-0.2V7.4C32,7.3,31.9,7.2,31.8,7.2L31.8,7.2z"/>
		</g>
		<ellipse class="st11" cx="16" cy="5.9" rx="9.5" ry="8.2"/>
		<path class="st11" d="M19.6,23.9h-7.2c-0.4,0-0.6-0.3-0.6-0.6v-8.5c0-0.4,0.3-0.6,0.6-0.6h7.2c0.4,0,0.6,0.3,0.6,0.6v8.5
			C20.3,23.6,20,23.9,19.6,23.9z"/>
	</g>
</g>
<g id="Layer_2">
	<g class="st12">
		<path class="st13" d="M28.5,1c1.1,0.6,1.9,1.6,2.6,2.8C31.7,5,32,6.4,32,8c0,1.6-0.3,3-0.9,4.3c-0.6,1.2-1.5,2.1-2.6,2.8
			c-1.1,0.6-2.3,1-3.6,1c-1.5,0-2.9-0.4-4.2-1.3c-1.3-0.9-2.9-2.4-4.9-4.5c-1.6,1.7-2.8,3-3.7,3.8c-0.9,0.8-1.7,1.3-2.4,1.6
			C9,15.9,8.1,16,7.1,16c-1.3,0-2.5-0.3-3.6-1c-1.1-0.6-2-1.6-2.6-2.8C0.3,11,0,9.6,0,8c0-1.6,0.3-3,0.9-4.3C1.6,2.5,2.4,1.6,3.5,1
			c1.1-0.6,2.3-1,3.6-1c1.5,0,3,0.4,4.3,1.3c1.3,0.9,2.9,2.3,4.8,4.4c1.6-1.7,2.9-3,3.9-3.8c1-0.8,1.8-1.3,2.5-1.5
			C23.2,0.1,24,0,24.9,0C26.2,0,27.4,0.3,28.5,1z M8.8,13.2c0.5-0.3,1.1-0.7,1.7-1.4c0.7-0.7,1.8-1.9,3.4-3.6c-1.9-2-3.3-3.3-4.2-4
			c-0.9-0.7-1.8-1-2.7-1c-1,0-1.9,0.5-2.6,1.4C3.7,5.5,3.4,6.8,3.4,8.4c0,1.6,0.4,2.9,1.1,3.8C5.1,13.1,6,13.6,7,13.6
			C7.7,13.6,8.3,13.5,8.8,13.2z M27.6,11.4c0.7-0.9,1.1-2.2,1.1-3.8c0-1.6-0.4-2.9-1.1-3.8C26.9,2.9,26,2.4,25,2.4
			c-0.7,0-1.3,0.1-1.8,0.4c-0.5,0.2-1.1,0.7-1.8,1.4c-0.7,0.7-1.9,1.9-3.4,3.6c1.6,1.8,3,3.1,4,3.9c1.1,0.8,2.1,1.2,3,1.2
			C26,12.8,26.9,12.3,27.6,11.4z"/>
	</g>
</g>
<g id="Layer_9" class="st0">
	<g class="st1">
		<path class="st13" d="M24.6,8.6c0,8.5-5.5,15.4-12.3,15.4C5.5,24,0,17.1,0,8.6C0,0.2,5.5-6.7,12.3-6.7C19.1-6.7,24.6,0.2,24.6,8.6
			z"/>
		<path class="st3" d="M6.4,7.4c0,8.5,5.5,15.4,12.3,15.4c6.8,0,12.3-6.9,12.3-15.4S25.5-8,18.7-8C11.9-8,6.4-1.1,6.4,7.4z"/>
		<polyline class="st13" points="4.1,16.3 0,24 10.3,21.4 		"/>
		<path class="st3" d="M12.3,6.1c0.6,0,1,0.6,1,1.3s-0.5,1.3-1,1.3s-1-0.6-1-1.3S11.7,6.1,12.3,6.1z"/>
		<path class="st3" d="M17.3,6.1c0.6,0,1,0.6,1,1.3s-0.5,1.3-1,1.3c-0.6,0-1-0.6-1-1.3S16.7,6.1,17.3,6.1z"/>
		<path class="st13" d="M7.4,7.4c0,8.5,5.5,15.3,12.3,15.3c3.7,0,7.2-2.1,9.5-5.7C31,14.3,32,10.9,32,7.4C32-1.1,26.5-8,19.7-8
			C12.9-8,7.4-1.1,7.4,7.4z"/>
		<polyline class="st13" points="27.9,15 32,22.7 21.7,20.2 		"/>
		<path class="st3" d="M24.8,4.8c0.6,0,1,0.6,1,1.3s-0.5,1.3-1,1.3s-1-0.6-1-1.3S24.3,4.8,24.8,4.8z"/>
		<path class="st3" d="M19.7,4.8c0.6,0,1,0.6,1,1.3s-0.5,1.3-1,1.3s-1-0.6-1-1.3S19.1,4.8,19.7,4.8z"/>
		<path class="st3" d="M14.7,4.8c0.6,0,1,0.6,1,1.3s-0.5,1.3-1,1.3s-1-0.6-1-1.3S14.2,4.8,14.7,4.8z"/>
	</g>
</g>
<g id="Layer_11" class="st0">
	<g class="st1">
		<path d="M8.1,1.1L8.1,1.1c1-0.7,2.5-0.5,3.2,0.5L25,20.4c0.7,1,0.5,2.5-0.5,3.2c-1,0.7-2.5,0.5-3.2-0.5L7.5,4.3
			C6.8,3.2,7,1.8,8.1,1.1z"/>
		<polygon points="27.2,-7.8 31.8,-3.9 18.5,11.3 13.9,7.4 		"/>
		<polygon class="st14" points="27.2,-7.8 31.8,-3.9 18.5,11.3 13.9,7.4 		"/>
		<polygon points="6.2,18.6 3.1,23.9 8.5,20.7 		"/>
		<polygon points="19.4,4.2 21,5.5 7.7,20.7 6.1,19.4 		"/>
		<path d="M0.5,2l1.7,2.1c0.6,0.7,2,2.8,3.3,2.5c2.5-1.6,4.8-3.4,7-5.4c0,0,0.9-2.5-2.4-6.5c-3.3-4-0.8,4-0.8,4L4.7,1.9L1.8-0.5
			c0,0-0.4-0.6-1.4,0.3C-0.6,0.8,0.5,2,0.5,2z"/>
	</g>
</g>
<g id="Layer_12" class="st0">
	<g class="st1">
		<polygon class="st15" points="13.4,-4.1 12.9,-3.8 13,-4.5 12.6,-5 13.2,-5.1 13.4,-5.7 13.7,-5.1 14.3,-5 13.9,-4.5 14,-3.8 		
			"/>
		<polygon class="st15" points="13.4,-7 12.9,-5.6 11.5,-5.3 12.5,-4.3 12.3,-2.8 13.4,-3.5 14.6,-2.8 14.4,-4.3 15.4,-5.3 14,-5.6 
					"/>
		<polygon class="st15" points="23.6,-6.3 23.3,-6.4 23.6,-6.6 23.5,-7 23.8,-6.8 24.1,-7 24,-6.6 24.2,-6.4 23.9,-6.3 23.8,-6.1 		
			"/>
		<polygon class="st15" points="22.9,-8 23.1,-6.8 22.3,-6.1 23.3,-5.8 23.7,-4.8 24.2,-5.8 25.2,-6 24.5,-6.8 24.7,-8 23.8,-7.4 		
			"/>
		<polygon class="st15" points="23.3,-1.6 23.8,-1 24.5,-1.2 24.2,-0.4 24.5,0.3 23.8,0.2 23.3,0.8 23.2,0 22.6,-0.4 23.2,-0.8 		
			"/>
		<polygon class="st15" points="23.3,-1.6 23.2,-0.8 22.6,-0.4 23.2,0 23.3,0.8 23.8,0.2 24.5,0.3 24.2,-0.4 24.5,-1.2 23.8,-1 		
			"/>
		<polygon class="st15" points="6.4,-1.8 6.1,-1.8 6.3,-2.1 6.1,-2.4 6.4,-2.3 6.6,-2.6 6.7,-2.2 6.9,-2.1 6.7,-2 6.7,-1.6 		"/>
		<polygon class="st15" points="6.8,-3.8 6.2,-2.9 5.2,-3 5.7,-2 5.3,-0.9 6.3,-1.2 7.1,-0.5 7.1,-1.6 8,-2.2 7.1,-2.7 		"/>
		<rect y="3.6" class="st15" width="32" height="20.4"/>
		<path class="st15" d="M30.8,4.1v17.7h-29V4.1H30.8 M31.7,3H0.9v20h30.9L31.7,3z"/>
		<path class="st15" d="M13,2.2c1.2,0,2.2,0.6,2.2,1.4c0,0.8-1,1.4-2.2,1.4c-1.2,0-2.2-0.6-2.2-1.4C10.8,2.8,11.8,2.2,13,2.2z"/>
		<path class="st16" d="M13,2.5c1.1,0,1.9,0.6,1.9,1.1S14.1,4.7,13,4.7c-1.1,0-1.9-0.6-1.9-1.1S11.9,2.5,13,2.5 M13,1.9
			c-1.3,0-2.4,0.7-2.4,1.7s1.1,1.7,2.4,1.7c1.3,0,2.4-0.7,2.4-1.7S14.3,1.9,13,1.9z"/>
		<path class="st15" d="M16.8,5c-1.2,0-2.2-0.6-2.2-1.4s1-1.4,2.2-1.4C18,2.2,19,2.8,19,3.6S18,5,16.8,5z"/>
		<path class="st16" d="M16.8,2.5c1.1,0,1.9,0.6,1.9,1.1s-0.8,1.1-1.9,1.1c-1.1,0-1.9-0.6-1.9-1.1S15.7,2.5,16.8,2.5 M16.8,1.9
			c-1.3,0-2.4,0.7-2.4,1.7s1.1,1.7,2.4,1.7s2.4-0.8,2.4-1.7S18.2,1.9,16.8,1.9z"/>
		<path class="st15" d="M20.1,5c-0.8,0-1.5-0.4-1.6-0.9C18.5,3.7,18.7,3.3,19,3c0.4-0.4,0.9-0.7,1.5-0.9c0.3-0.1,0.6-0.1,0.8-0.1
			c0.8,0,1.4,0.4,1.5,0.9c0.1,0.4-0.1,0.8-0.4,1.1C22,4.5,21.5,4.8,21,4.9C20.7,5,20.4,5,20.1,5z"/>
		<path class="st16" d="M21.2,2.5L21.2,2.5c0.7,0,1.3,0.3,1.3,0.7c0,0.3-0.1,0.6-0.3,0.8c-0.4,0.4-0.8,0.7-1.3,0.8
			c-0.3,0-0.5,0-0.8,0c-0.7,0-1.2-0.3-1.3-0.7c0-0.3,0.1-0.6,0.3-0.8c0.4-0.4,0.8-0.7,1.3-0.8C20.7,2.4,21,2.4,21.2,2.5 M21.2,1.9
			c-0.3,0-0.6,0-0.9,0.1c-1.3,0.4-2.2,1.4-2,2.2s0.9,1.1,1.8,1.1c0.3,0,0.6,0,0.9-0.1c1.3-0.4,2.2-1.4,2-2.2
			C22.9,2.1,22.2,1.8,21.2,1.9L21.2,1.9z"/>
		<path class="st15" d="M21.4,13.6c-0.8,0-1.4-0.4-1.6-0.9s0.7-1.6,1.8-1.9c0.3-0.1,0.6-0.1,0.8-0.1c0.8,0,1.5,0.4,1.6,0.9
			c0.1,0.4-0.1,0.9-0.4,1.1c-0.4,0.4-0.9,0.7-1.4,0.9C21.9,13.6,21.7,13.6,21.4,13.6z"/>
		<path class="st16" d="M22.5,11L22.5,11c0.7,0,1.3,0.3,1.3,0.7c0.1,0.4-0.6,1.3-1.7,1.6c-0.3,0-0.5,0-0.8,0c-0.7,0-1.2-0.3-1.3-0.7
			c-0.1-0.4,0.6-1.3,1.6-1.6C22,10.9,22.2,10.9,22.5,11 M22.5,10.4c-0.3,0-0.6,0-0.9,0.1c-1.3,0.4-2.2,1.4-2,2.2
			c0.2,0.9,0.9,1.1,1.8,1.1c0.3,0,0.6,0,0.9-0.1c1.3-0.4,2.2-1.4,2-2.2C24.1,10.7,23.4,10.4,22.5,10.4z"/>
		<path class="st15" d="M22.9,13c1.2,0,2.2,0.6,2.2,1.4c0,0.8-1,1.4-2.2,1.4c-1.2,0-2.2-0.6-2.2-1.4C20.7,13.6,21.7,13,22.9,13z"/>
		<path class="st16" d="M22.9,13.3c1.1,0,1.9,0.6,1.9,1.1s-0.8,1.1-1.9,1.1c-1.1,0-1.9-0.6-1.9-1.1S21.8,13.3,22.9,13.3 M22.9,12.7
			c-1.3,0-2.4,0.8-2.4,1.7c0,0.9,1.1,1.7,2.4,1.7c1.3,0,2.4-0.7,2.4-1.7C25.3,13.5,24.2,12.7,22.9,12.7z"/>
		<path class="st15" d="M18.8,19.6c-0.4,0.1-0.8-0.1-1-0.5c-0.3-0.6,0.3-1.7,1.4-2.4c0.4-0.3,0.9-0.4,1.4-0.4c0.4-0.1,0.8,0.1,1,0.5
			c0.3,0.7-0.3,1.8-1.4,2.4C19.8,19.5,19.3,19.7,18.8,19.6z"/>
		<path class="st16" d="M20.6,16.6L20.6,16.6c0.3-0.1,0.6,0.1,0.8,0.4c0.2,0.5-0.3,1.4-1.3,2.1c-0.4,0.2-0.9,0.4-1.3,0.4
			c-0.3,0.1-0.6-0.1-0.8-0.4c-0.2-0.5,0.3-1.4,1.3-2.1C19.7,16.7,20.2,16.6,20.6,16.6 M20.6,16c-0.5,0-1.1,0.2-1.5,0.5
			c-1.2,0.7-1.8,1.9-1.5,2.7c0.3,0.5,0.8,0.8,1.3,0.7c0.5,0,1.1-0.2,1.6-0.5c1.2-0.7,1.8-1.9,1.5-2.7C21.6,16.2,21.1,16,20.6,16z"/>
		<path class="st15" d="M12.9,14.7c-0.3,0-0.6-0.1-0.9-0.1c-0.5-0.1-1-0.4-1.4-0.9c-0.3-0.2-0.5-0.7-0.4-1.1
			c0.1-0.5,0.7-0.9,1.5-0.9c0.3,0,0.6,0.1,0.8,0.1c1.1,0.3,2,1.2,1.8,1.9S13.7,14.7,12.9,14.7z"/>
		<path class="st16" d="M11.7,12.1L11.7,12.1c0.3,0,0.5,0,0.8,0.1c0.5,0.1,1,0.4,1.3,0.8c0.2,0.2,0.3,0.5,0.3,0.8
			c0,0.4-0.6,0.7-1.3,0.7c-0.8,0-1.5-0.3-2.1-0.9c-0.2-0.2-0.3-0.5-0.3-0.8C10.4,12.4,11.1,12.1,11.7,12.1 M11.7,11.5
			c-0.9,0-1.6,0.4-1.8,1.1s0.7,1.9,2,2.3c0.3,0.1,0.6,0.2,0.9,0.1c0.9,0,1.6-0.4,1.8-1.1c0.2-0.7-0.7-1.9-1.9-2.2
			C12.4,11.6,12.1,11.6,11.7,11.5L11.7,11.5z"/>
		<path class="st15" d="M4.6,12.7c-0.8,0-1.5-0.4-1.5-0.9c-0.1-0.5,0.7-1.6,1.8-1.9c0.3,0,0.6,0,0.8,0c0.8,0,1.4,0.4,1.5,0.9
			c0.1,0.5-0.7,1.6-1.8,1.9C5.1,12.7,4.9,12.7,4.6,12.7z"/>
		<path class="st16" d="M5.7,10L5.7,10c0.7,0,1.2,0.3,1.3,0.7c0.1,0.4-0.6,1.3-1.7,1.6c-0.3,0.1-0.5,0.1-0.8,0.1
			c-0.7,0-1.2-0.3-1.3-0.7c-0.1-0.4,0.6-1.3,1.7-1.6C5.2,10,5.4,10,5.7,10 M5.7,9.5c-0.3,0-0.6,0-0.9,0.1c-1.3,0.4-2.2,1.4-2,2.2
			c0.2,0.9,0.9,1.1,1.8,1.1c0.3,0,0.6-0.1,0.9-0.1c1.3-0.4,2.2-1.4,2-2.2C7.3,9.7,6.6,9.5,5.7,9.5z"/>
		<path class="st15" d="M3.2,12c1.2,0,2.2,0.6,2.2,1.4s-1,1.4-2.2,1.4C2,14.8,1,14.2,1,13.4S2,12,3.2,12z"/>
		<path class="st16" d="M3.2,12.3c1.1,0,1.9,0.6,1.9,1.1s-0.8,1.1-1.9,1.1s-1.9-0.6-1.9-1.1S2.1,12.3,3.2,12.3 M3.2,11.7
			c-1.3,0-2.4,0.8-2.4,1.7s1,1.6,2.4,1.6s2.4-0.8,2.4-1.7S4.5,11.7,3.2,11.7z"/>
		<path class="st15" d="M1.8,5C1,5,0.4,4.7,0.3,4.2C0.2,3.7,0.4,3.3,0.7,3c0.4-0.4,0.9-0.7,1.5-0.9c0.3-0.1,0.5-0.1,0.8-0.1
			c0.8,0,1.5,0.4,1.6,0.9c0.1,0.4-0.1,0.8-0.4,1.1C3.7,4.5,3.2,4.8,2.7,4.9C2.4,5,2.1,5,1.8,5z"/>
		<path class="st16" d="M2.9,2.5L2.9,2.5c0.7,0,1.3,0.3,1.3,0.7S3.7,4.4,2.6,4.7c-0.3,0-0.5,0.1-0.8,0c-0.7,0-1.2-0.2-1.3-0.7
			C0.4,3.6,1.1,2.8,2.2,2.5C2.4,2.4,2.7,2.4,2.9,2.5 M2.9,1.9c-0.3,0-0.6,0-0.9,0.1C0.8,2.3-0.1,3.3,0,4.2C0.2,5,0.9,5.3,1.8,5.3
			c0.3,0,0.6,0,0.9,0c1.3-0.4,2.2-1.4,2-2.2C4.5,2.2,3.9,2,2.9,1.9L2.9,1.9z"/>
		<path class="st15" d="M6.2,2.2c1.2,0,2.2,0.6,2.2,1.4c0,0.8-1,1.4-2.2,1.4C5,4.9,4.1,4.3,4.1,3.6C4.1,2.8,5,2.2,6.2,2.2z"/>
		<path class="st16" d="M6.2,2.5c1.1,0,1.9,0.6,1.9,1.1S7.3,4.7,6.2,4.7c-1.1,0-1.9-0.6-1.9-1.1S5.1,2.5,6.2,2.5 M6.2,1.9
			c-1.3,0-2.4,0.7-2.4,1.7s1.1,1.7,2.4,1.7c1.3,0,2.4-0.7,2.4-1.7S7.6,1.9,6.2,1.9z"/>
		<path class="st15" d="M9.8,5.4c-0.8,0-1.4-0.4-1.6-0.9C8.1,4,8.9,3,10,2.6c0.3-0.1,0.6-0.2,0.9-0.2c0.8,0,1.5,0.3,1.5,0.9
			c0.1,0.5-0.7,1.6-1.8,1.9C10.4,5.4,10.1,5.4,9.8,5.4z"/>
		<path class="st16" d="M10.9,2.8L10.9,2.8c0.7,0,1.2,0.3,1.3,0.7c0,0.3-0.1,0.6-0.3,0.8c-0.4,0.4-0.8,0.7-1.3,0.8
			c-0.3,0-0.5,0-0.8,0C9.1,5.2,8.5,4.9,8.4,4.5c0-0.3,0.1-0.6,0.3-0.8C9.1,3.3,9.6,3.1,10.1,3c0.3,0,0.5,0,0.8,0 M10.9,2.2
			c-0.3,0-0.6,0.1-0.9,0.2C8.7,2.8,7.8,3.8,8,4.7c0.2,0.9,0.9,1.1,1.8,1.1c0.3,0,0.6,0,0.9-0.1c1.3-0.4,2.2-1.4,2-2.2
			C12.5,2.6,11.8,2.2,10.9,2.2z"/>
		<path class="st15" d="M25.5,5.9c-0.3,0-0.6-0.1-0.9-0.1c-0.5-0.1-1-0.4-1.4-0.9c-0.3-0.2-0.5-0.7-0.4-1.1c0.1-0.5,0.7-0.9,1.5-0.9
			c0.3,0,0.6,0.1,0.8,0.1c0.5,0.1,1,0.4,1.5,0.9C26.9,4.1,27.1,4.6,27,5C26.8,5.5,26.2,5.9,25.5,5.9z"/>
		<path class="st16" d="M24.3,3.2L24.3,3.2c0.3,0,0.5,0,0.8,0.1c0.5,0.1,1,0.4,1.3,0.8c0.2,0.2,0.3,0.5,0.3,0.8
			c0,0.4-0.6,0.7-1.3,0.7c-0.3,0-0.5,0-0.8,0c-0.5-0.1-1-0.4-1.3-0.8C23.1,4.6,22.9,4.3,23,4c0-0.4,0.6-0.7,1.3-0.7 M24.3,2.8
			c-0.9,0-1.6,0.4-1.8,1.1s0.7,1.9,2,2.3c0.3,0.1,0.6,0.2,0.9,0.1c0.9,0,1.6-0.4,1.8-1.1c0.2-0.7-0.7-1.9-2-2.3
			c-0.3-0.1-0.6-0.2-0.9-0.2V2.8z"/>
		<path class="st15" d="M26.1,5.9c-0.7,0-1.2-0.3-1.4-0.8c-0.1-0.5,0.6-1.7,1.7-2.1c0.3-0.1,0.7-0.2,1.1-0.2c0.7,0,1.2,0.3,1.4,0.8
			c0.1,0.4,0,0.8-0.3,1.1c-0.4,0.5-0.9,0.8-1.4,1C26.8,5.8,26.4,5.9,26.1,5.9z"/>
		<path class="st16" d="M27.5,3.1L27.5,3.1c0.6,0,1,0.2,1.1,0.6s-0.5,1.3-1.5,1.7c-0.3,0.1-0.6,0.2-1,0.2c-0.6,0-1-0.2-1.1-0.6
			c-0.1-0.3,0.5-1.3,1.5-1.7C26.8,3.2,27.1,3.1,27.5,3.1 M27.5,2.6c-0.4,0-0.8,0.1-1.1,0.2c-1.3,0.5-2.1,1.5-1.8,2.4
			s0.8,0.9,1.6,0.9c0.4,0,0.8-0.1,1.1-0.2c1.3-0.5,2.1-1.6,1.8-2.4C28.8,2.8,28.1,2.5,27.5,2.6z"/>
		<path class="st15" d="M28.9,5.9c-0.7,0-1.2-0.3-1.4-0.8c-0.1-0.5,0.6-1.7,1.7-2.1c0.3-0.1,0.7-0.2,1.1-0.2c0.7,0,1.2,0.3,1.4,0.8
			c0.1,0.4,0,0.8-0.3,1.1c-0.4,0.5-0.9,0.8-1.4,1C29.7,5.8,29.3,5.9,28.9,5.9z"/>
		<path class="st16" d="M30.3,3.1L30.3,3.1c0.6,0,1,0.2,1.1,0.6C31.6,4,31,5.1,29.9,5.4c-0.3,0.1-0.6,0.2-1,0.2
			c-0.6,0-1-0.2-1.1-0.6c-0.1-0.3,0.5-1.3,1.5-1.7C29.7,3.2,30,3.1,30.3,3.1 M30.3,2.6c-0.4,0-0.8,0.1-1.1,0.2
			c-1.3,0.5-2.1,1.5-1.8,2.4c0.3,0.9,0.8,0.9,1.6,0.9c0.4,0,0.8-0.1,1.1-0.2c1.3-0.5,2.1-1.6,1.8-2.4C31.6,2.8,31,2.5,30.3,2.6z"/>
		<path class="st15" d="M13.5,7c-0.7,0-1.2-0.3-1.4-0.8c-0.1-0.5,0.6-1.7,1.7-2.1C14.2,4.1,14.6,4,14.9,4c0.7,0,1.2,0.3,1.4,0.8
			c0.1,0.4,0,0.8-0.3,1.1c-0.4,0.5-0.9,0.8-1.4,1C14.2,6.9,13.9,7,13.5,7z"/>
		<path class="st16" d="M14.9,4.3L14.9,4.3c0.6,0,1,0.2,1.1,0.6c0.1,0.3-0.5,1.3-1.5,1.8c-0.3,0.1-0.6,0.2-1,0.2
			c-0.6,0-1-0.2-1.1-0.6c-0.1-0.3,0.5-1.3,1.5-1.7C14.3,4.4,14.6,4.3,14.9,4.3 M15,3.8c-0.4,0-0.8,0.1-1.1,0.2
			c-1.3,0.5-2.1,1.5-1.8,2.4c0.3,0.9,0.8,0.9,1.6,0.9c0.4,0,0.8-0.1,1.1-0.2c1.2-0.5,2-1.7,1.8-2.6C16.2,3.9,15.6,3.6,15,3.8L15,3.8
			z"/>
		<path class="st15" d="M9.9,23.7c-0.3,0-0.5,0-0.8-0.1c-0.5-0.1-1-0.4-1.5-0.8c-0.3-0.3-0.4-0.7-0.4-1.1c0.1-0.5,0.7-0.9,1.6-0.9
			c0.3,0,0.6,0,0.8,0c0.5,0.1,1,0.4,1.4,0.9c0.3,0.3,0.4,0.7,0.4,1.1C11.4,23.4,10.7,23.7,9.9,23.7z"/>
		<path class="st16" d="M8.8,21c0.3,0,0.5,0,0.8,0c0.5,0.1,1,0.4,1.4,0.9c0.2,0.2,0.3,0.5,0.3,0.8c0,0.4-0.6,0.7-1.3,0.7
			c-0.3,0-0.5,0-0.8,0c-1.1-0.3-1.8-1.1-1.7-1.6C7.6,21.3,8.1,21.1,8.8,21 M8.8,20.5c-1,0-1.7,0.4-1.8,1.1c-0.2,0.7,0.7,1.9,2,2.2
			C9.3,24,9.6,24,9.9,24c0.9,0,1.7-0.4,1.8-1.1s-0.7-1.9-2-2.2C9.4,20.6,9.1,20.6,8.8,20.5L8.8,20.5z"/>
		<path class="st15" d="M7.4,18.6c1.2,0,2.2,0.6,2.2,1.4s-1,1.4-2.2,1.4c-1.2,0-2.2-0.6-2.2-1.4S6.2,18.6,7.4,18.6z"/>
		<path class="st16" d="M7.4,18.9c1.1,0,1.9,0.6,1.9,1.1s-0.8,1.1-1.9,1.1c-1.1,0-1.9-0.6-1.9-1.1S6.3,18.9,7.4,18.9 M7.4,18.3
			C6.1,18.3,5,19.1,5,20s1.1,1.7,2.4,1.7c1.3,0,2.4-0.8,2.4-1.7S8.7,18.3,7.4,18.3L7.4,18.3z"/>
		<path class="st15" d="M17.5,3.6c-0.8,0-1.4-0.4-1.6-0.9c-0.1-0.5,0.7-1.6,1.8-1.9c0.3,0,0.6,0,0.8,0c0.8,0,1.5,0.4,1.6,0.9
			c0.1,0.4-0.1,0.9-0.4,1.1c-0.4,0.4-0.9,0.7-1.4,0.9C18.1,3.7,17.8,3.7,17.5,3.6z"/>
		<path class="st16" d="M18.6,1L18.6,1c0.7,0,1.3,0.3,1.3,0.7C20,2.1,19.4,3,18.3,3.3c-0.3,0-0.5,0-0.8,0c-0.7,0-1.2-0.3-1.3-0.7
			s0.6-1.3,1.6-1.6C18.1,1,18.4,1,18.6,1 M18.6,0.4c-0.3,0-0.6,0-0.9,0.1c-1.3,0.4-2.2,1.4-2,2.2c0.2,0.9,0.9,1.1,1.8,1.1
			c0.3,0,0.6,0,0.9-0.1c1.3-0.4,2.2-1.4,2-2.2S19.6,0.4,18.6,0.4L18.6,0.4z"/>
		<path class="st15" d="M14.3,10.6c-0.4,0.1-0.7-0.1-1-0.5c-0.1-0.4-0.1-0.8,0.1-1.1c0.3-0.5,0.7-1,1.2-1.3c0.5-0.3,1-0.5,1.5-0.5
			c0.4,0,0.7,0.1,1,0.5c0.3,0.6-0.3,1.8-1.3,2.4C15.3,10.4,14.8,10.5,14.3,10.6z"/>
		<path class="st16" d="M16.1,7.4L16.1,7.4c0.3,0,0.6,0.1,0.8,0.4c0.1,0.3,0,0.6-0.1,0.9c-0.3,0.5-0.6,0.9-1.1,1.2
			c-0.4,0.3-0.9,0.5-1.4,0.5c-0.3,0-0.6-0.1-0.7-0.3c-0.1-0.3-0.1-0.6,0.1-0.9c0.3-0.5,0.6-0.9,1.1-1.2C15.1,7.6,15.6,7.4,16.1,7.4
			 M16.1,6.8c-0.6,0-1.1,0.2-1.6,0.6c-1.1,0.8-1.8,2.1-1.4,2.8c0.3,0.4,0.7,0.6,1.2,0.6c0.6,0,1.1-0.2,1.6-0.6
			c1.2-0.8,1.8-2.1,1.4-2.8C17,7,16.6,6.8,16.1,6.8z"/>
	</g>
</g>
<g id="Layer_13" class="st0">
	<g class="st1">
		<path class="st13" d="M6.5,5.1C5.3,0.7,5.8-4,8-8C0-2.9-2.4,7.8,2.6,15.9c5,8.1,15.6,10.5,23.6,5.4c2.4-1.5,4.4-3.7,5.8-6.2
			c-1.4,0.9-2.9,1.6-4.4,2C18.5,19.7,9.1,14.3,6.5,5.1L6.5,5.1L6.5,5.1z"/>
		<text transform="matrix(0.9221 -0.387 0.3814 0.9358 13.8347 12.9295)" class="st13 st17 st18">Z</text>
		<text transform="matrix(0.9382 0.346 -0.3409 0.9522 19.8257 2.7603)" class="st13 st17 st19">Z</text>
		<text transform="matrix(0.8853 -0.4651 0.4583 0.8984 13.6772 -1.7526)" class="st13 st17 st20">Z</text>
	</g>
</g>
</svg>
