<?xml version="1.0" encoding="utf-8"?>
<!-- Generator: Adobe Illustrator 24.2.3, SVG Export Plug-In . SVG Version: 6.00 Build 0)  -->
<svg version="1.1" xmlns="http://www.w3.org/2000/svg" xmlns:xlink="http://www.w3.org/1999/xlink" x="0px" y="0px"
	 viewBox="0 0 32 32" style="enable-background:new 0 0 32 32;" xml:space="preserve">
<style type="text/css">
	.st0{display:none;}
	.st1{display:inline;}
	.st2{fill:#4EAC97;}
	.st3{fill:none;stroke:#4EAC97;stroke-width:0.25;stroke-miterlimit:10;}
	.st4{enable-background:new    ;}
	.st5{fill:#0BB764;}
</style>
<g id="Layer_1" class="st0">
	<g class="st1">
		<g>
			<path class="st2" d="M13.9,13.8h0.3c0.1,0,0.2-0.1,0.2-0.2v-0.1c0-0.1-0.1-0.2-0.2-0.2h-0.3c-0.1,0-0.2,0.1-0.2,0.2v0.1
				C13.7,13.7,13.8,13.8,13.9,13.8z"/>
			<path class="st2" d="M14.3,13.3h-0.3c-0.1,0-0.2,0.1-0.2,0.2v0.1c0,0.1,0.1,0.2,0.2,0.2h0.3c0.1,0,0.2-0.1,0.2-0.2v-0.1
				C14.5,13.3,14.4,13.3,14.3,13.3L14.3,13.3z"/>
		</g>
		<g>
			<path class="st2" d="M13.9,11.6l0.2,0.1c0.1,0.1,0.3,0,0.3-0.1v0c0.1-0.1,0-0.3-0.1-0.3l-0.2-0.1c-0.1-0.1-0.3,0-0.3,0.1v0
				C13.7,11.4,13.8,11.6,13.9,11.6z"/>
			<path class="st2" d="M14,11.1c-0.1,0-0.2,0.1-0.2,0.2c-0.1,0.1,0,0.3,0.1,0.3l0.2,0.1c0,0,0.1,0,0.1,0c0.1,0,0.2-0.1,0.2-0.2
				c0.1-0.1,0-0.3-0.1-0.3L14,11.1C14,11.1,14,11.1,14,11.1L14,11.1z"/>
		</g>
		<g>
			<path class="st2" d="M16.3,10.3v0.3c0,0.1,0.1,0.2,0.2,0.2h0.1c0.1,0,0.2-0.1,0.2-0.2v-0.3c0-0.1-0.1-0.2-0.2-0.2h-0.1
				C16.4,10.1,16.3,10.2,16.3,10.3z"/>
			<path class="st2" d="M16.6,10.1L16.6,10.1c-0.2,0-0.3,0.1-0.3,0.2v0.3c0,0.1,0.1,0.2,0.2,0.2h0.1c0.1,0,0.2-0.1,0.2-0.2v-0.3
				C16.8,10.2,16.7,10.1,16.6,10.1L16.6,10.1z"/>
		</g>
		<g>
			<path class="st2" d="M18.9,11.2l-0.2,0.2c-0.1,0.1-0.1,0.3,0,0.4l0,0c0.1,0.1,0.3,0.1,0.4,0l0.2-0.2c0.1-0.1,0.1-0.3,0-0.4l0,0
				C19.2,11.1,19,11.1,18.9,11.2z"/>
			<path class="st2" d="M19.1,11.1c-0.1,0-0.1,0-0.2,0.1l-0.2,0.2c-0.1,0.1-0.1,0.3,0,0.4c0,0,0.1,0.1,0.2,0.1c0.1,0,0.1,0,0.2-0.1
				l0.2-0.2c0.1-0.1,0.1-0.3,0-0.4C19.2,11.2,19.2,11.1,19.1,11.1L19.1,11.1z"/>
		</g>
		<g>
			<path class="st2" d="M18.8,13.8h0.3c0.1,0,0.2-0.1,0.2-0.2v-0.1c0-0.1-0.1-0.2-0.2-0.2h-0.3c-0.1,0-0.2,0.1-0.2,0.2v0.1
				C18.6,13.7,18.7,13.8,18.8,13.8z"/>
			<path class="st2" d="M19.2,13.3h-0.3c-0.1,0-0.2,0.1-0.2,0.2v0.1c0,0.1,0.1,0.2,0.2,0.2h0.3c0.1,0,0.2-0.1,0.2-0.2v-0.1
				C19.4,13.3,19.3,13.3,19.2,13.3L19.2,13.3z"/>
		</g>
		<ellipse class="st3" cx="16.5" cy="13" rx="1.7" ry="1.7"/>
		<path class="st3" d="M16.7,16.7h-0.2c-0.4,0-0.6-0.3-0.6-0.6v-0.7c0-0.4,0.3-0.6,0.6-0.6h0.2c0.4,0,0.6,0.3,0.6,0.6v0.7
			C17.3,16.4,17,16.7,16.7,16.7z"/>
	</g>
</g>
<g id="Layer_2">
	<g class="st4">
		<path class="st5" d="M28.5,1.9c1.1,1.3,1.9,3.1,2.6,5.6C31.7,9.9,32,12.7,32,16c0,3.3-0.3,6.1-0.9,8.5c-0.6,2.4-1.5,4.3-2.6,5.6
			c-1.1,1.3-2.3,1.9-3.6,1.9c-1.5,0-2.9-0.9-4.2-2.6c-1.3-1.7-2.9-4.7-4.9-8.9c-1.6,3.5-2.8,6-3.7,7.6c-0.9,1.6-1.7,2.7-2.4,3.2
			C9,31.7,8.1,32,7.1,32c-1.3,0-2.5-0.6-3.6-1.9c-1.1-1.3-2-3.1-2.6-5.6C0.3,22.1,0,19.3,0,16c0-3.3,0.3-6.1,0.9-8.5
			c0.6-2.4,1.5-4.3,2.6-5.6C4.6,0.6,5.8,0,7.1,0c1.5,0,3,0.9,4.3,2.6c1.3,1.7,2.9,4.7,4.8,8.8c1.6-3.5,2.9-6,3.9-7.6
			c1-1.6,1.8-2.6,2.5-3.1C23.2,0.2,24,0,24.9,0C26.2,0,27.4,0.6,28.5,1.9z M8.8,26.4c0.5-0.5,1.1-1.4,1.7-2.8
			c0.7-1.3,1.8-3.7,3.4-7.2c-1.9-3.9-3.3-6.6-4.2-8C8.8,7.1,7.9,6.4,7,6.4c-1,0-1.9,0.9-2.6,2.8c-0.7,1.9-1.1,4.4-1.1,7.6
			c0,3.2,0.4,5.7,1.1,7.6S6,27.2,7,27.2C7.7,27.2,8.3,26.9,8.8,26.4z M27.6,22.8c0.7-1.9,1.1-4.4,1.1-7.6c0-3.2-0.4-5.7-1.1-7.6
			C26.9,5.7,26,4.8,25,4.8c-0.7,0-1.3,0.2-1.8,0.7c-0.5,0.5-1.1,1.4-1.8,2.8c-0.7,1.4-1.9,3.8-3.4,7.2c1.6,3.6,3,6.1,4,7.7
			c1.1,1.6,2.1,2.4,3,2.4C26,25.6,26.9,24.7,27.6,22.8z"/>
	</g>
</g>
</svg>
