<?xml version="1.0" encoding="utf-8"?>
<!-- Generator: Adobe Illustrator 24.2.3, SVG Export Plug-In . SVG Version: 6.00 Build 0)  -->
<svg version="1.1" xmlns="http://www.w3.org/2000/svg" xmlns:xlink="http://www.w3.org/1999/xlink" x="0px" y="0px"
	 viewBox="0 0 32 32" style="enable-background:new 0 0 32 32;" xml:space="preserve">
<style type="text/css">
	.st0{display:none;}
	.st1{display:inline;}
	.st2{fill:#49A3AD;}
	.st3{fill:#FFFFFF;}
	.st4{fill:none;stroke:#49A3AD;stroke-width:0.75;stroke-miterlimit:10;}
	.st5{fill:#AF013F;stroke:#AF013F;stroke-width:0.5;stroke-miterlimit:10;}
	.st6{fill:#FFFFFF;stroke:#AF013F;stroke-width:0.5;stroke-miterlimit:10;}
	.st7{fill:#751A7C;}
	.st8{fill:none;stroke:#F9A404;stroke-miterlimit:10;}
	.st9{fill:#F9A404;}
	.st10{fill:#4EAC97;}
	.st11{fill:none;stroke:#4EAC97;stroke-width:0.25;stroke-miterlimit:10;}
	.st12{display:inline;enable-background:new    ;}
	.st13{fill:#000A7B;}
	.st14{fill:none;stroke:#FFFFFF;stroke-width:0.25;stroke-miterlimit:10;}
	.st15{fill:#F9D749;}
	.st16{fill:#FFFFFD;}
	.st17{font-family:'Oxygen';}
	.st18{font-size:11.9126px;}
	.st19{font-size:8.9305px;}
	.st20{font-size:5.9621px;}
</style>
<g id="Layer_1" class="st0">
	<g class="st1">
		<path class="st2" d="M15.3,4.6l3.1-4c1-0.5,2.5-0.8,3.8-0.6l8.3,2c1.1,0.2,1.7,0.9,1.3,1.5l-2.6,3.5l-0.9,1.1L16,5.4
			c-0.5,0-0.9-0.3-0.8-0.6l0-0.1L15.3,4.6z"/>
		<polygon class="st2" points="0,25.1 14,6.2 27.4,9.2 13.4,28.1 		"/>
		<polyline class="st3" points="1.7,25.1 8.4,22.6 8.3,25 13.7,23.7 11.5,27.1 		"/>
		<polyline class="st3" points="1.3,24.8 1.9,31.5 12.9,27.4 		"/>
		<polyline class="st4" points="0.5,24.8 1.2,31.5 13.4,27.4 		"/>
	</g>
</g>
<g id="Layer_4" class="st0">
	<g class="st1">
		<g id="Layer_2_2_">
			<g id="Layer_1-2_1_">
				<polyline class="st5" points="0.3,5.8 5.5,31.8 25,31.8 31.8,5.8 				"/>
				<polygon class="st6" points="1.4,11.8 3,23.3 27.3,23.3 30.5,11.8 				"/>
				<rect x="0.3" y="4.2" class="st6" width="31.5" height="2"/>
				<polygon class="st6" points="3.1,3.9 5.1,0.3 27,0.3 29.3,3.9 				"/>
			</g>
		</g>
	</g>
</g>
<g id="Layer_5" class="st0">
	<g class="st1">
		<g id="Layer_2_3_">
			<g id="Layer_1-2_2_">
				<path class="st7" d="M19.7,10.9L5.9,26.6L19.7,10.9z"/>
				<polygon class="st7" points="19.6,10.1 0.9,31.3 1.9,32 20.7,10.8 19.6,10.1 				"/>
				<polygon class="st7" points="19.4,10.8 13.8,10.7 17.3,6.9 15.7,2.2 20.9,4 25.5,1.2 25.2,6 29.7,9 24.3,10.3 22.4,14.8 				"/>
				<path class="st7" d="M24.8,2.3l-0.2,3.4v0.6l0.6,0.3l3.1,2.1l-3.7,0.9l-0.7,0.1l-0.2,0.6l-1.3,3.2l-2.1-2.9l-0.2-0.5h-0.9h-3.9
					l2.4-2.8L18,6.9l-0.2-0.5l-1.1-3.2l3.6,1.2l0.7,0.2l0.6-0.4L24.8,2.3 M26.3,0l-5.5,3.3l-6.1-2l1.9,5.5l-4.1,4.5H19l3.7,4.9
					l2.2-5.4l6.4-1.5l-5.4-3.5L26.3,0L26.3,0z"/>
				<path class="st7" d="M8,4c0,0,0.6,0.9,1.3,0.8c0.8-0.1,1-0.8,1.2-0.7c0.3,0.1-0.2,0.9,0,1.5s1.3,0.7,1.3,0.8S10.3,6,9.9,6.5
					s0,1.5,0,1.5S9.6,6.7,8.5,6.5C7.4,6.3,6.9,7,6.9,7s1.3-0.5,1.6-1.2S8,4.1,8,4z"/>
				<path class="st7" d="M0.8,2.8c0,0,0.4,0.7,0.9,0.6s0.7-0.6,0.9-0.5s-0.2,0.6,0,1.1c0.2,0.4,1,0.5,0.9,0.6S2.4,4.2,2,4.6
					s0,1.1,0,1.1s-0.1-1-0.9-1.2C0.7,4.5,0.3,4.6,0,5c0,0,0.9-0.3,1.1-0.9S0.8,2.8,0.8,2.8z"/>
				<path class="st7" d="M3.1,7.4c0,0,0.4,0.6,0.9,0.5s0.7-0.6,0.9-0.5c0.2,0.1-0.2,0.6,0,1.1C5.1,9,5.9,9,5.9,9.1S4.7,8.9,4.4,9.3
					c-0.3,0.4,0,1,0,1.1s-0.3-1-1-1.2c-0.4-0.1-0.9,0-1.2,0.3c0,0,0.9-0.3,1.1-0.9S3,7.4,3.1,7.4z"/>
				<path class="st7" d="M22.1,17.9c0,0,0.6,0.9,1.3,0.8s1-0.8,1.2-0.7s-0.2,0.9,0,1.5c0.2,0.6,1.3,0.7,1.3,0.8s-1.6-0.3-2.1,0.2
					s0.2,1.5,0,1.5c-0.2,0-0.2-1.4-1.2-1.5c-1-0.1-1.6,0.5-1.6,0.5c0,0,1.3-0.5,1.6-1.3C23,18.9,22.1,17.9,22.1,17.9z"/>
				<path class="st7" d="M24.9,14.9c0,0,0.7,0.4,1.1,0c0.4-0.4,0.3-0.8,0.4-0.8c0.2,0,0.3,0.6,0.7,0.9c0.5,0.3,1.1,0,1.1,0
					s-1.1,0.3-1.2,0.8s0.7,0.8,0.7,0.9s-0.8-0.7-1.5-0.5c-0.4,0.2-0.7,0.6-0.8,1c0.3-0.4,0.5-0.8,0.5-1.3
					C25.9,15.3,24.9,15,24.9,14.9z"/>
				<path class="st7" d="M29.2,17.7c0,0,0.4,0.6,0.9,0.5c0.5-0.1,0.7-0.6,0.9-0.5s-0.2,0.6,0,1.1s1,0.5,0.9,0.5
					c0,0.1-1.2-0.2-1.5,0.2c-0.3,0.4,0,1.1,0,1.1s-0.3-1-1-1.1c-0.4,0-0.8,0.1-1.1,0.3c0,0,0.9-0.3,1.1-0.9
					C29.8,18.4,29.2,17.7,29.2,17.7z"/>
			</g>
		</g>
	</g>
</g>
<g id="Layer_6" class="st0">
	<g class="st1">
		<g id="Layer_2_4_">
			<g id="Layer_1-2_3_">
				<polyline points="32,0 24.8,5.8 32,5.8 				"/>
				<rect x="24.8" y="7.3" width="7.2" height="11.6"/>
				<polyline points="24.8,20.4 32,20.4 32,32 29.6,32 29.6,28.7 27.2,28.7 27.2,32 24.8,32 				"/>
				<rect x="12.9" y="5.8" width="2.9" height="3.6"/>
				<rect x="16.8" y="5.8" width="2.9" height="3.6"/>
				<rect x="20.7" y="5.8" width="2.9" height="3.6"/>
				<rect x="12.9" y="10.6" width="2.9" height="4.8"/>
				<rect x="16.8" y="10.6" width="2.9" height="4.8"/>
				<rect x="20.7" y="10.6" width="2.9" height="4.8"/>
				<rect x="12.9" y="16.5" width="2.9" height="4.8"/>
				<rect x="16.8" y="16.5" width="2.9" height="4.8"/>
				<rect x="20.7" y="16.5" width="2.9" height="4.8"/>
				<rect x="12.9" y="22.5" width="2.9" height="4.8"/>
				<rect x="16.8" y="22.5" width="2.9" height="4.8"/>
				<rect x="20.7" y="22.5" width="2.9" height="4.8"/>
				<rect x="12.9" y="28.4" width="2.9" height="3.6"/>
				<rect x="16.8" y="28.4" width="2.9" height="3.6"/>
				<rect x="20.7" y="28.4" width="2.9" height="3.6"/>
				<rect x="0.3" y="5.8" width="2.9" height="3.6"/>
				<rect x="0.3" y="10.2" width="10.8" height="2.9"/>
				<polyline points="0.7,14.1 11.1,14.1 11,32 8.2,32 8.2,29.1 5.8,29.1 5.8,32 3.5,32 3.5,29.1 1.2,29.1 1.2,32 1.2,32 1.2,32 
					1.2,32 0,32 0,14.6 				"/>
				<rect x="1.3" y="16.2" class="st3" width="2.6" height="2"/>
				<rect x="7.1" y="16.2" class="st3" width="2.6" height="2"/>
				<rect x="1.3" y="19.6" class="st3" width="2.6" height="2"/>
				<rect x="7.1" y="19.6" class="st3" width="2.6" height="2"/>
				<rect x="1.3" y="23.1" class="st3" width="2.6" height="2"/>
				<rect x="7.1" y="23.1" class="st3" width="2.6" height="2"/>
			</g>
		</g>
	</g>
</g>
<g id="Layer_7" class="st0">
	<g class="st1">
		<g id="Layer_2_5_">
			<g id="Layer_1-2_4_">
				<line class="st8" x1="0" y1="31.5" x2="32" y2="31.5"/>
				<path class="st9" d="M26.7,29.6c0-9.9-4.8-17.9-10.7-17.9s-10.7,8-10.7,17.9H26.7z"/>
				<line class="st8" x1="31.1" y1="20.4" x2="27.4" y2="24"/>
				<line class="st8" x1="30.7" y1="10.2" x2="25.4" y2="16.4"/>
				<line class="st8" x1="24.3" y1="5.1" x2="21.7" y2="11"/>
				<line class="st8" x1="0.9" y1="20.2" x2="4.6" y2="23.8"/>
				<line class="st8" x1="2.2" y1="9.7" x2="7.1" y2="16.9"/>
				<line class="st8" x1="16.2" y1="0" x2="16.2" y2="10"/>
				<line class="st8" x1="8.3" y1="5" x2="10.8" y2="10.9"/>
			</g>
		</g>
	</g>
</g>
<g id="Layer_3" class="st0">
	<g class="st1">
		<g>
			<rect x="0.5" y="15.7" class="st10" width="3.4" height="1.5"/>
			<path class="st10" d="M3.4,16.2v0.5H1v-0.5H3.4 M4.1,15.2H0.2c-0.1,0-0.2,0.1-0.2,0.2v2.1c0,0.1,0.1,0.2,0.2,0.2h3.9
				c0.1,0,0.2-0.1,0.2-0.2v-2.1C4.4,15.3,4.3,15.2,4.1,15.2L4.1,15.2z"/>
		</g>
		<g>
			<path class="st10" d="M2.9,7.4c-0.1,0-0.3,0-0.4-0.1L1.1,6.8C0.9,6.7,0.7,6.6,0.6,6.4c0-0.1-0.1-0.3,0-0.5
				c0.1-0.3,0.5-0.5,0.9-0.5c0.1,0,0.3,0,0.4,0.1l1.4,0.5C3.5,6,3.7,6.2,3.8,6.4c0,0.1,0.1,0.3,0,0.5C3.6,7.2,3.3,7.4,2.9,7.4
				L2.9,7.4z"/>
			<path class="st10" d="M1.5,5.9c0.1,0,0.1,0,0.2,0l1.4,0.5c0.2,0.1,0.2,0.2,0.2,0.2c0,0,0,0.1,0,0.1c0,0.1-0.2,0.2-0.4,0.2
				c-0.1,0-0.1,0-0.2,0L1.3,6.4C1.1,6.3,1.1,6.2,1.1,6.2c0,0,0-0.1,0-0.1C1.1,6,1.3,5.9,1.5,5.9 M1.5,4.9c-0.6,0-1.1,0.3-1.4,0.8
				l0,0C-0.1,6.3,0.2,7,1,7.3l1.4,0.5c0.2,0.1,0.4,0.1,0.5,0.1c0.6,0,1.1-0.3,1.4-0.8v0c0.3-0.6-0.1-1.4-0.8-1.6L2,5
				C1.9,4.9,1.7,4.9,1.5,4.9L1.5,4.9z"/>
		</g>
		<g>
			<rect x="15" y="0.6" class="st10" width="1.9" height="2.8"/>
			<path class="st10" d="M16.5,1.1v1.8h-0.9V1.1H16.5 M17.2,0.1h-2.5c-0.1,0-0.2,0.1-0.2,0.2v3.3c0,0.1,0.1,0.2,0.2,0.2h2.5
				c0.1,0,0.2-0.1,0.2-0.2V0.3C17.5,0.2,17.4,0.1,17.2,0.1L17.2,0.1z"/>
		</g>
		<g>
			<path class="st10" d="M29.5,7.9c-0.3,0-0.5-0.1-0.7-0.2c-0.2-0.1-0.3-0.3-0.3-0.5c0-0.2,0.1-0.4,0.2-0.5l1-0.9
				c0.2-0.2,0.4-0.3,0.7-0.3c0.3,0,0.5,0.1,0.7,0.2c0.2,0.1,0.3,0.3,0.3,0.5c0,0.2-0.1,0.4-0.2,0.5l-1,0.9C30,7.8,29.8,7.9,29.5,7.9
				L29.5,7.9z"/>
			<path class="st10" d="M30.5,6c0.1,0,0.3,0,0.4,0.1c0.1,0,0.1,0.1,0.1,0.1c0,0.1,0,0.1-0.1,0.1l-1,0.9c-0.1,0.1-0.2,0.1-0.4,0.1
				c-0.1,0-0.3,0-0.4-0.1c-0.1,0-0.1-0.1-0.1-0.1c0-0.1,0-0.1,0.1-0.1l1-0.9C30.2,6,30.3,6,30.5,6 M30.5,5c-0.4,0-0.8,0.1-1.1,0.4
				l-1,0.9c-0.5,0.5-0.5,1.3,0.1,1.8c0.3,0.2,0.6,0.3,1,0.3c0.4,0,0.8-0.1,1.1-0.4l1-0.9c0.5-0.5,0.5-1.3-0.1-1.8h0
				C31.2,5.1,30.8,5,30.5,5L30.5,5z"/>
		</g>
		<g>
			<rect x="28.1" y="15.7" class="st10" width="3.4" height="1.5"/>
			<path class="st10" d="M31,16.2v0.5h-2.4v-0.5H31 M31.8,15.2h-3.9c-0.1,0-0.2,0.1-0.2,0.2v2.1c0,0.1,0.1,0.2,0.2,0.2h3.9
				c0.1,0,0.2-0.1,0.2-0.2v-2.1C32,15.3,31.9,15.2,31.8,15.2L31.8,15.2z"/>
		</g>
		<ellipse class="st11" cx="16" cy="13.9" rx="9.5" ry="8.2"/>
		<path class="st11" d="M19.6,31.9h-7.2c-0.4,0-0.6-0.3-0.6-0.6v-8.5c0-0.4,0.3-0.6,0.6-0.6h7.2c0.4,0,0.6,0.3,0.6,0.6v8.5
			C20.3,31.6,20,31.9,19.6,31.9z"/>
	</g>
</g>
<g id="Layer_2" class="st0">
	<g class="st12">
		<path class="st13" d="M28.5,1.9c1.1,1.3,1.9,3.1,2.6,5.6C31.7,9.9,32,12.7,32,16c0,3.3-0.3,6.1-0.9,8.5c-0.6,2.4-1.5,4.3-2.6,5.6
			c-1.1,1.3-2.3,1.9-3.6,1.9c-1.5,0-2.9-0.9-4.2-2.6c-1.3-1.7-2.9-4.7-4.9-8.9c-1.6,3.5-2.8,6-3.7,7.6c-0.9,1.6-1.7,2.7-2.4,3.2
			C9,31.7,8.1,32,7.1,32c-1.3,0-2.5-0.6-3.6-1.9c-1.1-1.3-2-3.1-2.6-5.6C0.3,22.1,0,19.3,0,16c0-3.3,0.3-6.1,0.9-8.5
			c0.6-2.4,1.5-4.3,2.6-5.6C4.6,0.6,5.8,0,7.1,0c1.5,0,3,0.9,4.3,2.6c1.3,1.7,2.9,4.7,4.8,8.8c1.6-3.5,2.9-6,3.9-7.6
			c1-1.6,1.8-2.6,2.5-3.1C23.2,0.2,24,0,24.9,0C26.2,0,27.4,0.6,28.5,1.9z M8.8,26.4c0.5-0.5,1.1-1.4,1.7-2.8
			c0.7-1.3,1.8-3.7,3.4-7.2c-1.9-3.9-3.3-6.6-4.2-8C8.8,7.1,7.9,6.4,7,6.4c-1,0-1.9,0.9-2.6,2.8c-0.7,1.9-1.1,4.4-1.1,7.6
			c0,3.2,0.4,5.7,1.1,7.6S6,27.2,7,27.2C7.7,27.2,8.3,26.9,8.8,26.4z M27.6,22.8c0.7-1.9,1.1-4.4,1.1-7.6c0-3.2-0.4-5.7-1.1-7.6
			C26.9,5.7,26,4.8,25,4.8c-0.7,0-1.3,0.2-1.8,0.7c-0.5,0.5-1.1,1.4-1.8,2.8c-0.7,1.4-1.9,3.8-3.4,7.2c1.6,3.6,3,6.1,4,7.7
			c1.1,1.6,2.1,2.4,3,2.4C26,25.6,26.9,24.7,27.6,22.8z"/>
	</g>
</g>
<g id="Layer_9" class="st0">
	<g class="st1">
		<path class="st13" d="M24.6,16.6c0,8.5-5.5,15.4-12.3,15.4C5.5,32,0,25.1,0,16.6C0,8.2,5.5,1.3,12.3,1.3
			C19.1,1.3,24.6,8.2,24.6,16.6z"/>
		<path class="st3" d="M6.4,15.4c0,8.5,5.5,15.4,12.3,15.4c6.8,0,12.3-6.9,12.3-15.4S25.5,0,18.7,0C11.9,0,6.4,6.9,6.4,15.4z"/>
		<polyline class="st13" points="4.1,24.3 0,32 10.3,29.4 		"/>
		<path class="st3" d="M12.3,14.1c0.6,0,1,0.6,1,1.3s-0.5,1.3-1,1.3s-1-0.6-1-1.3S11.7,14.1,12.3,14.1z"/>
		<path class="st3" d="M17.3,14.1c0.6,0,1,0.6,1,1.3s-0.5,1.3-1,1.3c-0.6,0-1-0.6-1-1.3S16.7,14.1,17.3,14.1z"/>
		<path class="st13" d="M7.4,15.4c0,8.5,5.5,15.3,12.3,15.3c3.7,0,7.2-2.1,9.5-5.7c1.8-2.7,2.8-6.1,2.7-9.7C32,6.9,26.5,0,19.7,0
			C12.9,0,7.4,6.9,7.4,15.4z"/>
		<polyline class="st13" points="27.9,23 32,30.7 21.7,28.2 		"/>
		<path class="st3" d="M24.8,12.8c0.6,0,1,0.6,1,1.3s-0.5,1.3-1,1.3s-1-0.6-1-1.3S24.3,12.8,24.8,12.8z"/>
		<path class="st3" d="M19.7,12.8c0.6,0,1,0.6,1,1.3s-0.5,1.3-1,1.3s-1-0.6-1-1.3S19.1,12.8,19.7,12.8z"/>
		<path class="st3" d="M14.7,12.8c0.6,0,1,0.6,1,1.3s-0.5,1.3-1,1.3s-1-0.6-1-1.3S14.2,12.8,14.7,12.8z"/>
	</g>
</g>
<g id="Layer_11" class="st0">
	<g class="st1">
		<path d="M8.1,9.1L8.1,9.1c1-0.7,2.5-0.5,3.2,0.5L25,28.4c0.7,1,0.5,2.5-0.5,3.2c-1,0.7-2.5,0.5-3.2-0.5L7.5,12.3
			C6.8,11.2,7,9.8,8.1,9.1z"/>
		<polygon points="27.2,0.2 31.8,4.1 18.5,19.3 13.9,15.4 		"/>
		<polygon class="st14" points="27.2,0.2 31.8,4.1 18.5,19.3 13.9,15.4 		"/>
		<polygon points="6.2,26.6 3.1,31.9 8.5,28.7 		"/>
		<polygon points="19.4,12.2 21,13.5 7.7,28.7 6.1,27.4 		"/>
		<path d="M0.5,10l1.7,2.1c0.6,0.7,2,2.8,3.3,2.5c2.5-1.6,4.8-3.4,7-5.4c0,0,0.9-2.5-2.4-6.5c-3.3-4-0.8,4-0.8,4L4.7,9.9L1.8,7.5
			c0,0-0.4-0.6-1.4,0.3C-0.6,8.8,0.5,10,0.5,10z"/>
	</g>
</g>
<g id="Layer_12" class="st0">
	<g class="st1">
		<polygon class="st15" points="13.4,3.9 12.9,4.2 13,3.5 12.6,3 13.2,2.9 13.4,2.3 13.7,2.9 14.3,3 13.9,3.5 14,4.2 		"/>
		<polygon class="st15" points="13.4,1 12.9,2.4 11.5,2.7 12.5,3.7 12.3,5.2 13.4,4.5 14.6,5.2 14.4,3.7 15.4,2.7 14,2.4 		"/>
		<polygon class="st15" points="23.6,1.7 23.3,1.6 23.6,1.4 23.5,1 23.8,1.2 24.1,1 24,1.4 24.2,1.6 23.9,1.7 23.8,1.9 		"/>
		<polygon class="st15" points="22.9,0 23.1,1.2 22.3,1.9 23.3,2.2 23.7,3.2 24.2,2.2 25.2,2 24.5,1.2 24.7,0 23.8,0.6 		"/>
		<polygon class="st15" points="23.3,6.4 23.8,7 24.5,6.8 24.2,7.6 24.5,8.3 23.8,8.2 23.3,8.8 23.2,8 22.6,7.6 23.2,7.2 		"/>
		<polygon class="st15" points="23.3,6.4 23.2,7.2 22.6,7.6 23.2,8 23.3,8.8 23.8,8.2 24.5,8.3 24.2,7.6 24.5,6.8 23.8,7 		"/>
		<polygon class="st15" points="6.4,6.2 6.1,6.2 6.3,5.9 6.1,5.6 6.4,5.7 6.6,5.4 6.7,5.8 6.9,5.9 6.7,6 6.7,6.4 		"/>
		<polygon class="st15" points="6.8,4.2 6.2,5.1 5.2,5 5.7,6 5.3,7.1 6.3,6.8 7.1,7.5 7.1,6.4 8,5.8 7.1,5.3 		"/>
		<rect y="11.6" class="st15" width="32" height="20.4"/>
		<path class="st15" d="M30.8,12.1v17.7h-29V12.1H30.8 M31.7,11H0.9v20h30.9L31.7,11z"/>
		<path class="st15" d="M13,10.2c1.2,0,2.2,0.6,2.2,1.4c0,0.8-1,1.4-2.2,1.4c-1.2,0-2.2-0.6-2.2-1.4C10.8,10.8,11.8,10.2,13,10.2z"
			/>
		<path class="st16" d="M13,10.5c1.1,0,1.9,0.6,1.9,1.1s-0.8,1.1-1.9,1.1c-1.1,0-1.9-0.6-1.9-1.1S11.9,10.5,13,10.5 M13,9.9
			c-1.3,0-2.4,0.7-2.4,1.7s1.1,1.7,2.4,1.7c1.3,0,2.4-0.7,2.4-1.7S14.3,9.9,13,9.9z"/>
		<path class="st15" d="M16.8,13c-1.2,0-2.2-0.6-2.2-1.4s1-1.4,2.2-1.4c1.2,0,2.2,0.6,2.2,1.4S18,13,16.8,13z"/>
		<path class="st16" d="M16.8,10.5c1.1,0,1.9,0.6,1.9,1.1s-0.8,1.1-1.9,1.1c-1.1,0-1.9-0.6-1.9-1.1S15.7,10.5,16.8,10.5 M16.8,9.9
			c-1.3,0-2.4,0.7-2.4,1.7s1.1,1.7,2.4,1.7s2.4-0.8,2.4-1.7S18.2,9.9,16.8,9.9z"/>
		<path class="st15" d="M20.1,13c-0.8,0-1.5-0.4-1.6-0.9c-0.1-0.4,0.1-0.8,0.4-1.1c0.4-0.4,0.9-0.7,1.5-0.9c0.3-0.1,0.6-0.1,0.8-0.1
			c0.8,0,1.4,0.4,1.5,0.9c0.1,0.4-0.1,0.8-0.4,1.1c-0.4,0.4-0.9,0.7-1.5,0.9C20.7,13,20.4,13,20.1,13z"/>
		<path class="st16" d="M21.2,10.5L21.2,10.5c0.7,0,1.3,0.3,1.3,0.7c0,0.3-0.1,0.6-0.3,0.8c-0.4,0.4-0.8,0.7-1.3,0.8
			c-0.3,0-0.5,0-0.8,0c-0.7,0-1.2-0.3-1.3-0.7c0-0.3,0.1-0.6,0.3-0.8c0.4-0.4,0.8-0.7,1.3-0.8C20.7,10.4,21,10.4,21.2,10.5
			 M21.2,9.9c-0.3,0-0.6,0-0.9,0.1c-1.3,0.4-2.2,1.4-2,2.2s0.9,1.1,1.8,1.1c0.3,0,0.6,0,0.9-0.1c1.3-0.4,2.2-1.4,2-2.2
			C22.9,10.1,22.2,9.8,21.2,9.9L21.2,9.9z"/>
		<path class="st15" d="M21.4,21.6c-0.8,0-1.4-0.4-1.6-0.9s0.7-1.6,1.8-1.9c0.3-0.1,0.6-0.1,0.8-0.1c0.8,0,1.5,0.4,1.6,0.9
			c0.1,0.4-0.1,0.9-0.4,1.1c-0.4,0.4-0.9,0.7-1.4,0.9C21.9,21.6,21.7,21.6,21.4,21.6z"/>
		<path class="st16" d="M22.5,19L22.5,19c0.7,0,1.3,0.3,1.3,0.7c0.1,0.4-0.6,1.3-1.7,1.6c-0.3,0-0.5,0-0.8,0c-0.7,0-1.2-0.3-1.3-0.7
			c-0.1-0.4,0.6-1.3,1.6-1.6C22,18.9,22.2,18.9,22.5,19 M22.5,18.4c-0.3,0-0.6,0-0.9,0.1c-1.3,0.4-2.2,1.4-2,2.2
			c0.2,0.9,0.9,1.1,1.8,1.1c0.3,0,0.6,0,0.9-0.1c1.3-0.4,2.2-1.4,2-2.2C24.1,18.7,23.4,18.4,22.5,18.4z"/>
		<path class="st15" d="M22.9,21c1.2,0,2.2,0.6,2.2,1.4c0,0.8-1,1.4-2.2,1.4c-1.2,0-2.2-0.6-2.2-1.4C20.7,21.6,21.7,21,22.9,21z"/>
		<path class="st16" d="M22.9,21.3c1.1,0,1.9,0.6,1.9,1.1s-0.8,1.1-1.9,1.1c-1.1,0-1.9-0.6-1.9-1.1S21.8,21.3,22.9,21.3 M22.9,20.7
			c-1.3,0-2.4,0.8-2.4,1.7c0,0.9,1.1,1.7,2.4,1.7c1.3,0,2.4-0.7,2.4-1.7C25.3,21.5,24.2,20.7,22.9,20.7z"/>
		<path class="st15" d="M18.8,27.6c-0.4,0.1-0.8-0.1-1-0.5c-0.3-0.6,0.3-1.7,1.4-2.4c0.4-0.3,0.9-0.4,1.4-0.4c0.4-0.1,0.8,0.1,1,0.5
			c0.3,0.7-0.3,1.8-1.4,2.4C19.8,27.5,19.3,27.7,18.8,27.6z"/>
		<path class="st16" d="M20.6,24.6L20.6,24.6c0.3-0.1,0.6,0.1,0.8,0.4c0.2,0.5-0.3,1.4-1.3,2.1c-0.4,0.2-0.9,0.4-1.3,0.4
			c-0.3,0.1-0.6-0.1-0.8-0.4c-0.2-0.5,0.3-1.4,1.3-2.1C19.7,24.7,20.2,24.6,20.6,24.6 M20.6,24c-0.5,0-1.1,0.2-1.5,0.5
			c-1.2,0.7-1.8,1.9-1.5,2.7c0.3,0.5,0.8,0.8,1.3,0.7c0.5,0,1.1-0.2,1.6-0.5c1.2-0.7,1.8-1.9,1.5-2.7C21.6,24.2,21.1,24,20.6,24z"/>
		<path class="st15" d="M12.9,22.7c-0.3,0-0.6-0.1-0.9-0.1c-0.5-0.1-1-0.4-1.4-0.9c-0.3-0.2-0.5-0.7-0.4-1.1
			c0.1-0.5,0.7-0.9,1.5-0.9c0.3,0,0.6,0.1,0.8,0.1c1.1,0.3,2,1.2,1.8,1.9S13.7,22.7,12.9,22.7z"/>
		<path class="st16" d="M11.7,20.1L11.7,20.1c0.3,0,0.5,0,0.8,0.1c0.5,0.1,1,0.4,1.3,0.8c0.2,0.2,0.3,0.5,0.3,0.8
			c0,0.4-0.6,0.7-1.3,0.7c-0.8,0-1.5-0.3-2.1-0.9c-0.2-0.2-0.3-0.5-0.3-0.8C10.4,20.4,11.1,20.1,11.7,20.1 M11.7,19.5
			c-0.9,0-1.6,0.4-1.8,1.1s0.7,1.9,2,2.3c0.3,0.1,0.6,0.2,0.9,0.1c0.9,0,1.6-0.4,1.8-1.1c0.2-0.7-0.7-1.9-1.9-2.2
			C12.4,19.6,12.1,19.6,11.7,19.5L11.7,19.5z"/>
		<path class="st15" d="M4.6,20.7c-0.8,0-1.5-0.4-1.5-0.9c-0.1-0.5,0.7-1.6,1.8-1.9c0.3,0,0.6,0,0.8,0c0.8,0,1.4,0.4,1.5,0.9
			c0.1,0.5-0.7,1.6-1.8,1.9C5.1,20.7,4.9,20.7,4.6,20.7z"/>
		<path class="st16" d="M5.7,18L5.7,18c0.7,0,1.2,0.3,1.3,0.7c0.1,0.4-0.6,1.3-1.7,1.6c-0.3,0.1-0.5,0.1-0.8,0.1
			c-0.7,0-1.2-0.3-1.3-0.7c-0.1-0.4,0.6-1.3,1.7-1.6C5.2,18,5.4,18,5.7,18 M5.7,17.5c-0.3,0-0.6,0-0.9,0.1c-1.3,0.4-2.2,1.4-2,2.2
			c0.2,0.9,0.9,1.1,1.8,1.1c0.3,0,0.6-0.1,0.9-0.1c1.3-0.4,2.2-1.4,2-2.2C7.3,17.7,6.6,17.5,5.7,17.5z"/>
		<path class="st15" d="M3.2,20c1.2,0,2.2,0.6,2.2,1.4s-1,1.4-2.2,1.4C2,22.8,1,22.2,1,21.4S2,20,3.2,20z"/>
		<path class="st16" d="M3.2,20.3c1.1,0,1.9,0.6,1.9,1.1s-0.8,1.1-1.9,1.1s-1.9-0.6-1.9-1.1S2.1,20.3,3.2,20.3 M3.2,19.7
			c-1.3,0-2.4,0.8-2.4,1.7s1,1.6,2.4,1.6s2.4-0.8,2.4-1.7S4.5,19.7,3.2,19.7z"/>
		<path class="st15" d="M1.8,13c-0.8,0-1.5-0.4-1.6-0.9c-0.1-0.4,0.1-0.8,0.4-1.1c0.4-0.4,0.9-0.7,1.5-0.9c0.3-0.1,0.5-0.1,0.8-0.1
			c0.8,0,1.5,0.4,1.6,0.9c0.1,0.4-0.1,0.8-0.4,1.1c-0.4,0.4-0.9,0.7-1.5,0.9C2.4,13,2.1,13,1.8,13z"/>
		<path class="st16" d="M2.9,10.5L2.9,10.5c0.7,0,1.3,0.3,1.3,0.7s-0.6,1.3-1.7,1.6c-0.3,0-0.5,0.1-0.8,0c-0.7,0-1.2-0.2-1.3-0.7
			c-0.1-0.5,0.6-1.3,1.7-1.6C2.4,10.4,2.7,10.4,2.9,10.5 M2.9,9.9c-0.3,0-0.6,0-0.9,0.1c-1.3,0.3-2.2,1.3-2,2.2
			c0.2,0.9,0.9,1.1,1.8,1.1c0.3,0,0.6,0,0.9,0c1.3-0.4,2.2-1.4,2-2.2C4.5,10.2,3.9,10,2.9,9.9L2.9,9.9z"/>
		<path class="st15" d="M6.2,10.2c1.2,0,2.2,0.6,2.2,1.4c0,0.8-1,1.4-2.2,1.4c-1.2,0-2.2-0.6-2.2-1.4C4.1,10.8,5,10.2,6.2,10.2z"/>
		<path class="st16" d="M6.2,10.5c1.1,0,1.9,0.6,1.9,1.1s-0.8,1.1-1.9,1.1c-1.1,0-1.9-0.6-1.9-1.1S5.1,10.5,6.2,10.5 M6.2,9.9
			c-1.3,0-2.4,0.7-2.4,1.7s1.1,1.7,2.4,1.7c1.3,0,2.4-0.7,2.4-1.7S7.6,9.9,6.2,9.9z"/>
		<path class="st15" d="M9.8,13.4c-0.8,0-1.4-0.4-1.6-0.9C8.1,12,8.9,11,10,10.6c0.3-0.1,0.6-0.2,0.9-0.2c0.8,0,1.5,0.3,1.5,0.9
			c0.1,0.5-0.7,1.6-1.8,1.9C10.4,13.4,10.1,13.4,9.8,13.4z"/>
		<path class="st16" d="M10.9,10.8L10.9,10.8c0.7,0,1.2,0.3,1.3,0.7c0,0.3-0.1,0.6-0.3,0.8c-0.4,0.4-0.8,0.7-1.3,0.8
			c-0.3,0-0.5,0-0.8,0c-0.7,0.1-1.3-0.2-1.4-0.5c0-0.3,0.1-0.6,0.3-0.8c0.4-0.4,0.8-0.7,1.3-0.8c0.3,0,0.5,0,0.8,0 M10.9,10.2
			c-0.3,0-0.6,0.1-0.9,0.2c-1.3,0.4-2.2,1.4-2,2.2c0.2,0.9,0.9,1.1,1.8,1.1c0.3,0,0.6,0,0.9-0.1c1.3-0.4,2.2-1.4,2-2.2
			C12.5,10.6,11.8,10.2,10.9,10.2z"/>
		<path class="st15" d="M25.5,13.9c-0.3,0-0.6-0.1-0.9-0.1c-0.5-0.1-1-0.4-1.4-0.9c-0.3-0.2-0.5-0.7-0.4-1.1
			c0.1-0.5,0.7-0.9,1.5-0.9c0.3,0,0.6,0.1,0.8,0.1c0.5,0.1,1,0.4,1.5,0.9c0.3,0.3,0.4,0.7,0.4,1.1C26.8,13.5,26.2,13.9,25.5,13.9z"
			/>
		<path class="st16" d="M24.3,11.2L24.3,11.2c0.3,0,0.5,0,0.8,0.1c0.5,0.1,1,0.4,1.3,0.8c0.2,0.2,0.3,0.5,0.3,0.8
			c0,0.4-0.6,0.7-1.3,0.7c-0.3,0-0.5,0-0.8,0c-0.5-0.1-1-0.4-1.3-0.8c-0.2-0.2-0.3-0.5-0.3-0.8c0-0.4,0.6-0.7,1.3-0.7 M24.3,10.8
			c-0.9,0-1.6,0.4-1.8,1.1s0.7,1.9,2,2.3c0.3,0.1,0.6,0.2,0.9,0.1c0.9,0,1.6-0.4,1.8-1.1c0.2-0.7-0.7-1.9-2-2.3
			c-0.3-0.1-0.6-0.2-0.9-0.2V10.8z"/>
		<path class="st15" d="M26.1,13.9c-0.7,0-1.2-0.3-1.4-0.8c-0.1-0.5,0.6-1.7,1.7-2.1c0.3-0.1,0.7-0.2,1.1-0.2c0.7,0,1.2,0.3,1.4,0.8
			c0.1,0.4,0,0.8-0.3,1.1c-0.4,0.5-0.9,0.8-1.4,1C26.8,13.8,26.4,13.9,26.1,13.9z"/>
		<path class="st16" d="M27.5,11.1L27.5,11.1c0.6,0,1,0.2,1.1,0.6s-0.5,1.3-1.5,1.7c-0.3,0.1-0.6,0.2-1,0.2c-0.6,0-1-0.2-1.1-0.6
			c-0.1-0.3,0.5-1.3,1.5-1.7C26.8,11.2,27.1,11.1,27.5,11.1 M27.5,10.6c-0.4,0-0.8,0.1-1.1,0.2c-1.3,0.5-2.1,1.5-1.8,2.4
			s0.8,0.9,1.6,0.9c0.4,0,0.8-0.1,1.1-0.2c1.3-0.5,2.1-1.6,1.8-2.4C28.8,10.8,28.1,10.5,27.5,10.6z"/>
		<path class="st15" d="M28.9,13.9c-0.7,0-1.2-0.3-1.4-0.8c-0.1-0.5,0.6-1.7,1.7-2.1c0.3-0.1,0.7-0.2,1.1-0.2c0.7,0,1.2,0.3,1.4,0.8
			c0.1,0.4,0,0.8-0.3,1.1c-0.4,0.5-0.9,0.8-1.4,1C29.7,13.8,29.3,13.9,28.9,13.9z"/>
		<path class="st16" d="M30.3,11.1L30.3,11.1c0.6,0,1,0.2,1.1,0.6c0.1,0.3-0.5,1.3-1.5,1.7c-0.3,0.1-0.6,0.2-1,0.2
			c-0.6,0-1-0.2-1.1-0.6c-0.1-0.3,0.5-1.3,1.5-1.7C29.7,11.2,30,11.1,30.3,11.1 M30.3,10.6c-0.4,0-0.8,0.1-1.1,0.2
			c-1.3,0.5-2.1,1.5-1.8,2.4c0.3,0.9,0.8,0.9,1.6,0.9c0.4,0,0.8-0.1,1.1-0.2c1.3-0.5,2.1-1.6,1.8-2.4C31.6,10.8,31,10.5,30.3,10.6z"
			/>
		<path class="st15" d="M13.5,15c-0.7,0-1.2-0.3-1.4-0.8c-0.1-0.5,0.6-1.7,1.7-2.1c0.3-0.1,0.7-0.2,1.1-0.2c0.7,0,1.2,0.3,1.4,0.8
			c0.1,0.4,0,0.8-0.3,1.1c-0.4,0.5-0.9,0.8-1.4,1C14.2,14.9,13.9,15,13.5,15z"/>
		<path class="st16" d="M14.9,12.3L14.9,12.3c0.6,0,1,0.2,1.1,0.6c0.1,0.3-0.5,1.3-1.5,1.8c-0.3,0.1-0.6,0.2-1,0.2
			c-0.6,0-1-0.2-1.1-0.6c-0.1-0.3,0.5-1.3,1.5-1.7C14.3,12.4,14.6,12.3,14.9,12.3 M15,11.8c-0.4,0-0.8,0.1-1.1,0.2
			c-1.3,0.5-2.1,1.5-1.8,2.4c0.3,0.9,0.8,0.9,1.6,0.9c0.4,0,0.8-0.1,1.1-0.2c1.2-0.5,2-1.7,1.8-2.6C16.2,11.9,15.6,11.6,15,11.8
			L15,11.8z"/>
		<path class="st15" d="M9.9,31.7c-0.3,0-0.5,0-0.8-0.1c-0.5-0.1-1-0.4-1.5-0.8c-0.3-0.3-0.4-0.7-0.4-1.1c0.1-0.5,0.7-0.9,1.6-0.9
			c0.3,0,0.6,0,0.8,0c0.5,0.1,1,0.4,1.4,0.9c0.3,0.3,0.4,0.7,0.4,1.1C11.4,31.4,10.7,31.7,9.9,31.7z"/>
		<path class="st16" d="M8.8,29c0.3,0,0.5,0,0.8,0c0.5,0.1,1,0.4,1.4,0.9c0.2,0.2,0.3,0.5,0.3,0.8c0,0.4-0.6,0.7-1.3,0.7
			c-0.3,0-0.5,0-0.8,0c-1.1-0.3-1.8-1.1-1.7-1.6C7.6,29.3,8.1,29.1,8.8,29 M8.8,28.5c-1,0-1.7,0.4-1.8,1.1c-0.2,0.7,0.7,1.9,2,2.2
			C9.3,32,9.6,32,9.9,32c0.9,0,1.7-0.4,1.8-1.1s-0.7-1.9-2-2.2C9.4,28.6,9.1,28.6,8.8,28.5L8.8,28.5z"/>
		<path class="st15" d="M7.4,26.6c1.2,0,2.2,0.6,2.2,1.4s-1,1.4-2.2,1.4c-1.2,0-2.2-0.6-2.2-1.4S6.2,26.6,7.4,26.6z"/>
		<path class="st16" d="M7.4,26.9c1.1,0,1.9,0.6,1.9,1.1s-0.8,1.1-1.9,1.1c-1.1,0-1.9-0.6-1.9-1.1S6.3,26.9,7.4,26.9 M7.4,26.3
			C6.1,26.3,5,27.1,5,28s1.1,1.7,2.4,1.7c1.3,0,2.4-0.8,2.4-1.7S8.7,26.3,7.4,26.3L7.4,26.3z"/>
		<path class="st15" d="M17.5,11.6c-0.8,0-1.4-0.4-1.6-0.9c-0.1-0.5,0.7-1.6,1.8-1.9c0.3,0,0.6,0,0.8,0c0.8,0,1.5,0.4,1.6,0.9
			c0.1,0.4-0.1,0.9-0.4,1.1c-0.4,0.4-0.9,0.7-1.4,0.9C18.1,11.7,17.8,11.7,17.5,11.6z"/>
		<path class="st16" d="M18.6,9L18.6,9c0.7,0,1.3,0.3,1.3,0.7c0.1,0.4-0.6,1.3-1.7,1.6c-0.3,0-0.5,0-0.8,0c-0.7,0-1.2-0.3-1.3-0.7
			s0.6-1.3,1.6-1.6C18.1,9,18.4,9,18.6,9 M18.6,8.4c-0.3,0-0.6,0-0.9,0.1c-1.3,0.4-2.2,1.4-2,2.2c0.2,0.9,0.9,1.1,1.8,1.1
			c0.3,0,0.6,0,0.9-0.1c1.3-0.4,2.2-1.4,2-2.2S19.6,8.4,18.6,8.4L18.6,8.4z"/>
		<path class="st15" d="M14.3,18.6c-0.4,0.1-0.7-0.1-1-0.5c-0.1-0.4-0.1-0.8,0.1-1.1c0.3-0.5,0.7-1,1.2-1.3c0.5-0.3,1-0.5,1.5-0.5
			c0.4,0,0.7,0.1,1,0.5c0.3,0.6-0.3,1.8-1.3,2.4C15.3,18.4,14.8,18.5,14.3,18.6z"/>
		<path class="st16" d="M16.1,15.4L16.1,15.4c0.3,0,0.6,0.1,0.8,0.4c0.1,0.3,0,0.6-0.1,0.9c-0.3,0.5-0.6,0.9-1.1,1.2
			c-0.4,0.3-0.9,0.5-1.4,0.5c-0.3,0-0.6-0.1-0.7-0.3c-0.1-0.3-0.1-0.6,0.1-0.9c0.3-0.5,0.6-0.9,1.1-1.2
			C15.1,15.6,15.6,15.4,16.1,15.4 M16.1,14.8c-0.6,0-1.1,0.2-1.6,0.6c-1.1,0.8-1.8,2.1-1.4,2.8c0.3,0.4,0.7,0.6,1.2,0.6
			c0.6,0,1.1-0.2,1.6-0.6c1.2-0.8,1.8-2.1,1.4-2.8C17,15,16.6,14.8,16.1,14.8z"/>
	</g>
</g>
<g id="Layer_13">
	<g>
		<path class="st13" d="M6.5,13.1C5.3,8.7,5.8,4,8,0C0,5.1-2.4,15.8,2.6,23.9c5,8.1,15.6,10.5,23.6,5.4c2.4-1.5,4.4-3.7,5.8-6.2
			c-1.4,0.9-2.9,1.6-4.4,2C18.5,27.7,9.1,22.3,6.5,13.1L6.5,13.1L6.5,13.1z"/>
		<text transform="matrix(0.9221 -0.387 0.3814 0.9358 13.8347 20.9295)" class="st13 st17 st18">Z</text>
		<text transform="matrix(0.9382 0.346 -0.3409 0.9522 19.8257 10.7603)" class="st13 st17 st19">Z</text>
		<text transform="matrix(0.8853 -0.4651 0.4583 0.8984 13.6772 6.2474)" class="st13 st17 st20">Z</text>
	</g>
</g>
</svg>
