<svg xmlns="http://www.w3.org/2000/svg" viewBox="0 0 11.18 9.21"><g id="Layer_2" data-name="Layer 2"><g id="Layer_1-2" data-name="Layer 1"><polyline points="11.18 0 8.67 1.67 11.18 1.67"/><rect x="8.67" y="2.09" width="2.51" height="3.35"/><polyline points="8.67 5.86 11.18 5.86 11.18 9.21 10.35 9.21 10.35 8.25 9.51 8.25 9.51 9.21 8.67 9.21"/><rect x="4.49" y="1.67" width="1.03" height="1.03"/><rect x="5.86" y="1.67" width="1.03" height="1.03"/><rect x="7.23" y="1.67" width="1.03" height="1.03"/><rect x="4.49" y="3.04" width="1.03" height="1.37"/><rect x="5.86" y="3.04" width="1.03" height="1.37"/><rect x="7.23" y="3.04" width="1.03" height="1.37"/><rect x="4.49" y="4.75" width="1.03" height="1.37"/><rect x="5.86" y="4.75" width="1.03" height="1.37"/><rect x="7.23" y="4.75" width="1.03" height="1.37"/><rect x="4.49" y="6.47" width="1.03" height="1.37"/><rect x="5.86" y="6.47" width="1.03" height="1.37"/><rect x="7.23" y="6.47" width="1.03" height="1.37"/><rect x="4.49" y="8.18" width="1.03" height="1.03"/><rect x="5.86" y="8.18" width="1.03" height="1.03"/><rect x="7.23" y="8.18" width="1.03" height="1.03"/><rect x="0.12" y="1.68" width="1.03" height="1.03"/><rect x="0.12" y="2.93" width="3.77" height="0.84"/><polyline points="0.23 4.05 3.89 4.05 3.83 9.21 2.85 9.21 2.85 8.37 2.03 8.37 2.03 9.21 1.22 9.21 1.22 8.37 0.41 8.37 0.41 9.21 0.41 9.21 0.41 9.21 0.41 9.21 0 9.21 0 4.19"/><rect x="0.45" y="4.67" width="0.92" height="0.58" style="fill:#fff"/><rect x="2.47" y="4.67" width="0.92" height="0.58" style="fill:#fff"/><rect x="0.45" y="5.65" width="0.92" height="0.58" style="fill:#fff"/><rect x="2.47" y="5.65" width="0.92" height="0.58" style="fill:#fff"/><rect x="0.47" y="6.64" width="0.92" height="0.58" style="fill:#fff"/><rect x="2.49" y="6.64" width="0.92" height="0.58" style="fill:#fff"/></g></g></svg>