<svg id="Layer_1" data-name="Layer 1" xmlns="http://www.w3.org/2000/svg" viewBox="0 0 32 32"><polyline points="29.17 5 23.17 9 29.17 9"/><rect x="23.17" y="10" width="6" height="8"/><polyline points="23.17 19 29.17 19 29.17 27 27.17 27 27.17 24.71 25.17 24.71 25.17 27 23.17 27"/><rect x="13.17" y="9" width="2.45" height="2.45"/><rect x="16.44" y="9" width="2.45" height="2.45"/><rect x="19.72" y="9" width="2.45" height="2.45"/><rect x="13.17" y="12.27" width="2.45" height="3.27"/><rect x="16.44" y="12.27" width="2.45" height="3.27"/><rect x="19.72" y="12.27" width="2.45" height="3.27"/><rect x="13.17" y="16.36" width="2.45" height="3.27"/><rect x="16.44" y="16.36" width="2.45" height="3.27"/><rect x="19.72" y="16.36" width="2.45" height="3.27"/><rect x="13.17" y="20.45" width="2.45" height="3.27"/><rect x="16.44" y="20.45" width="2.45" height="3.27"/><rect x="19.72" y="20.45" width="2.45" height="3.27"/><rect x="13.17" y="24.55" width="2.45" height="2.45"/><rect x="16.44" y="24.55" width="2.45" height="2.45"/><rect x="19.72" y="24.55" width="2.45" height="2.45"/><rect x="2.74" y="9.01" width="2.45" height="2.45"/><rect x="2.74" y="12" width="9" height="2"/><polyline points="3 14.67 11.74 14.67 11.6 27 9.25 27 9.25 25 7.31 25 7.31 27 5.37 27 5.37 25 3.42 25 3.42 27 3.42 27 3.42 27 3.42 27 2.45 27 2.45 15"/><rect x="3.53" y="16.15" width="2.2" height="1.38" style="fill:#fff"/><rect x="8.35" y="16.15" width="2.2" height="1.38" style="fill:#fff"/><rect x="3.53" y="18.51" width="2.2" height="1.38" style="fill:#fff"/><rect x="8.35" y="18.51" width="2.2" height="1.38" style="fill:#fff"/><rect x="3.58" y="20.87" width="2.2" height="1.38" style="fill:#fff"/><rect x="8.4" y="20.87" width="2.2" height="1.38" style="fill:#fff"/></svg>