<svg xmlns="http://www.w3.org/2000/svg" viewBox="0 0 6.87 12.8"><g id="Layer_2" data-name="Layer 2"><g id="Layer_1-2" data-name="Layer 1"><path d="M3.35,1.75,4,.22A.87.87,0,0,1,4.81,0L6.57.76a.47.47,0,0,1,.28.59l0,0L6.3,2.71h0l-.18.43L3.49,2.06h0a.2.2,0,0,1-.16-.25A.14.14,0,0,1,3.35,1.75Z" style="fill:#49a3ad"/><rect x="-0.92" y="5.05" width="7.84" height="3.06" transform="translate(-4.22 6.88) rotate(-67.83)" style="fill:#49a3ad"/><polyline points="0.63 9.64 1.95 8.7 1.94 9.6 3 9.11 2.56 10.41" style="fill:#fff"/><polyline points="0.38 9.52 0.51 12.11 2.83 10.53" style="fill:#fff;stroke:#49a3ad;stroke-miterlimit:10;stroke-width:0.75px"/></g></g></svg>