<svg id="Layer_1" data-name="Layer 1" xmlns="http://www.w3.org/2000/svg" viewBox="0 0 14.26 26.48"><path d="M16.73,5.81l1.32-3.24a1.83,1.83,0,0,1,1.76-.36l3.71,1.5A1,1,0,0,1,24.07,5L22.94,7.79h0l-.38.93L17.05,6.48l0,0A.46.46,0,0,1,16.73,5.81Z" transform="translate(-9.9 -2.1)" style="fill:#49a3ad"/><rect x="12.78" y="7.73" width="6.45" height="16.53" transform="translate(-2.67 -6.95) rotate(22.17)" style="fill:#49a3ad"/><polyline points="1.1 20.36 3.9 18.38 3.86 20.26 6.11 19.24 5.17 21.98" style="fill:#fff"/><polyline points="0.58 20.12 0.86 25.57 5.77 22.23" style="fill:#fff;stroke:#49a3ad;stroke-miterlimit:10"/></svg>