<?xml version="1.0" encoding="utf-8"?>
<!-- Generator: Adobe Illustrator 24.2.3, SVG Export Plug-In . SVG Version: 6.00 Build 0)  -->
<svg version="1.1" xmlns="http://www.w3.org/2000/svg" xmlns:xlink="http://www.w3.org/1999/xlink" x="0px" y="0px"
	 viewBox="0 0 16.1 32" style="enable-background:new 0 0 16.1 32;" xml:space="preserve">
<style type="text/css">
	.st0{fill:#49A3AD;}
	.st1{fill:#FFFFFF;}
	.st2{fill:none;stroke:#49A3AD;stroke-width:0.75;stroke-miterlimit:10;}
	.st3{display:none;}
	.st4{display:inline;}
	.st5{fill:#AF013F;stroke:#AF013F;stroke-width:0.5;stroke-miterlimit:10;}
	.st6{fill:#FFFFFF;stroke:#AF013F;stroke-width:0.5;stroke-miterlimit:10;}
	.st7{fill:#751A7C;}
	.st8{fill:none;stroke:#F9A404;stroke-miterlimit:10;}
	.st9{fill:#F9A404;}
	.st10{fill:#4EAC97;}
	.st11{fill:none;stroke:#4EAC97;stroke-miterlimit:10;}
	.st12{display:inline;enable-background:new    ;}
	.st13{fill:#000A7B;}
	.st14{fill:none;stroke:#FFFFFF;stroke-width:0.25;stroke-miterlimit:10;}
	.st15{fill:#F9D749;}
	.st16{fill:#FFFFFD;}
	.st17{font-family:'Oxygen';}
	.st18{font-size:11.9126px;}
	.st19{font-size:8.9305px;}
	.st20{font-size:5.9621px;}
</style>
<g id="Layer_1">
	<g>
		<path class="st0" d="M7.7,4.7l1.5-3.9c0.5-0.5,1.2-0.7,1.9-0.6l4.1,2c0.6,0.2,0.8,0.9,0.7,1.5l-1.3,3.5l-0.4,1.1L8,5.5
			c-0.3,0-0.4-0.3-0.4-0.6l0-0.1L7.7,4.7z"/>
		<polygon class="st0" points="0.1,25 7.1,6.3 13.7,9.3 6.8,28 		"/>
		<polyline class="st1" points="1,25 4.3,22.6 4.2,24.9 6.9,23.7 5.8,27 		"/>
		<polyline class="st1" points="0.7,24.7 1,31.4 6.5,27.3 		"/>
		<polyline class="st2" points="0.4,24.7 0.7,31.4 6.8,27.3 		"/>
	</g>
</g>
<g id="Layer_4" class="st3">
	<g class="st4">
		<g id="Layer_2_2_">
			<g id="Layer_1-2_1_">
				<polyline class="st5" points="-7.7,5.8 -2.5,31.8 17,31.8 23.8,5.8 				"/>
				<polygon class="st6" points="-6.5,11.8 -4.9,23.3 19.3,23.3 22.6,11.8 				"/>
				<rect x="-7.7" y="4.2" class="st6" width="31.5" height="2"/>
				<polygon class="st6" points="-4.8,3.9 -2.9,0.3 19.1,0.3 21.3,3.9 				"/>
			</g>
		</g>
	</g>
</g>
<g id="Layer_5" class="st3">
	<g class="st4">
		<g id="Layer_2_3_">
			<g id="Layer_1-2_2_">
				<path class="st7" d="M11.8,10.9L-2,26.6L11.8,10.9z"/>
				<polygon class="st7" points="11.7,10.1 -7.1,31.3 -6,32 12.7,10.8 11.7,10.1 				"/>
				<polygon class="st7" points="11.4,10.8 5.9,10.7 9.3,6.9 7.8,2.2 13,4 17.5,1.2 17.3,6 21.7,9 16.3,10.3 14.5,14.8 				"/>
				<path class="st7" d="M16.9,2.3l-0.2,3.4v0.6l0.6,0.3l3.1,2.1l-3.7,0.9l-0.7,0.1l-0.2,0.6l-1.3,3.2l-2.1-2.9L12,10.2h-0.9H7.2
					l2.4-2.8l0.4-0.5L9.9,6.4L8.8,3.2l3.6,1.2l0.7,0.2l0.6-0.4L16.9,2.3 M18.3,0l-5.5,3.3l-6.1-2l1.9,5.5l-4.1,4.5h6.6l3.7,4.9
					l2.2-5.4l6.4-1.5L18,5.7L18.3,0L18.3,0z"/>
				<path class="st7" d="M0.1,4c0,0,0.6,0.9,1.3,0.8S2.4,4,2.7,4c0.3,0.1-0.2,0.9,0,1.5S4,6.2,4,6.3S2.4,6,1.9,6.5s0,1.5,0,1.5
					S1.7,6.7,0.6,6.5C-0.5,6.3-1.1,7-1.1,7s1.3-0.5,1.6-1.2S0,4.1,0.1,4z"/>
				<path class="st7" d="M-7.2,2.8c0,0,0.4,0.7,0.9,0.6s0.7-0.6,0.9-0.5c0.2,0-0.2,0.6,0,1.1c0.2,0.4,1,0.5,0.9,0.6
					c0,0.1-1.1-0.2-1.5,0.1s0,1.1,0,1.1s-0.1-1-0.9-1.2C-7.2,4.5-7.7,4.6-7.9,5c0,0,0.9-0.3,1.1-0.9C-6.6,3.6-7.2,2.8-7.2,2.8z"/>
				<path class="st7" d="M-4.8,7.4c0,0,0.4,0.6,0.9,0.5S-3.2,7.4-3,7.5s-0.2,0.6,0,1.1C-2.9,9-2.1,9-2.1,9.1s-1.2-0.2-1.5,0.2
					s0,1,0,1.1s-0.3-1-1-1.2c-0.4-0.1-0.9,0-1.2,0.3c0,0,0.9-0.3,1.1-0.9C-4.4,8.1-4.9,7.4-4.8,7.4z"/>
				<path class="st7" d="M14.2,17.9c0,0,0.6,0.9,1.3,0.8s1-0.8,1.2-0.7s-0.2,0.9,0,1.5c0.2,0.6,1.3,0.7,1.3,0.8s-1.6-0.3-2.1,0.2
					s0.2,1.5,0,1.5c-0.2,0-0.2-1.4-1.2-1.5s-1.6,0.5-1.6,0.5c0,0,1.3-0.5,1.6-1.3C15,18.9,14.2,17.9,14.2,17.9z"/>
				<path class="st7" d="M17,14.9c0,0,0.7,0.4,1.1,0c0.4-0.4,0.3-0.8,0.4-0.8c0.2,0,0.3,0.6,0.7,0.9c0.5,0.3,1.1,0,1.1,0
					s-1.1,0.3-1.2,0.8s0.7,0.8,0.7,0.9s-0.8-0.7-1.5-0.5c-0.4,0.2-0.7,0.6-0.8,1c0.3-0.4,0.5-0.8,0.5-1.3C17.9,15.3,17,15,17,14.9z"
					/>
				<path class="st7" d="M21.3,17.7c0,0,0.4,0.6,0.9,0.5c0.5-0.1,0.7-0.6,0.9-0.5s-0.2,0.6,0,1.1s1,0.5,0.9,0.5s-1.2-0.2-1.5,0.2
					c-0.3,0.4,0,1.1,0,1.1s-0.3-1-1-1.1c-0.4,0-0.8,0.1-1.1,0.3c0,0,0.9-0.3,1.1-0.9S21.2,17.7,21.3,17.7z"/>
			</g>
		</g>
	</g>
</g>
<g id="Layer_6" class="st3">
	<g class="st4">
		<g id="Layer_2_4_">
			<g id="Layer_1-2_3_">
				<polyline points="24.1,0 16.9,5.8 24.1,5.8 				"/>
				<rect x="16.9" y="7.3" width="7.2" height="11.6"/>
				<polyline points="16.9,20.4 24.1,20.4 24.1,32 21.7,32 21.7,28.7 19.3,28.7 19.3,32 16.9,32 				"/>
				<rect x="4.9" y="5.8" width="2.9" height="3.6"/>
				<rect x="8.8" y="5.8" width="2.9" height="3.6"/>
				<rect x="12.7" y="5.8" width="2.9" height="3.6"/>
				<rect x="4.9" y="10.6" width="2.9" height="4.8"/>
				<rect x="8.8" y="10.6" width="2.9" height="4.8"/>
				<rect x="12.7" y="10.6" width="2.9" height="4.8"/>
				<rect x="4.9" y="16.5" width="2.9" height="4.8"/>
				<rect x="8.8" y="16.5" width="2.9" height="4.8"/>
				<rect x="12.7" y="16.5" width="2.9" height="4.8"/>
				<rect x="4.9" y="22.5" width="2.9" height="4.8"/>
				<rect x="8.8" y="22.5" width="2.9" height="4.8"/>
				<rect x="12.7" y="22.5" width="2.9" height="4.8"/>
				<rect x="4.9" y="28.4" width="2.9" height="3.6"/>
				<rect x="8.8" y="28.4" width="2.9" height="3.6"/>
				<rect x="12.7" y="28.4" width="2.9" height="3.6"/>
				<rect x="-7.6" y="5.8" width="2.9" height="3.6"/>
				<rect x="-7.6" y="10.2" width="10.8" height="2.9"/>
				<polyline points="-7.3,14.1 3.2,14.1 3,32 0.2,32 0.2,29.1 -2.1,29.1 -2.1,32 -4.5,32 -4.5,29.1 -6.8,29.1 -6.8,32 -6.8,32 
					-6.8,32 -6.8,32 -7.9,32 -7.9,14.6 				"/>
				<rect x="-6.7" y="16.2" class="st1" width="2.6" height="2"/>
				<rect x="-0.9" y="16.2" class="st1" width="2.6" height="2"/>
				<rect x="-6.7" y="19.6" class="st1" width="2.6" height="2"/>
				<rect x="-0.9" y="19.6" class="st1" width="2.6" height="2"/>
				<rect x="-6.6" y="23.1" class="st1" width="2.6" height="2"/>
				<rect x="-0.8" y="23.1" class="st1" width="2.6" height="2"/>
			</g>
		</g>
	</g>
</g>
<g id="Layer_7" class="st3">
	<g class="st4">
		<g id="Layer_2_5_">
			<g id="Layer_1-2_4_">
				<line class="st8" x1="-7.9" y1="31.5" x2="24.1" y2="31.5"/>
				<path class="st9" d="M18.8,29.6c0-9.9-4.8-17.9-10.7-17.9s-10.7,8-10.7,17.9H18.8z"/>
				<line class="st8" x1="23.2" y1="20.4" x2="19.4" y2="24"/>
				<line class="st8" x1="22.7" y1="10.2" x2="17.5" y2="16.4"/>
				<line class="st8" x1="16.3" y1="5.1" x2="13.8" y2="11"/>
				<line class="st8" x1="-7.1" y1="20.2" x2="-3.3" y2="23.8"/>
				<line class="st8" x1="-5.8" y1="9.7" x2="-0.9" y2="16.9"/>
				<line class="st8" x1="8.3" y1="0" x2="8.3" y2="10"/>
				<line class="st8" x1="0.4" y1="5" x2="2.9" y2="10.9"/>
			</g>
		</g>
	</g>
</g>
<g id="Layer_3" class="st3">
	<g class="st4">
		<g>
			<path class="st10" d="M-5.1,7.4c-0.1,0-0.3,0-0.4-0.1l-1.4-0.5c-0.2-0.1-0.4-0.3-0.5-0.5c0-0.1-0.1-0.3,0-0.5
				c0.1-0.3,0.5-0.5,0.9-0.5c0.1,0,0.3,0,0.4,0.1l1.4,0.5C-4.5,6-4.3,6.2-4.2,6.4c0,0.1,0.1,0.3,0,0.5C-4.3,7.2-4.7,7.4-5.1,7.4
				L-5.1,7.4z"/>
			<path class="st10" d="M-6.4,5.9c0.1,0,0.1,0,0.2,0l1.4,0.5c0.2,0.1,0.2,0.2,0.2,0.2c0,0,0,0.1,0,0.1c0,0.1-0.2,0.2-0.4,0.2
				c-0.1,0-0.1,0-0.2,0l-1.4-0.5c-0.2-0.1-0.2-0.2-0.2-0.2c0,0,0-0.1,0-0.1C-6.8,6-6.7,5.9-6.4,5.9 M-6.4,4.9
				c-0.6,0-1.1,0.3-1.4,0.8v0C-8.1,6.3-7.7,7-7,7.3l1.4,0.5c0.2,0.1,0.4,0.1,0.5,0.1c0.6,0,1.1-0.3,1.4-0.8l0,0
				c0.3-0.6-0.1-1.4-0.8-1.6L-5.9,5C-6.1,4.9-6.3,4.9-6.4,4.9L-6.4,4.9z"/>
		</g>
		<g>
			<path class="st10" d="M21.6,7.9c-0.3,0-0.5-0.1-0.7-0.2c-0.2-0.1-0.3-0.3-0.3-0.5c0-0.2,0.1-0.4,0.2-0.5l1-0.9
				c0.2-0.2,0.4-0.3,0.7-0.3c0.3,0,0.5,0.1,0.7,0.2c0.2,0.1,0.3,0.3,0.3,0.5c0,0.2-0.1,0.4-0.2,0.5l-1,0.9
				C22.1,7.8,21.8,7.9,21.6,7.9L21.6,7.9z"/>
			<path class="st10" d="M22.5,6c0.1,0,0.3,0,0.4,0.1C23,6.1,23,6.2,23,6.2c0,0.1,0,0.1-0.1,0.1l-1,0.9c-0.1,0.1-0.2,0.1-0.4,0.1
				c-0.1,0-0.3,0-0.4-0.1c-0.1,0-0.1-0.1-0.1-0.1c0-0.1,0-0.1,0.1-0.1l1-0.9C22.2,6,22.4,6,22.5,6 M22.5,5c-0.4,0-0.8,0.1-1.1,0.4
				l-1,0.9c-0.5,0.5-0.5,1.3,0.1,1.8h0c0.3,0.2,0.6,0.3,1,0.3c0.4,0,0.8-0.1,1.1-0.4l1-0.9c0.5-0.5,0.5-1.3-0.1-1.8l0,0
				C23.2,5.1,22.9,5,22.5,5L22.5,5z"/>
		</g>
		<ellipse class="st11" cx="8.1" cy="13.9" rx="9.5" ry="8.2"/>
		<path class="st11" d="M11.7,31.5H4.4c-0.4,0-0.6-0.3-0.6-0.6v-8c0-0.4,0.3-0.6,0.6-0.6h7.2c0.4,0,0.6,0.3,0.6,0.6v8
			C12.3,31.2,12,31.5,11.7,31.5z"/>
	</g>
	<g class="st4">
		<path class="st10" d="M-4.8,22.3c-0.3,0-0.5-0.1-0.7-0.2c-0.2-0.1-0.3-0.3-0.3-0.5c0-0.2,0.1-0.4,0.2-0.5l1-0.9
			c0.2-0.2,0.4-0.3,0.7-0.3c0.3,0,0.5,0.1,0.7,0.2c0.2,0.1,0.3,0.3,0.3,0.5c0,0.2-0.1,0.4-0.2,0.5l-1,0.9
			C-4.3,22.2-4.5,22.3-4.8,22.3L-4.8,22.3z"/>
		<path class="st10" d="M-3.8,20.4c0.1,0,0.3,0,0.4,0.1c0.1,0,0.1,0.1,0.1,0.1c0,0.1,0,0.1-0.1,0.1l-1,0.9c-0.1,0.1-0.2,0.1-0.4,0.1
			c-0.1,0-0.3,0-0.4-0.1c-0.1,0-0.1-0.1-0.1-0.1c0-0.1,0-0.1,0.1-0.1l1-0.9C-4.1,20.4-4,20.4-3.8,20.4 M-3.8,19.4
			c-0.4,0-0.8,0.1-1.1,0.4l-1,0.9c-0.5,0.5-0.5,1.3,0.1,1.8c0.3,0.2,0.6,0.3,1,0.3c0.4,0,0.8-0.1,1.1-0.4l1-0.9
			c0.5-0.5,0.5-1.3-0.1-1.8v0C-3.1,19.5-3.5,19.4-3.8,19.4L-3.8,19.4z"/>
	</g>
	<g class="st4">
		<path class="st10" d="M21.3,21.2c-0.1,0-0.3,0-0.4-0.1l-1.4-0.5c-0.2-0.1-0.4-0.3-0.5-0.5c0-0.1-0.1-0.3,0-0.5
			c0.1-0.3,0.5-0.5,0.9-0.5c0.1,0,0.3,0,0.4,0.1l1.4,0.5c0.2,0.1,0.4,0.3,0.5,0.5c0,0.1,0.1,0.3,0,0.5C22,21,21.7,21.2,21.3,21.2
			L21.3,21.2z"/>
		<path class="st10" d="M19.9,19.7c0.1,0,0.1,0,0.2,0l1.4,0.5c0.2,0.1,0.2,0.2,0.2,0.2c0,0,0,0.1,0,0.1c0,0.1-0.2,0.2-0.4,0.2
			c-0.1,0-0.1,0-0.2,0l-1.4-0.5c-0.2-0.1-0.2-0.2-0.2-0.2c0,0,0-0.1,0-0.1C19.5,19.8,19.7,19.7,19.9,19.7 M19.9,18.7
			c-0.6,0-1.1,0.3-1.4,0.8c-0.3,0.6,0.1,1.4,0.8,1.6l1.4,0.5c0.2,0.1,0.4,0.1,0.5,0.1c0.6,0,1.1-0.3,1.4-0.8h0
			c0.3-0.6-0.1-1.4-0.8-1.6l-1.4-0.5C20.3,18.7,20.1,18.7,19.9,18.7L19.9,18.7z"/>
	</g>
	<g class="st4">
		<path class="st10" d="M8.3,3.6c-0.2,0-0.4-0.1-0.5-0.2C7.7,3.3,7.6,3.1,7.6,2.9l0-1.4c0-0.5,0.4-1,0.9-1c0,0,0.1,0,0.1,0
			c0.2,0,0.4,0.1,0.5,0.2C9.3,0.8,9.3,1,9.3,1.2l0,1.4c0,0.5-0.4,1-0.9,1C8.3,3.6,8.3,3.6,8.3,3.6z"/>
		<path class="st10" d="M8.7,1c0,0,0.1,0,0.1,0c0,0,0,0.1,0,0.1l0,1.4c0,0.2-0.3,0.5-0.5,0.6c0,0-0.1,0-0.1,0c0,0,0-0.1,0-0.1l0-1.4
			C8.1,1.3,8.4,1,8.7,1C8.6,1,8.6,1,8.7,1 M8.7,0C8.6,0,8.5,0,8.5,0C7.7,0.1,7.1,0.8,7.1,1.5l0,1.4c0,0.7,0.5,1.2,1.2,1.2
			c0.1,0,0.1,0,0.2,0C9.2,4,9.8,3.3,9.8,2.5l0-1.4C9.8,0.5,9.3,0,8.7,0L8.7,0z"/>
	</g>
</g>
<g id="Layer_2" class="st3">
	<g class="st12">
		<path class="st13" d="M20.5,1.9c1.1,1.3,1.9,3.1,2.6,5.6c0.6,2.4,0.9,5.3,0.9,8.5c0,3.3-0.3,6.1-0.9,8.5c-0.6,2.4-1.5,4.3-2.6,5.6
			C19.4,31.4,18.2,32,17,32c-1.5,0-2.9-0.9-4.2-2.6c-1.3-1.7-2.9-4.7-4.9-8.9c-1.6,3.5-2.8,6-3.7,7.6c-0.9,1.6-1.7,2.7-2.4,3.2
			C1,31.7,0.2,32-0.9,32c-1.3,0-2.5-0.6-3.6-1.9c-1.1-1.3-2-3.1-2.6-5.6c-0.6-2.4-0.9-5.3-0.9-8.5c0-3.3,0.3-6.1,0.9-8.5
			c0.6-2.4,1.5-4.3,2.6-5.6C-3.3,0.6-2.1,0-0.9,0c1.5,0,3,0.9,4.3,2.6c1.3,1.7,2.9,4.7,4.8,8.8c1.6-3.5,2.9-6,3.9-7.6
			c1-1.6,1.8-2.6,2.5-3.1C15.2,0.2,16,0,17,0C18.2,0,19.4,0.6,20.5,1.9z M0.8,26.4c0.5-0.5,1.1-1.4,1.7-2.8c0.7-1.3,1.8-3.7,3.4-7.2
			c-1.9-3.9-3.3-6.6-4.2-8C0.9,7.1,0,6.4-0.9,6.4c-1,0-1.9,0.9-2.6,2.8c-0.7,1.9-1.1,4.4-1.1,7.6c0,3.2,0.4,5.7,1.1,7.6
			s1.6,2.8,2.6,2.8C-0.3,27.2,0.3,26.9,0.8,26.4z M19.6,22.8c0.7-1.9,1.1-4.4,1.1-7.6c0-3.2-0.4-5.7-1.1-7.6C18.9,5.7,18,4.8,17,4.8
			c-0.7,0-1.3,0.2-1.8,0.7c-0.5,0.5-1.1,1.4-1.8,2.8c-0.7,1.4-1.9,3.8-3.4,7.2c1.6,3.6,3,6.1,4,7.7c1.1,1.6,2.1,2.4,3,2.4
			C18.1,25.6,18.9,24.7,19.6,22.8z"/>
	</g>
</g>
<g id="Layer_9" class="st3">
	<g class="st4">
		<path class="st13" d="M16.7,16.6c0,8.5-5.5,15.4-12.3,15.4c-6.8,0-12.3-6.9-12.3-15.4c0-8.5,5.5-15.4,12.3-15.4
			C11.2,1.3,16.7,8.2,16.7,16.6z"/>
		<path class="st1" d="M-1.6,15.4c0,8.5,5.5,15.4,12.3,15.4c6.8,0,12.3-6.9,12.3-15.4S17.5,0,10.7,0C3.9,0-1.6,6.9-1.6,15.4z"/>
		<polyline class="st13" points="-3.8,24.3 -7.9,32 2.3,29.4 		"/>
		<path class="st1" d="M4.4,14.1c0.6,0,1,0.6,1,1.3s-0.5,1.3-1,1.3s-1-0.6-1-1.3S3.8,14.1,4.4,14.1z"/>
		<path class="st1" d="M9.3,14.1c0.6,0,1,0.6,1,1.3s-0.5,1.3-1,1.3c-0.6,0-1-0.6-1-1.3S8.7,14.1,9.3,14.1z"/>
		<path class="st13" d="M-0.6,15.4c0,8.5,5.5,15.3,12.3,15.3c3.7,0,7.2-2.1,9.5-5.7c1.8-2.7,2.8-6.1,2.7-9.7C24.1,6.9,18.5,0,11.7,0
			C4.9,0-0.6,6.9-0.6,15.4z"/>
		<polyline class="st13" points="19.9,23 24.1,30.7 13.8,28.2 		"/>
		<path class="st1" d="M16.9,12.8c0.6,0,1,0.6,1,1.3s-0.5,1.3-1,1.3s-1-0.6-1-1.3S16.3,12.8,16.9,12.8z"/>
		<path class="st1" d="M11.7,12.8c0.6,0,1,0.6,1,1.3s-0.5,1.3-1,1.3s-1-0.6-1-1.3S11.2,12.8,11.7,12.8z"/>
		<path class="st1" d="M6.8,12.8c0.6,0,1,0.6,1,1.3s-0.5,1.3-1,1.3s-1-0.6-1-1.3S6.2,12.8,6.8,12.8z"/>
	</g>
</g>
<g id="Layer_11" class="st3">
	<g class="st4">
		<path d="M0.1,9.1L0.1,9.1c1-0.7,2.5-0.5,3.2,0.5L17,28.4c0.7,1,0.5,2.5-0.5,3.2c-1,0.7-2.5,0.5-3.2-0.5L-0.4,12.3
			C-1.2,11.2-0.9,9.8,0.1,9.1z"/>
		<polygon points="19.2,0.2 23.9,4.1 10.6,19.3 5.9,15.4 		"/>
		<polygon class="st14" points="19.2,0.2 23.9,4.1 10.6,19.3 5.9,15.4 		"/>
		<polygon points="-1.7,26.6 -4.8,31.9 0.5,28.7 		"/>
		<polygon points="11.5,12.2 13,13.5 -0.3,28.7 -1.8,27.4 		"/>
		<path d="M-7.5,10l1.7,2.1c0.6,0.7,2,2.8,3.3,2.5c2.5-1.6,4.8-3.4,7-5.4c0,0,0.9-2.5-2.4-6.5c-3.3-4-0.8,4-0.8,4l-4.4,3.1l-2.9-2.3
			c0,0-0.4-0.6-1.4,0.3C-8.5,8.8-7.5,10-7.5,10z"/>
	</g>
</g>
<g id="Layer_12" class="st3">
	<g class="st4">
		<polygon class="st15" points="5.5,3.9 4.9,4.2 5.1,3.5 4.6,3 5.2,2.9 5.5,2.3 5.8,2.9 6.4,3 5.9,3.5 6,4.2 		"/>
		<polygon class="st15" points="5.5,1 4.9,2.4 3.6,2.7 4.5,3.7 4.3,5.2 5.5,4.5 6.7,5.2 6.5,3.7 7.4,2.7 6.1,2.4 		"/>
		<polygon class="st15" points="15.7,1.7 15.4,1.6 15.6,1.4 15.6,1 15.8,1.2 16.1,1 16,1.4 16.2,1.6 16,1.7 15.8,1.9 		"/>
		<polygon class="st15" points="15,0 15.1,1.2 14.4,1.9 15.4,2.2 15.8,3.2 16.3,2.2 17.3,2 16.6,1.2 16.8,0 15.9,0.6 		"/>
		<polygon class="st15" points="15.3,6.4 15.8,7 16.5,6.8 16.2,7.6 16.6,8.3 15.9,8.2 15.4,8.8 15.3,8 14.6,7.6 15.2,7.2 		"/>
		<polygon class="st15" points="15.3,6.4 15.2,7.2 14.6,7.6 15.3,8 15.4,8.8 15.9,8.2 16.6,8.3 16.2,7.6 16.5,6.8 15.8,7 		"/>
		<polygon class="st15" points="-1.5,6.2 -1.8,6.2 -1.7,5.9 -1.8,5.6 -1.5,5.7 -1.4,5.4 -1.3,5.8 -1,5.9 -1.3,6 -1.3,6.4 		"/>
		<polygon class="st15" points="-1.1,4.2 -1.8,5.1 -2.8,5 -2.2,6 -2.6,7.1 -1.6,6.8 -0.9,7.5 -0.8,6.4 0.1,5.8 -0.9,5.3 		"/>
		<rect x="-7.9" y="11.6" class="st15" width="32" height="20.4"/>
		<path class="st15" d="M22.9,12.1v17.7h-29V12.1H22.9 M23.8,11H-7v20h30.9L23.8,11z"/>
		<path class="st15" d="M5,10.2c1.2,0,2.2,0.6,2.2,1.4c0,0.8-1,1.4-2.2,1.4c-1.2,0-2.2-0.6-2.2-1.4C2.9,10.8,3.8,10.2,5,10.2z"/>
		<path class="st16" d="M5,10.5C6.1,10.5,7,11,7,11.6S6.1,12.7,5,12.7c-1.1,0-1.9-0.6-1.9-1.1S3.9,10.5,5,10.5 M5,9.9
			c-1.3,0-2.4,0.7-2.4,1.7s1.1,1.7,2.4,1.7c1.3,0,2.4-0.7,2.4-1.7S6.4,9.9,5,9.9z"/>
		<path class="st15" d="M8.9,13c-1.2,0-2.2-0.6-2.2-1.4s1-1.4,2.2-1.4c1.2,0,2.2,0.6,2.2,1.4S10.1,13,8.9,13z"/>
		<path class="st16" d="M8.9,10.5c1.1,0,1.9,0.6,1.9,1.1s-0.8,1.1-1.9,1.1c-1.1,0-1.9-0.6-1.9-1.1S7.8,10.5,8.9,10.5 M8.9,9.9
			c-1.3,0-2.4,0.7-2.4,1.7s1.1,1.7,2.4,1.7s2.4-0.8,2.4-1.7S10.3,9.9,8.9,9.9z"/>
		<path class="st15" d="M12.2,13c-0.8,0-1.5-0.4-1.6-0.9c-0.1-0.4,0.1-0.8,0.4-1.1c0.4-0.4,0.9-0.7,1.5-0.9c0.3-0.1,0.6-0.1,0.8-0.1
			c0.8,0,1.4,0.4,1.5,0.9c0.1,0.4-0.1,0.8-0.4,1.1c-0.4,0.4-0.9,0.7-1.5,0.9C12.7,13,12.5,13,12.2,13z"/>
		<path class="st16" d="M13.3,10.5L13.3,10.5c0.7,0,1.3,0.3,1.3,0.7c0,0.3-0.1,0.6-0.3,0.8c-0.4,0.4-0.8,0.7-1.3,0.8
			c-0.3,0-0.5,0-0.8,0c-0.7,0-1.2-0.3-1.3-0.7c0-0.3,0.1-0.6,0.3-0.8c0.4-0.4,0.8-0.7,1.3-0.8C12.8,10.4,13,10.4,13.3,10.5
			 M13.3,9.9c-0.3,0-0.6,0-0.9,0.1c-1.3,0.4-2.2,1.4-2,2.2s0.9,1.1,1.8,1.1c0.3,0,0.6,0,0.9-0.1c1.3-0.4,2.2-1.4,2-2.2
			C14.9,10.1,14.2,9.8,13.3,9.9L13.3,9.9z"/>
		<path class="st15" d="M13.4,21.6c-0.8,0-1.4-0.4-1.6-0.9s0.7-1.6,1.8-1.9c0.3-0.1,0.6-0.1,0.8-0.1c0.8,0,1.5,0.4,1.6,0.9
			c0.1,0.4-0.1,0.9-0.4,1.1c-0.4,0.4-0.9,0.7-1.4,0.9C14,21.6,13.7,21.6,13.4,21.6z"/>
		<path class="st16" d="M14.5,19L14.5,19c0.7,0,1.3,0.3,1.3,0.7c0.1,0.4-0.6,1.3-1.7,1.6c-0.3,0-0.5,0-0.8,0c-0.7,0-1.2-0.3-1.3-0.7
			c-0.1-0.4,0.6-1.3,1.6-1.6C14,18.9,14.3,18.9,14.5,19 M14.5,18.4c-0.3,0-0.6,0-0.9,0.1c-1.3,0.4-2.2,1.4-2,2.2
			c0.2,0.9,0.9,1.1,1.8,1.1c0.3,0,0.6,0,0.9-0.1c1.3-0.4,2.2-1.4,2-2.2C16.2,18.7,15.5,18.4,14.5,18.4z"/>
		<path class="st15" d="M14.9,21c1.2,0,2.2,0.6,2.2,1.4c0,0.8-1,1.4-2.2,1.4c-1.2,0-2.2-0.6-2.2-1.4C12.8,21.6,13.7,21,14.9,21z"/>
		<path class="st16" d="M14.9,21.3c1.1,0,1.9,0.6,1.9,1.1s-0.8,1.1-1.9,1.1c-1.1,0-1.9-0.6-1.9-1.1S13.9,21.3,14.9,21.3 M14.9,20.7
			c-1.3,0-2.4,0.8-2.4,1.7c0,0.9,1.1,1.7,2.4,1.7c1.3,0,2.4-0.7,2.4-1.7C17.4,21.5,16.3,20.7,14.9,20.7z"/>
		<path class="st15" d="M10.9,27.6c-0.4,0.1-0.8-0.1-1-0.5c-0.3-0.6,0.3-1.7,1.4-2.4c0.4-0.3,0.9-0.4,1.4-0.4c0.4-0.1,0.8,0.1,1,0.5
			c0.3,0.7-0.3,1.8-1.4,2.4C11.9,27.5,11.4,27.7,10.9,27.6z"/>
		<path class="st16" d="M12.7,24.6L12.7,24.6c0.3-0.1,0.6,0.1,0.8,0.4c0.2,0.5-0.3,1.4-1.3,2.1c-0.4,0.2-0.9,0.4-1.3,0.4
			c-0.3,0.1-0.6-0.1-0.8-0.4c-0.2-0.5,0.3-1.4,1.3-2.1C11.7,24.7,12.2,24.6,12.7,24.6 M12.7,24c-0.5,0-1.1,0.2-1.5,0.5
			c-1.2,0.7-1.8,1.9-1.5,2.7c0.3,0.5,0.8,0.8,1.3,0.7c0.5,0,1.1-0.2,1.6-0.5c1.2-0.7,1.8-1.9,1.5-2.7C13.7,24.2,13.2,24,12.7,24z"/>
		<path class="st15" d="M4.9,22.7c-0.3,0-0.6-0.1-0.9-0.1c-0.5-0.1-1-0.4-1.4-0.9c-0.3-0.2-0.5-0.7-0.4-1.1c0.1-0.5,0.7-0.9,1.5-0.9
			c0.3,0,0.6,0.1,0.8,0.1c1.1,0.3,2,1.2,1.8,1.9S5.7,22.7,4.9,22.7z"/>
		<path class="st16" d="M3.8,20.1L3.8,20.1c0.3,0,0.5,0,0.8,0.1c0.5,0.1,1,0.4,1.3,0.8c0.2,0.2,0.3,0.5,0.3,0.8
			c0,0.4-0.6,0.7-1.3,0.7c-0.8,0-1.5-0.3-2.1-0.9c-0.2-0.2-0.3-0.5-0.3-0.8C2.5,20.4,3.1,20.1,3.8,20.1 M3.8,19.5
			c-0.9,0-1.6,0.4-1.8,1.1s0.7,1.9,2,2.3C4.3,23,4.6,23,4.9,23c0.9,0,1.6-0.4,1.8-1.1C6.9,21.2,6,20,4.8,19.7
			C4.5,19.6,4.2,19.6,3.8,19.5L3.8,19.5z"/>
		<path class="st15" d="M-3.4,20.7c-0.8,0-1.5-0.4-1.5-0.9c-0.1-0.5,0.7-1.6,1.8-1.9c0.3,0,0.6,0,0.8,0c0.8,0,1.4,0.4,1.5,0.9
			c0.1,0.5-0.7,1.6-1.8,1.9C-2.8,20.7-3.1,20.7-3.4,20.7z"/>
		<path class="st16" d="M-2.3,18L-2.3,18c0.7,0,1.2,0.3,1.3,0.7c0.1,0.4-0.6,1.3-1.7,1.6c-0.3,0.1-0.5,0.1-0.8,0.1
			c-0.7,0-1.2-0.3-1.3-0.7c-0.1-0.4,0.6-1.3,1.7-1.6C-2.8,18-2.5,18-2.3,18 M-2.3,17.5c-0.3,0-0.6,0-0.9,0.1c-1.3,0.4-2.2,1.4-2,2.2
			c0.2,0.9,0.9,1.1,1.8,1.1c0.3,0,0.6-0.1,0.9-0.1c1.3-0.4,2.2-1.4,2-2.2C-0.7,17.7-1.3,17.5-2.3,17.5z"/>
		<path class="st15" d="M-4.7,20c1.2,0,2.2,0.6,2.2,1.4s-1,1.4-2.2,1.4c-1.2,0-2.2-0.6-2.2-1.4S-5.9,20-4.7,20z"/>
		<path class="st16" d="M-4.7,20.3c1.1,0,1.9,0.6,1.9,1.1s-0.8,1.1-1.9,1.1s-1.9-0.6-1.9-1.1S-5.8,20.3-4.7,20.3 M-4.7,19.7
			c-1.3,0-2.4,0.8-2.4,1.7s1,1.6,2.4,1.6s2.4-0.8,2.4-1.7S-3.4,19.7-4.7,19.7z"/>
		<path class="st15" d="M-6.1,13c-0.8,0-1.5-0.4-1.6-0.9c-0.1-0.4,0.1-0.8,0.4-1.1c0.4-0.4,0.9-0.7,1.5-0.9c0.3-0.1,0.5-0.1,0.8-0.1
			c0.8,0,1.5,0.4,1.6,0.9c0.1,0.4-0.1,0.8-0.4,1.1c-0.4,0.4-0.9,0.7-1.5,0.9C-5.6,13-5.8,13-6.1,13z"/>
		<path class="st16" d="M-5,10.5L-5,10.5c0.7,0,1.3,0.3,1.3,0.7s-0.6,1.3-1.7,1.6c-0.3,0-0.5,0.1-0.8,0c-0.7,0-1.2-0.2-1.3-0.7
			c-0.1-0.5,0.6-1.3,1.7-1.6C-5.5,10.4-5.3,10.4-5,10.5 M-5,9.9c-0.3,0-0.6,0-0.9,0.1c-1.3,0.3-2.2,1.3-2,2.2
			c0.2,0.9,0.9,1.1,1.8,1.1c0.3,0,0.6,0,0.9,0c1.3-0.4,2.2-1.4,2-2.2C-3.4,10.2-4.1,10-5,9.9L-5,9.9z"/>
		<path class="st15" d="M-1.7,10.2c1.2,0,2.2,0.6,2.2,1.4c0,0.8-1,1.4-2.2,1.4c-1.2,0-2.2-0.6-2.2-1.4C-3.9,10.8-2.9,10.2-1.7,10.2z
			"/>
		<path class="st16" d="M-1.7,10.5c1.1,0,1.9,0.6,1.9,1.1s-0.8,1.1-1.9,1.1c-1.1,0-1.9-0.6-1.9-1.1S-2.8,10.5-1.7,10.5 M-1.7,9.9
			c-1.3,0-2.4,0.7-2.4,1.7s1.1,1.7,2.4,1.7c1.3,0,2.4-0.7,2.4-1.7S-0.4,9.9-1.7,9.9z"/>
		<path class="st15" d="M1.8,13.4c-0.8,0-1.4-0.4-1.6-0.9C0.1,12,0.9,11,2.1,10.6c0.3-0.1,0.6-0.2,0.9-0.2c0.8,0,1.5,0.3,1.5,0.9
			c0.1,0.5-0.7,1.6-1.8,1.9C2.4,13.4,2.1,13.4,1.8,13.4z"/>
		<path class="st16" d="M3,10.8L3,10.8c0.7,0,1.2,0.3,1.3,0.7c0,0.3-0.1,0.6-0.3,0.8c-0.4,0.4-0.8,0.7-1.3,0.8c-0.3,0-0.5,0-0.8,0
			c-0.7,0.1-1.3-0.2-1.4-0.5c0-0.3,0.1-0.6,0.3-0.8c0.4-0.4,0.8-0.7,1.3-0.8c0.3,0,0.5,0,0.8,0 M3,10.2c-0.3,0-0.6,0.1-0.9,0.2
			c-1.3,0.4-2.2,1.4-2,2.2c0.2,0.9,0.9,1.1,1.8,1.1c0.3,0,0.6,0,0.9-0.1c1.3-0.4,2.2-1.4,2-2.2C4.5,10.6,3.8,10.2,3,10.2z"/>
		<path class="st15" d="M17.5,13.9c-0.3,0-0.6-0.1-0.9-0.1c-0.5-0.1-1-0.4-1.4-0.9c-0.3-0.2-0.5-0.7-0.4-1.1
			c0.1-0.5,0.7-0.9,1.5-0.9c0.3,0,0.6,0.1,0.8,0.1c0.5,0.1,1,0.4,1.5,0.9c0.3,0.3,0.4,0.7,0.4,1.1C18.9,13.5,18.3,13.9,17.5,13.9z"
			/>
		<path class="st16" d="M16.3,11.2L16.3,11.2c0.3,0,0.5,0,0.8,0.1c0.5,0.1,1,0.4,1.3,0.8c0.2,0.2,0.3,0.5,0.3,0.8
			c0,0.4-0.6,0.7-1.3,0.7c-0.3,0-0.5,0-0.8,0c-0.5-0.1-1-0.4-1.3-0.8C15.1,12.6,15,12.3,15,12c0-0.4,0.6-0.7,1.3-0.7 M16.3,10.8
			c-0.9,0-1.6,0.4-1.8,1.1s0.7,1.9,2,2.3c0.3,0.1,0.6,0.2,0.9,0.1c0.9,0,1.6-0.4,1.8-1.1c0.2-0.7-0.7-1.9-2-2.3
			c-0.3-0.1-0.6-0.2-0.9-0.2V10.8z"/>
		<path class="st15" d="M18.1,13.9c-0.7,0-1.2-0.3-1.4-0.8c-0.1-0.5,0.6-1.7,1.7-2.1c0.3-0.1,0.7-0.2,1.1-0.2c0.7,0,1.2,0.3,1.4,0.8
			c0.1,0.4,0,0.8-0.3,1.1c-0.4,0.5-0.9,0.8-1.4,1C18.8,13.8,18.5,13.9,18.1,13.9z"/>
		<path class="st16" d="M19.5,11.1L19.5,11.1c0.6,0,1,0.2,1.1,0.6s-0.5,1.3-1.5,1.7c-0.3,0.1-0.6,0.2-1,0.2c-0.6,0-1-0.2-1.1-0.6
			c-0.1-0.3,0.5-1.3,1.5-1.7C18.9,11.2,19.2,11.1,19.5,11.1 M19.5,10.6c-0.4,0-0.8,0.1-1.1,0.2c-1.3,0.5-2.1,1.5-1.8,2.4
			s0.8,0.9,1.6,0.9c0.4,0,0.8-0.1,1.1-0.2c1.3-0.5,2.1-1.6,1.8-2.4C20.8,10.8,20.2,10.5,19.5,10.6z"/>
		<path class="st15" d="M21,13.9c-0.7,0-1.2-0.3-1.4-0.8c-0.1-0.5,0.6-1.7,1.7-2.1c0.3-0.1,0.7-0.2,1.1-0.2c0.7,0,1.2,0.3,1.4,0.8
			c0.1,0.4,0,0.8-0.3,1.1c-0.4,0.5-0.9,0.8-1.4,1C21.7,13.8,21.4,13.9,21,13.9z"/>
		<path class="st16" d="M22.4,11.1L22.4,11.1c0.6,0,1,0.2,1.1,0.6c0.1,0.3-0.5,1.3-1.5,1.7c-0.3,0.1-0.6,0.2-1,0.2
			c-0.6,0-1-0.2-1.1-0.6c-0.1-0.3,0.5-1.3,1.5-1.7C21.7,11.2,22.1,11.1,22.4,11.1 M22.4,10.6c-0.4,0-0.8,0.1-1.1,0.2
			c-1.3,0.5-2.1,1.5-1.8,2.4c0.3,0.9,0.8,0.9,1.6,0.9c0.4,0,0.8-0.1,1.1-0.2c1.3-0.5,2.1-1.6,1.8-2.4C23.7,10.8,23.1,10.5,22.4,10.6
			z"/>
		<path class="st15" d="M5.6,15c-0.7,0-1.2-0.3-1.4-0.8c-0.1-0.5,0.6-1.7,1.7-2.1C6.3,12.1,6.6,12,7,12c0.7,0,1.2,0.3,1.4,0.8
			c0.1,0.4,0,0.8-0.3,1.1c-0.4,0.5-0.9,0.8-1.4,1C6.3,14.9,5.9,15,5.6,15z"/>
		<path class="st16" d="M7,12.3L7,12.3c0.6,0,1,0.2,1.1,0.6c0.1,0.3-0.5,1.3-1.5,1.8c-0.3,0.1-0.6,0.2-1,0.2c-0.6,0-1-0.2-1.1-0.6
			c-0.1-0.3,0.5-1.3,1.5-1.7C6.4,12.4,6.7,12.3,7,12.3 M7,11.8c-0.4,0-0.8,0.1-1.1,0.2c-1.3,0.5-2.1,1.5-1.8,2.4
			c0.3,0.9,0.8,0.9,1.6,0.9c0.4,0,0.8-0.1,1.1-0.2c1.2-0.5,2-1.7,1.8-2.6C8.2,11.9,7.6,11.6,7,11.8L7,11.8z"/>
		<path class="st15" d="M2,31.7c-0.3,0-0.5,0-0.8-0.1c-0.5-0.1-1-0.4-1.5-0.8c-0.3-0.3-0.4-0.7-0.4-1.1c0.1-0.5,0.7-0.9,1.6-0.9
			c0.3,0,0.6,0,0.8,0c0.5,0.1,1,0.4,1.4,0.9c0.3,0.3,0.4,0.7,0.4,1.1C3.4,31.4,2.8,31.7,2,31.7z"/>
		<path class="st16" d="M0.9,29c0.3,0,0.5,0,0.8,0c0.5,0.1,1,0.4,1.4,0.9c0.2,0.2,0.3,0.5,0.3,0.8c0,0.4-0.6,0.7-1.3,0.7
			c-0.3,0-0.5,0-0.8,0c-1.1-0.3-1.8-1.1-1.7-1.6C-0.3,29.3,0.1,29.1,0.9,29 M0.8,28.5c-1,0-1.7,0.4-1.8,1.1c-0.2,0.7,0.7,1.9,2,2.2
			C1.3,32,1.6,32,1.9,32c0.9,0,1.7-0.4,1.8-1.1S3,29,1.7,28.7C1.4,28.6,1.1,28.6,0.8,28.5L0.8,28.5z"/>
		<path class="st15" d="M-0.5,26.6c1.2,0,2.2,0.6,2.2,1.4s-1,1.4-2.2,1.4c-1.2,0-2.2-0.6-2.2-1.4S-1.7,26.6-0.5,26.6z"/>
		<path class="st16" d="M-0.5,26.9c1.1,0,1.9,0.6,1.9,1.1s-0.8,1.1-1.9,1.1c-1.1,0-1.9-0.6-1.9-1.1S-1.6,26.9-0.5,26.9 M-0.5,26.3
			c-1.3,0-2.4,0.7-2.4,1.7s1.1,1.7,2.4,1.7c1.3,0,2.4-0.8,2.4-1.7S0.8,26.3-0.5,26.3L-0.5,26.3z"/>
		<path class="st15" d="M9.6,11.6c-0.8,0-1.4-0.4-1.6-0.9c-0.1-0.5,0.7-1.6,1.8-1.9c0.3,0,0.6,0,0.8,0c0.8,0,1.5,0.4,1.6,0.9
			c0.1,0.4-0.1,0.9-0.4,1.1c-0.4,0.4-0.9,0.7-1.4,0.9C10.1,11.7,9.9,11.7,9.6,11.6z"/>
		<path class="st16" d="M10.7,9L10.7,9c0.7,0,1.3,0.3,1.3,0.7c0.1,0.4-0.6,1.3-1.7,1.6c-0.3,0-0.5,0-0.8,0c-0.7,0-1.2-0.3-1.3-0.7
			S8.8,9.3,9.9,9C10.2,9,10.4,9,10.7,9 M10.7,8.4c-0.3,0-0.6,0-0.9,0.1c-1.3,0.4-2.2,1.4-2,2.2c0.2,0.9,0.9,1.1,1.8,1.1
			c0.3,0,0.6,0,0.9-0.1c1.3-0.4,2.2-1.4,2-2.2S11.6,8.4,10.7,8.4L10.7,8.4z"/>
		<path class="st15" d="M6.3,18.6c-0.4,0.1-0.7-0.1-1-0.5c-0.1-0.4-0.1-0.8,0.1-1.1c0.3-0.5,0.7-1,1.2-1.3c0.5-0.3,1-0.5,1.5-0.5
			c0.4,0,0.7,0.1,1,0.5c0.3,0.6-0.3,1.8-1.3,2.4C7.4,18.4,6.9,18.5,6.3,18.6z"/>
		<path class="st16" d="M8.2,15.4L8.2,15.4c0.3,0,0.6,0.1,0.8,0.4C9,16,9,16.3,8.8,16.6c-0.3,0.5-0.6,0.9-1.1,1.2
			c-0.4,0.3-0.9,0.5-1.4,0.5c-0.3,0-0.6-0.1-0.7-0.3c-0.1-0.3-0.1-0.6,0.1-0.9c0.3-0.5,0.6-0.9,1.1-1.2C7.2,15.6,7.7,15.4,8.2,15.4
			 M8.2,14.8c-0.6,0-1.1,0.2-1.6,0.6c-1.1,0.8-1.8,2.1-1.4,2.8c0.3,0.4,0.7,0.6,1.2,0.6c0.6,0,1.1-0.2,1.6-0.6
			c1.2-0.8,1.8-2.1,1.4-2.8C9.1,15,8.6,14.8,8.2,14.8z"/>
	</g>
</g>
<g id="Layer_13" class="st3">
	<g class="st4">
		<path class="st13" d="M-1.4,13.1C-2.7,8.7-2.2,4,0,0c-8,5.1-10.4,15.8-5.3,23.9c5,8.1,15.6,10.5,23.6,5.4c2.4-1.5,4.4-3.7,5.8-6.2
			c-1.4,0.9-2.9,1.6-4.4,2C10.5,27.7,1.1,22.3-1.4,13.1L-1.4,13.1L-1.4,13.1z"/>
		<text transform="matrix(0.9221 -0.387 0.3814 0.9358 5.8848 20.9295)" class="st13 st17 st18">Z</text>
		<text transform="matrix(0.9382 0.346 -0.3409 0.9522 11.8758 10.7603)" class="st13 st17 st19">Z</text>
		<text transform="matrix(0.8853 -0.4651 0.4583 0.8984 5.7274 6.2474)" class="st13 st17 st20">Z</text>
	</g>
</g>
</svg>
