<?xml version="1.0" encoding="utf-8"?>
<!-- Generator: Adobe Illustrator 24.2.3, SVG Export Plug-In . SVG Version: 6.00 Build 0)  -->
<svg version="1.1" xmlns="http://www.w3.org/2000/svg" xmlns:xlink="http://www.w3.org/1999/xlink" x="0px" y="0px"
	 viewBox="0 0 32 32" style="enable-background:new 0 0 32 32;" xml:space="preserve">
<style type="text/css">
	.st0{fill:#49A3AD;}
	.st1{fill:#FFFFFF;}
	.st2{fill:none;stroke:#49A3AD;stroke-width:0.75;stroke-miterlimit:10;}
	.st3{display:none;}
	.st4{display:inline;}
	.st5{fill:#4EAC97;}
	.st6{fill:none;stroke:#4EAC97;stroke-width:0.25;stroke-miterlimit:10;}
	.st7{display:inline;enable-background:new    ;}
	.st8{fill:#000A7B;}
</style>
<g id="Layer_1">
	<g>
		<path class="st0" d="M15.3,4.6l3.1-4c1-0.5,2.5-0.8,3.8-0.6l8.3,2c1.1,0.2,1.7,0.9,1.3,1.5l-2.6,3.5l-0.9,1.1L16,5.4
			c-0.5,0-0.9-0.3-0.8-0.6l0-0.1L15.3,4.6z"/>
		<polygon class="st0" points="0,25.1 14,6.2 27.4,9.2 13.4,28.1 		"/>
		<polyline class="st1" points="1.7,25.1 8.4,22.6 8.3,25 13.7,23.7 11.5,27.1 		"/>
		<polyline class="st1" points="1.3,24.8 1.9,31.5 12.9,27.4 		"/>
		<polyline class="st2" points="0.5,24.8 1.2,31.5 13.4,27.4 		"/>
	</g>
</g>
<g id="Layer_3" class="st3">
	<g class="st4">
		<g>
			<rect x="0.5" y="15.7" class="st5" width="3.4" height="1.5"/>
			<path class="st5" d="M3.4,16.2v0.5H1v-0.5H3.4 M4.1,15.2H0.2c-0.1,0-0.2,0.1-0.2,0.2v2.1c0,0.1,0.1,0.2,0.2,0.2h3.9
				c0.1,0,0.2-0.1,0.2-0.2v-2.1C4.4,15.3,4.3,15.2,4.1,15.2L4.1,15.2z"/>
		</g>
		<g>
			<path class="st5" d="M2.9,7.4c-0.1,0-0.3,0-0.4-0.1L1.1,6.8C0.9,6.7,0.7,6.6,0.6,6.4c0-0.1-0.1-0.3,0-0.5
				c0.1-0.3,0.5-0.5,0.9-0.5c0.1,0,0.3,0,0.4,0.1l1.4,0.5C3.5,6,3.7,6.2,3.8,6.4c0,0.1,0.1,0.3,0,0.5C3.6,7.2,3.3,7.4,2.9,7.4
				L2.9,7.4z"/>
			<path class="st5" d="M1.5,5.9c0.1,0,0.1,0,0.2,0l1.4,0.5c0.2,0.1,0.2,0.2,0.2,0.2c0,0,0,0.1,0,0.1c0,0.1-0.2,0.2-0.4,0.2
				c-0.1,0-0.1,0-0.2,0L1.3,6.4C1.1,6.3,1.1,6.2,1.1,6.2c0,0,0-0.1,0-0.1C1.1,6,1.3,5.9,1.5,5.9 M1.5,4.9c-0.6,0-1.1,0.3-1.4,0.8
				l0,0C-0.1,6.3,0.2,7,1,7.3l1.4,0.5c0.2,0.1,0.4,0.1,0.5,0.1c0.6,0,1.1-0.3,1.4-0.8v0c0.3-0.6-0.1-1.4-0.8-1.6L2,5
				C1.9,4.9,1.7,4.9,1.5,4.9L1.5,4.9z"/>
		</g>
		<g>
			<rect x="15" y="0.6" class="st5" width="1.9" height="2.8"/>
			<path class="st5" d="M16.5,1.1v1.8h-0.9V1.1H16.5 M17.2,0.1h-2.5c-0.1,0-0.2,0.1-0.2,0.2v3.3c0,0.1,0.1,0.2,0.2,0.2h2.5
				c0.1,0,0.2-0.1,0.2-0.2V0.3C17.5,0.2,17.4,0.1,17.2,0.1L17.2,0.1z"/>
		</g>
		<g>
			<path class="st5" d="M29.5,7.9c-0.3,0-0.5-0.1-0.7-0.2c-0.2-0.1-0.3-0.3-0.3-0.5c0-0.2,0.1-0.4,0.2-0.5l1-0.9
				c0.2-0.2,0.4-0.3,0.7-0.3c0.3,0,0.5,0.1,0.7,0.2c0.2,0.1,0.3,0.3,0.3,0.5c0,0.2-0.1,0.4-0.2,0.5l-1,0.9C30,7.8,29.8,7.9,29.5,7.9
				L29.5,7.9z"/>
			<path class="st5" d="M30.5,6c0.1,0,0.3,0,0.4,0.1c0.1,0,0.1,0.1,0.1,0.1c0,0.1,0,0.1-0.1,0.1l-1,0.9c-0.1,0.1-0.2,0.1-0.4,0.1
				c-0.1,0-0.3,0-0.4-0.1c-0.1,0-0.1-0.1-0.1-0.1c0-0.1,0-0.1,0.1-0.1l1-0.9C30.2,6,30.3,6,30.5,6 M30.5,5c-0.4,0-0.8,0.1-1.1,0.4
				l-1,0.9c-0.5,0.5-0.5,1.3,0.1,1.8c0.3,0.2,0.6,0.3,1,0.3c0.4,0,0.8-0.1,1.1-0.4l1-0.9c0.5-0.5,0.5-1.3-0.1-1.8h0
				C31.2,5.1,30.8,5,30.5,5L30.5,5z"/>
		</g>
		<g>
			<rect x="28.1" y="15.7" class="st5" width="3.4" height="1.5"/>
			<path class="st5" d="M31,16.2v0.5h-2.4v-0.5H31 M31.8,15.2h-3.9c-0.1,0-0.2,0.1-0.2,0.2v2.1c0,0.1,0.1,0.2,0.2,0.2h3.9
				c0.1,0,0.2-0.1,0.2-0.2v-2.1C32,15.3,31.9,15.2,31.8,15.2L31.8,15.2z"/>
		</g>
		<ellipse class="st6" cx="16" cy="13.9" rx="9.5" ry="8.2"/>
		<path class="st6" d="M19.6,31.9h-7.2c-0.4,0-0.6-0.3-0.6-0.6v-8.5c0-0.4,0.3-0.6,0.6-0.6h7.2c0.4,0,0.6,0.3,0.6,0.6v8.5
			C20.3,31.6,20,31.9,19.6,31.9z"/>
	</g>
</g>
<g id="Layer_2" class="st3">
	<g class="st7">
		<path class="st8" d="M28.5,1.9c1.1,1.3,1.9,3.1,2.6,5.6C31.7,9.9,32,12.7,32,16c0,3.3-0.3,6.1-0.9,8.5c-0.6,2.4-1.5,4.3-2.6,5.6
			c-1.1,1.3-2.3,1.9-3.6,1.9c-1.5,0-2.9-0.9-4.2-2.6c-1.3-1.7-2.9-4.7-4.9-8.9c-1.6,3.5-2.8,6-3.7,7.6c-0.9,1.6-1.7,2.7-2.4,3.2
			C9,31.7,8.1,32,7.1,32c-1.3,0-2.5-0.6-3.6-1.9c-1.1-1.3-2-3.1-2.6-5.6C0.3,22.1,0,19.3,0,16c0-3.3,0.3-6.1,0.9-8.5
			c0.6-2.4,1.5-4.3,2.6-5.6C4.6,0.6,5.8,0,7.1,0c1.5,0,3,0.9,4.3,2.6c1.3,1.7,2.9,4.7,4.8,8.8c1.6-3.5,2.9-6,3.9-7.6
			c1-1.6,1.8-2.6,2.5-3.1C23.2,0.2,24,0,24.9,0C26.2,0,27.4,0.6,28.5,1.9z M8.8,26.4c0.5-0.5,1.1-1.4,1.7-2.8
			c0.7-1.3,1.8-3.7,3.4-7.2c-1.9-3.9-3.3-6.6-4.2-8C8.8,7.1,7.9,6.4,7,6.4c-1,0-1.9,0.9-2.6,2.8c-0.7,1.9-1.1,4.4-1.1,7.6
			c0,3.2,0.4,5.7,1.1,7.6S6,27.2,7,27.2C7.7,27.2,8.3,26.9,8.8,26.4z M27.6,22.8c0.7-1.9,1.1-4.4,1.1-7.6c0-3.2-0.4-5.7-1.1-7.6
			C26.9,5.7,26,4.8,25,4.8c-0.7,0-1.3,0.2-1.8,0.7c-0.5,0.5-1.1,1.4-1.8,2.8c-0.7,1.4-1.9,3.8-3.4,7.2c1.6,3.6,3,6.1,4,7.7
			c1.1,1.6,2.1,2.4,3,2.4C26,25.6,26.9,24.7,27.6,22.8z"/>
	</g>
</g>
</svg>
