<svg xmlns="http://www.w3.org/2000/svg" viewBox="0 0 11.25 12.91"><g id="Layer_2" data-name="Layer 2"><g id="Layer_1-2" data-name="Layer 1"><path d="M6.94,4.39,2.08,10.72Z" style="fill:#751a7c"/><polygon points="6.9 4.07 0.31 12.63 0.68 12.91 7.27 4.35 6.9 4.07 6.9 4.07" style="fill:#751a7c"/><polygon points="6.82 4.35 4.86 4.31 6.08 2.78 5.52 0.9 7.35 1.6 8.96 0.48 8.87 2.44 10.43 3.63 8.54 4.14 7.89 5.99 6.82 4.35" style="fill:#751a7c"/><path d="M8.72.94,8.65,2.3v.25l.2.14,1.08.83-1.31.36-.24.06-.08.24L7.83,5.47,7.08,4.32,7,4.12H6.7l-1.36,0L6.19,3l.15-.2L6.27,2.6,5.9,1.29l1.27.47.24.09.2-.15L8.72.94M9.23,0,7.31,1.33,5.16.51l.66,2.22L4.38,4.53l2.31,0L8,6.52l.76-2.19L11,3.72,9.11,2.31,9.22,0Z" style="fill:#751a7c"/><path d="M2.83,1.61s.2.37.47.31.34-.32.43-.29-.08.36,0,.61.47.28.47.31-.57-.12-.73.09,0,.6,0,.61S3.39,2.69,3,2.62s-.58.22-.58.19.47-.19.56-.5S2.8,1.64,2.83,1.61Z" style="fill:#751a7c"/><path d="M.27,1.12s.14.27.33.23.25-.24.31-.22-.06.26,0,.44.34.2.33.23-.4-.09-.52.06,0,.43,0,.44S.67,1.9.42,1.83A.46.46,0,0,0,0,2s.32-.14.4-.35S.27,1.14.27,1.12Z" style="fill:#751a7c"/><path d="M1.09,3s.14.26.33.22.24-.24.31-.21-.06.26,0,.44.34.2.33.22-.41-.09-.53.07,0,.42,0,.44-.09-.41-.34-.47a.43.43,0,0,0-.42.14s.32-.14.4-.36S1.07,3,1.09,3Z" style="fill:#751a7c"/><path d="M7.78,7.22s.2.36.47.31.34-.33.43-.29-.08.36,0,.61.47.27.47.31-.57-.13-.74.09.06.6,0,.61S8.35,8.3,8,8.24s-.58.22-.58.2.47-.2.56-.51S7.78,7.24,7.78,7.22Z" style="fill:#751a7c"/><path d="M8.77,6s.26.16.4,0,.09-.33.15-.34.09.25.25.37.4,0,.4,0-.4.13-.42.33.25.34.24.36-.28-.3-.52-.2A.53.53,0,0,0,9,6.93a.89.89,0,0,0,.17-.51C9.1,6.18,8.76,6.07,8.77,6Z" style="fill:#751a7c"/><path d="M10.28,7.15s.14.26.33.22.25-.23.31-.21-.06.26,0,.44.34.19.33.22-.41-.09-.53.07,0,.43,0,.43-.1-.39-.35-.44A.53.53,0,0,0,10,8s.32-.14.4-.36S10.26,7.16,10.28,7.15Z" style="fill:#751a7c"/></g></g></svg>