<svg id="Layer_1" data-name="Layer 1" xmlns="http://www.w3.org/2000/svg" viewBox="0 0 23.99 27.47"><path d="M18.21,11.78,7.85,25.25Z" transform="translate(-3.45 -2.45)" style="fill:#751a7c"/><polygon points="14.67 8.63 0.64 26.86 1.43 27.47 15.46 9.24 14.67 8.63 14.67 8.63" style="fill:#751a7c"/><polygon points="14.5 9.24 10.32 9.15 12.94 5.89 11.73 1.89 15.64 3.37 19.07 0.99 18.87 5.16 22.19 7.69 18.17 8.79 16.79 12.73 14.5 9.24" style="fill:#751a7c"/><path d="M22,4.42l-.14,2.9,0,.53.42.31,2.3,1.76-2.79.76-.51.14-.17.5-1,2.74-1.59-2.43-.29-.44H17.7l-2.9-.06,1.81-2.26.33-.42-.15-.5L16,5.16l2.71,1,.5.19.43-.3L22,4.42m1.09-2L19,5.26,14.41,3.51l1.42,4.72-3.08,3.84,4.92.11,2.71,4.12L22,11.65l4.75-1.3-3.92-3,.23-4.92Z" transform="translate(-3.45 -2.45)" style="fill:#751a7c"/><path d="M9.46,5.85c.06,0,.43.78,1,.67s.72-.7.91-.63-.16.76.07,1.3,1,.59,1,.67-1.21-.27-1.56.19.12,1.27.07,1.3S10.65,8.16,9.9,8c-.56-.09-1.23.46-1.24.41s1-.41,1.2-1.06S9.4,5.91,9.46,5.85Z" transform="translate(-3.45 -2.45)" style="fill:#751a7c"/><path d="M4,4.81s.3.56.7.48.53-.5.66-.46-.12.56.05.94.73.42.71.48S5.27,6.06,5,6.39s.09.91.05.93-.19-.85-.73-1-.88.33-.89.3.69-.3.86-.76S4,4.85,4,4.81Z" transform="translate(-3.45 -2.45)" style="fill:#751a7c"/><path d="M5.75,8.7s.3.56.7.48.52-.51.66-.46-.12.55,0,.94.73.42.7.48-.87-.2-1.12.13.09.91,0,.94-.19-.86-.73-1-.89.33-.89.3.69-.3.86-.77S5.7,8.74,5.75,8.7Z" transform="translate(-3.45 -2.45)" style="fill:#751a7c"/><path d="M20,17.79c.06-.05.43.78,1,.67s.72-.7.91-.63-.16.77.07,1.3,1,.59,1,.67-1.22-.27-1.57.19.13,1.27.08,1.31-.27-1.2-1-1.33c-.56-.09-1.23.46-1.24.42s1-.42,1.2-1.07S20,17.85,20,17.79Z" transform="translate(-3.45 -2.45)" style="fill:#751a7c"/><path d="M22.11,15.29s.55.33.85.06.2-.7.33-.73.19.54.52.79.85,0,.86.05-.86.28-.9.69.54.74.52.78-.61-.64-1.12-.44-.59.72-.61.7.44-.6.35-1.1S22.09,15.35,22.11,15.29Z" transform="translate(-3.45 -2.45)" style="fill:#751a7c"/><path d="M25.32,17.64c.05,0,.31.56.71.48s.52-.5.66-.46-.12.56,0,.94.73.42.7.48-.87-.19-1.12.14.09.91.05.93-.2-.85-.73-.94-.89.32-.89.29.69-.3.86-.76S25.28,17.68,25.32,17.64Z" transform="translate(-3.45 -2.45)" style="fill:#751a7c"/></svg>