<svg xmlns="http://www.w3.org/2000/svg" viewBox="0 0 15.77 16.04"><g id="Layer_2" data-name="Layer 2"><g id="Layer_1-2" data-name="Layer 1"><rect x="6.82" y="3.32" width="2.28" height="13.79" rx="1.14" transform="translate(-4.46 6.53) rotate(-35.54)"/><rect x="9.7" y="-0.05" width="3" height="10" transform="translate(5.91 -6.1) rotate(40.57)" style="stroke:#fff;stroke-miterlimit:10;stroke-width:0.25px"/><polygon points="3.06 13.33 1.52 16.01 4.14 14.37 3.06 13.33"/><rect x="6.13" y="5.29" width="1" height="10" transform="translate(8.29 -1.84) rotate(40.57)"/><path d="M.23,5.06l.82,1.05c.28.35,1,1.39,1.6,1.23A28.47,28.47,0,0,0,6.06,4.66S6.5,3.41,4.88,1.43s-.41,2-.41,2L2.32,5,.9,3.83S.72,3.52.22,4,.23,5.06.23,5.06Z"/></g></g></svg>